<svg width="24" height="24" viewBox="0 0 24 24" fill="none" xmlns="http://www.w3.org/2000/svg">
<path d="M6.00049 20H18.0005V10H6.00049V20ZM12.0005 17C12.5505 17 13.0215 16.804 13.4135 16.412C13.8055 16.02 14.0012 15.5493 14.0005 15C14.0005 14.45 13.8045 13.979 13.4125 13.587C13.0205 13.195 12.5498 12.9993 12.0005 13C11.4505 13 10.9795 13.196 10.5875 13.588C10.1955 13.98 9.99982 14.4507 10.0005 15C10.0005 15.55 10.1965 16.021 10.5885 16.413C10.9805 16.805 11.4512 17.0007 12.0005 17ZM6.00049 22C5.45049 22 4.97949 21.804 4.58749 21.412C4.19549 21.02 3.99982 20.5493 4.00049 20V10C4.00049 9.45 4.19649 8.979 4.58849 8.587C4.98049 8.195 5.45116 7.99933 6.00049 8H13.0005V6C13.0005 4.61667 13.4882 3.43733 14.4635 2.462C15.4388 1.48667 16.6178 0.999334 18.0005 1C19.1838 1 20.2172 1.35833 21.1005 2.075C21.9838 2.79167 22.5672 3.69167 22.8505 4.775C22.9338 5.05833 22.8795 5.33333 22.6875 5.6C22.4955 5.86667 22.2665 6 22.0005 6C21.7172 6 21.4838 5.94167 21.3005 5.825C21.1172 5.70833 20.9838 5.51667 20.9005 5.25C20.7172 4.61667 20.3632 4.08333 19.8385 3.65C19.3138 3.21667 18.7012 3 18.0005 3C17.1672 3 16.4588 3.29167 15.8755 3.875C15.2922 4.45833 15.0005 5.16667 15.0005 6V8H18.0005C18.5505 8 19.0215 8.196 19.4135 8.588C19.8055 8.98 20.0012 9.45067 20.0005 10V20C20.0005 20.55 19.8045 21.021 19.4125 21.413C19.0205 21.805 18.5498 22.0007 18.0005 22H6.00049Z" fill="url(#paint0_linear_1361_17999)"/>
<defs>
<linearGradient id="paint0_linear_1361_17999" x1="2.50934" y1="-3.70312" x2="26.2382" y2="16.7375" gradientUnits="userSpaceOnUse">
<stop offset="0.0633718" stop-color="#3619AB"/>
<stop offset="0.517512" stop-color="#2272BB"/>
<stop offset="1" stop-color="#00814B"/>
</linearGradient>
</defs>
</svg>
