<svg width="24" height="24" viewBox="0 0 24 24" fill="none" xmlns="http://www.w3.org/2000/svg">
<path d="M5 19H14V15C14 14.7167 14.096 14.479 14.288 14.287C14.48 14.095 14.7173 13.9993 15 14H19V5H5V19ZM5 21C4.45 21 3.979 20.804 3.587 20.412C3.195 20.02 2.99934 19.5493 3 19V5C3 4.45 3.196 3.979 3.588 3.587C3.98 3.195 4.45067 2.99934 5 3H19C19.55 3 20.021 3.196 20.413 3.588C20.805 3.98 21.0007 4.45067 21 5V14.175C21 14.4417 20.95 14.696 20.85 14.938C20.75 15.18 20.6083 15.3923 20.425 15.575L15.575 20.425C15.3917 20.6083 15.1793 20.75 14.938 20.85C14.6967 20.95 14.4423 21 14.175 21H5ZM11 14H8C7.71667 14 7.479 13.904 7.287 13.712C7.095 13.52 6.99934 13.2827 7 13C7 12.7167 7.096 12.479 7.288 12.287C7.48 12.095 7.71734 11.9993 8 12H11C11.2833 12 11.521 12.096 11.713 12.288C11.905 12.48 12.0007 12.7173 12 13C12 13.2833 11.904 13.521 11.712 13.713C11.52 13.905 11.2827 14.0007 11 14ZM16 10H8C7.71667 10 7.479 9.904 7.287 9.712C7.095 9.52 6.99934 9.28267 7 9C7 8.71667 7.096 8.479 7.288 8.287C7.48 8.095 7.71734 7.99934 8 8H16C16.2833 8 16.521 8.096 16.713 8.288C16.905 8.48 17.0007 8.71734 17 9C17 9.28334 16.904 9.521 16.712 9.713C16.52 9.905 16.2827 10.0007 16 10Z" fill="url(#paint0_linear_1361_18011)"/>
<defs>
<linearGradient id="paint0_linear_1361_18011" x1="1.57895" y1="-1.03125" x2="22.1255" y2="18.6474" gradientUnits="userSpaceOnUse">
<stop offset="0.0633718" stop-color="#3619AB"/>
<stop offset="0.517512" stop-color="#2272BB"/>
<stop offset="1" stop-color="#00814B"/>
</linearGradient>
</defs>
</svg>
