<svg width="24" height="24" viewBox="0 0 24 24" fill="none" xmlns="http://www.w3.org/2000/svg">
<path d="M6.5 20C4.98333 20 3.68733 19.475 2.612 18.425C1.53667 17.375 0.999334 16.0917 1 14.575C1 13.275 1.39167 12.1167 2.175 11.1C2.95833 10.0833 3.98333 9.43333 5.25 9.15C5.66667 7.61667 6.5 6.375 7.75 5.425C9 4.475 10.4167 4 12 4C13.95 4 15.6043 4.67933 16.963 6.038C18.3217 7.39667 19.0007 9.05067 19 11C20.15 11.1333 21.1043 11.6293 21.863 12.488C22.6217 13.3467 23.0007 14.3507 23 15.5C23 16.75 22.5623 17.8127 21.687 18.688C20.8117 19.5633 19.7493 20.0007 18.5 20H13C12.45 20 11.979 19.804 11.587 19.412C11.195 19.02 10.9993 18.5493 11 18V12.8L10.1 13.7C9.91667 13.8833 9.68333 13.975 9.4 13.975C9.11667 13.975 8.88333 13.8833 8.7 13.7C8.51667 13.5167 8.425 13.2833 8.425 13C8.425 12.7167 8.51667 12.4833 8.7 12.3L11.3 9.7C11.4 9.6 11.5083 9.52933 11.625 9.488C11.7417 9.44667 11.8667 9.42567 12 9.425C12.1333 9.425 12.2583 9.446 12.375 9.488C12.4917 9.53 12.6 9.60067 12.7 9.7L15.3 12.3C15.4833 12.4833 15.575 12.7167 15.575 13C15.575 13.2833 15.4833 13.5167 15.3 13.7C15.1167 13.8833 14.8833 13.975 14.6 13.975C14.3167 13.975 14.0833 13.8833 13.9 13.7L13 12.8V18H18.5C19.2 18 19.7917 17.7583 20.275 17.275C20.7583 16.7917 21 16.2 21 15.5C21 14.8 20.7583 14.2083 20.275 13.725C19.7917 13.2417 19.2 13 18.5 13H17V11C17 9.61667 16.5123 8.43733 15.537 7.462C14.5617 6.48667 13.3827 5.99933 12 6C10.6167 6 9.43733 6.48767 8.462 7.463C7.48667 8.43833 6.99933 9.61733 7 11H6.5C5.53333 11 4.70833 11.3417 4.025 12.025C3.34167 12.7083 3 13.5333 3 14.5C3 15.4667 3.34167 16.2917 4.025 16.975C4.70833 17.6583 5.53333 18 6.5 18H8C8.28333 18 8.521 18.096 8.713 18.288C8.905 18.48 9.00067 18.7173 9 19C9 19.2833 8.904 19.521 8.712 19.713C8.52 19.905 8.28267 20.0007 8 20H6.5Z" fill="url(#paint0_linear_1361_20512)"/>
<defs>
<linearGradient id="paint0_linear_1361_20512" x1="-0.736842" y1="0.416666" x2="16.8723" y2="23.6064" gradientUnits="userSpaceOnUse">
<stop offset="0.0633718" stop-color="#3619AB"/>
<stop offset="0.517512" stop-color="#2272BB"/>
<stop offset="1" stop-color="#00814B"/>
</linearGradient>
</defs>
</svg>
