<svg width="24" height="24" viewBox="0 0 24 24" fill="none" xmlns="http://www.w3.org/2000/svg">
<path d="M5.30049 14.275C5.00049 13.975 4.85882 13.6167 4.87549 13.2C4.89216 12.7833 5.05882 12.4583 5.37549 12.225C6.29215 11.525 7.31315 10.9793 8.43849 10.588C9.56382 10.1967 10.7512 10.0007 12.0005 10C13.2672 10 14.4632 10.2 15.5885 10.6C16.7138 11 17.7345 11.5583 18.6505 12.275C18.9672 12.5083 19.1298 12.8293 19.1385 13.238C19.1472 13.6467 19.0012 14.0007 18.7005 14.3C18.4172 14.5833 18.0712 14.7293 17.6625 14.738C17.2538 14.7467 16.8748 14.634 16.5255 14.4C15.8755 13.95 15.1715 13.604 14.4135 13.362C13.6555 13.12 12.8512 12.9993 12.0005 13C11.1505 13 10.3462 13.125 9.58749 13.375C8.82882 13.625 8.13315 13.9667 7.50049 14.4C7.13382 14.65 6.74615 14.7627 6.33749 14.738C5.92882 14.7133 5.58316 14.559 5.30049 14.275ZM1.05049 10.05C0.767155 9.76667 0.625488 9.42067 0.625488 9.012C0.625488 8.60333 0.775488 8.266 1.07549 8C2.55882 6.75 4.22549 5.77067 6.07549 5.062C7.92549 4.35333 9.90049 3.99933 12.0005 4C14.1005 4 16.0755 4.35433 17.9255 5.063C19.7755 5.77167 21.4422 6.75067 22.9255 8C23.2255 8.26667 23.3798 8.6 23.3885 9C23.3972 9.4 23.2512 9.75 22.9505 10.05C22.6672 10.3333 22.3215 10.4833 21.9135 10.5C21.5055 10.5167 21.1345 10.3917 20.8005 10.125C19.5838 9.14167 18.2295 8.375 16.7375 7.825C15.2455 7.275 13.6665 7 12.0005 7C10.3338 7 8.75482 7.275 7.26349 7.825C5.77215 8.375 4.41782 9.14167 3.20049 10.125C2.86716 10.3917 2.49615 10.5167 2.08749 10.5C1.67882 10.4833 1.33315 10.3333 1.05049 10.05ZM12.0005 20C11.4338 20 10.9588 19.8083 10.5755 19.425C10.1922 19.0417 10.0005 18.5667 10.0005 18C10.0005 17.4333 10.1922 16.9583 10.5755 16.575C10.9588 16.1917 11.4338 16 12.0005 16C12.5672 16 13.0422 16.1917 13.4255 16.575C13.8088 16.9583 14.0005 17.4333 14.0005 18C14.0005 18.5667 13.8088 19.0417 13.4255 19.425C13.0422 19.8083 12.5672 20 12.0005 20Z" fill="url(#paint0_linear_1361_18001)"/>
<defs>
<linearGradient id="paint0_linear_1361_18001" x1="-1.17162" y1="0.416667" x2="16.2676" y2="24.1795" gradientUnits="userSpaceOnUse">
<stop offset="0.0633718" stop-color="#3619AB"/>
<stop offset="0.517512" stop-color="#2272BB"/>
<stop offset="1" stop-color="#00814B"/>
</linearGradient>
</defs>
</svg>
