<svg width="24" height="24" viewBox="0 0 24 24" fill="none" xmlns="http://www.w3.org/2000/svg">
<path d="M13.8247 8.45C13.5914 8.21667 13.333 8.03334 13.0497 7.9C12.7664 7.76667 12.433 7.7 12.0497 7.7C11.7497 7.7 11.458 7.74167 11.1747 7.825C10.8914 7.90834 10.633 8.06667 10.3997 8.3L8.94971 6.85C9.18304 6.61667 9.49971 6.404 9.89971 6.212C10.2997 6.02 10.6664 5.89934 10.9997 5.85V4.75C10.9997 4.46667 11.0954 4.229 11.2867 4.037C11.478 3.845 11.7157 3.74934 11.9997 3.75C12.283 3.75 12.5207 3.846 12.7127 4.038C12.9047 4.23 13.0004 4.46734 12.9997 4.75V5.8C13.583 5.91667 14.104 6.125 14.5627 6.425C15.0214 6.725 15.417 7.10834 15.7497 7.575C15.9164 7.80834 15.9457 8.05834 15.8377 8.325C15.7297 8.59167 15.5337 8.79167 15.2497 8.925C15.0164 9.00834 14.7747 9.00834 14.5247 8.925C14.2747 8.84167 14.0414 8.68334 13.8247 8.45ZM19.0997 22.65L15.1997 18.75C14.9497 19 14.608 19.2043 14.1747 19.363C13.7414 19.5217 13.3497 19.6173 12.9997 19.65V20.75C12.9997 21.0333 12.9037 21.271 12.7117 21.463C12.5197 21.655 12.2824 21.7507 11.9997 21.75C11.7164 21.75 11.4787 21.654 11.2867 21.462C11.0947 21.27 10.999 21.0327 10.9997 20.75V19.6C10.2497 19.4167 9.59537 19.104 9.03671 18.662C8.47804 18.22 8.03237 17.666 7.69971 17C7.56637 16.75 7.55804 16.4833 7.67471 16.2C7.79137 15.9167 7.99971 15.7167 8.29971 15.6C8.54971 15.5 8.80804 15.5 9.07471 15.6C9.34137 15.7 9.54971 15.8917 9.69971 16.175C9.94971 16.6417 10.283 17.0207 10.6997 17.312C11.1164 17.6033 11.6164 17.7493 12.1997 17.75C12.4997 17.75 12.7747 17.7123 13.0247 17.637C13.2747 17.5617 13.5164 17.4493 13.7497 17.3L2.09971 5.65C1.91637 5.46667 1.82471 5.23334 1.82471 4.95C1.82471 4.66667 1.91637 4.43334 2.09971 4.25C2.28304 4.06667 2.51637 3.975 2.79971 3.975C3.08304 3.975 3.31637 4.06667 3.49971 4.25L20.4997 21.25C20.5997 21.35 20.6707 21.4583 20.7127 21.575C20.7547 21.6917 20.7754 21.8167 20.7747 21.95C20.7747 22.0833 20.7537 22.2083 20.7117 22.325C20.6697 22.4417 20.599 22.55 20.4997 22.65C20.3164 22.8333 20.083 22.925 19.7997 22.925C19.5164 22.925 19.283 22.8333 19.0997 22.65Z" fill="url(#paint0_linear_1361_20508)"/>
<defs>
<linearGradient id="paint0_linear_1361_20508" x1="0.328653" y1="-0.544401" x2="22.2038" y2="20.1608" gradientUnits="userSpaceOnUse">
<stop offset="0.0633718" stop-color="#3619AB"/>
<stop offset="0.517512" stop-color="#2272BB"/>
<stop offset="1" stop-color="#00814B"/>
</linearGradient>
</defs>
</svg>
