<svg width="24" height="24" viewBox="0 0 24 24" fill="none" xmlns="http://www.w3.org/2000/svg">
<path d="M3 22C2.45 22 1.979 21.804 1.587 21.412C1.195 21.02 0.999335 20.5493 1 20V10C1 9.71667 1.096 9.479 1.288 9.287C1.48 9.095 1.71733 8.99934 2 9C2.28333 9 2.521 9.096 2.713 9.288C2.905 9.48 3.00067 9.71734 3 10V20H19C19.2833 20 19.521 20.096 19.713 20.288C19.905 20.48 20.0007 20.7173 20 21C20 21.2833 19.904 21.521 19.712 21.713C19.52 21.905 19.2827 22.0007 19 22H3ZM7 18C6.45 18 5.979 17.804 5.587 17.412C5.195 17.02 4.99934 16.5493 5 16V7C5 6.45 5.196 5.979 5.588 5.587C5.98 5.195 6.45067 4.99934 7 5H10V3C10 2.45 10.196 1.979 10.588 1.587C10.98 1.195 11.4507 0.999335 12 1H16C16.55 1 17.021 1.196 17.413 1.588C17.805 1.98 18.0007 2.45067 18 3V5H21C21.55 5 22.021 5.196 22.413 5.588C22.805 5.98 23.0007 6.45067 23 7V16C23 16.55 22.804 17.021 22.412 17.413C22.02 17.805 21.5493 18.0007 21 18H7ZM12 5H16V3H12V5ZM7 16H21V7H7V16Z" fill="url(#paint0_linear_1361_20500)"/>
<defs>
<linearGradient id="paint0_linear_1361_20500" x1="-0.736843" y1="-3.70313" x2="23.2564" y2="20.3708" gradientUnits="userSpaceOnUse">
<stop offset="0.0633718" stop-color="#3619AB"/>
<stop offset="0.517512" stop-color="#2272BB"/>
<stop offset="1" stop-color="#00814B"/>
</linearGradient>
</defs>
</svg>
