<svg width="24" height="24" viewBox="0 0 24 24" fill="none" xmlns="http://www.w3.org/2000/svg">
<path d="M6.00049 22C5.45049 22 4.97949 21.804 4.58749 21.412C4.19549 21.02 3.99982 20.5493 4.00049 20V10C4.00049 9.45 4.19649 8.979 4.58849 8.587C4.98049 8.195 5.45116 7.99933 6.00049 8H7.00049V6C7.00049 4.61667 7.48816 3.43733 8.46349 2.462C9.43882 1.48667 10.6178 0.999334 12.0005 1C13.3838 1 14.5632 1.48767 15.5385 2.463C16.5138 3.43833 17.0012 4.61733 17.0005 6V8H18.0005C18.5505 8 19.0215 8.196 19.4135 8.588C19.8055 8.98 20.0012 9.45067 20.0005 10V20C20.0005 20.55 19.8045 21.021 19.4125 21.413C19.0205 21.805 18.5498 22.0007 18.0005 22H6.00049ZM9.00049 8H15.0005V6C15.0005 5.16667 14.7088 4.45833 14.1255 3.875C13.5422 3.29167 12.8338 3 12.0005 3C11.1672 3 10.4588 3.29167 9.87549 3.875C9.29216 4.45833 9.00049 5.16667 9.00049 6V8ZM6.00049 20H18.0005V10H6.00049V20ZM12.0005 19C12.2838 19 12.5215 18.904 12.7135 18.712C12.9055 18.52 13.0012 18.2827 13.0005 18V16H15.0005C15.2838 16 15.5215 15.904 15.7135 15.712C15.9055 15.52 16.0012 15.2827 16.0005 15C16.0005 14.7167 15.9045 14.479 15.7125 14.287C15.5205 14.095 15.2832 13.9993 15.0005 14H13.0005V12C13.0005 11.7167 12.9045 11.479 12.7125 11.287C12.5205 11.095 12.2832 10.9993 12.0005 11C11.7172 11 11.4795 11.096 11.2875 11.288C11.0955 11.48 10.9998 11.7173 11.0005 12V14H9.00049C8.71716 14 8.47949 14.096 8.28749 14.288C8.09549 14.48 7.99982 14.7173 8.00049 15C8.00049 15.2833 8.09649 15.521 8.28849 15.713C8.48049 15.905 8.71782 16.0007 9.00049 16H11.0005V18C11.0005 18.2833 11.0965 18.521 11.2885 18.713C11.4805 18.905 11.7178 19.0007 12.0005 19Z" fill="url(#paint0_linear_1361_17991)"/>
<defs>
<linearGradient id="paint0_linear_1361_17991" x1="2.73733" y1="-3.70312" x2="25.5869" y2="12.9707" gradientUnits="userSpaceOnUse">
<stop offset="0.0633718" stop-color="#3619AB"/>
<stop offset="0.517512" stop-color="#2272BB"/>
<stop offset="1" stop-color="#00814B"/>
</linearGradient>
</defs>
</svg>
