<svg width="24" height="24" viewBox="0 0 24 24" fill="none" xmlns="http://www.w3.org/2000/svg">
<path d="M10.9993 20C10.7159 20 10.4783 19.904 10.2863 19.712C10.0943 19.52 9.99861 19.2827 9.99928 19V13L4.19928 5.6C3.94928 5.26667 3.91161 4.91667 4.08628 4.55C4.26094 4.18333 4.56528 4 4.99928 4H18.9993C19.4326 4 19.7369 4.18333 19.9123 4.55C20.0876 4.91667 20.0499 5.26667 19.7993 5.6L13.9993 13V19C13.9993 19.2833 13.9033 19.521 13.7113 19.713C13.5193 19.905 13.2819 20.0007 12.9993 20H10.9993ZM11.9993 12.3L16.9493 6H7.04928L11.9993 12.3Z" fill="url(#paint0_linear_1361_17995)"/>
<defs>
<linearGradient id="paint0_linear_1361_17995" x1="2.71204" y1="0.416666" x2="20.9777" y2="17.9566" gradientUnits="userSpaceOnUse">
<stop offset="0.0633718" stop-color="#3619AB"/>
<stop offset="0.517512" stop-color="#2272BB"/>
<stop offset="1" stop-color="#00814B"/>
</linearGradient>
</defs>
</svg>
