<svg width="24" height="24" viewBox="0 0 24 24" fill="none" xmlns="http://www.w3.org/2000/svg">
<path d="M11.9995 22C10.6328 22 9.34118 21.7373 8.12451 21.212C6.90785 20.6867 5.84518 19.97 4.93651 19.062C4.02851 18.154 3.31185 17.0917 2.78651 15.875C2.26118 14.6583 1.99885 13.3667 1.99951 12C1.99951 10.6167 2.26218 9.32067 2.78751 8.112C3.31285 6.90333 4.02951 5.84533 4.93751 4.938C5.84551 4.02933 6.90751 3.31267 8.12351 2.788C9.33951 2.26333 10.6315 2.00067 11.9995 2C13.3828 2 14.6788 2.26267 15.8875 2.788C17.0962 3.31333 18.1542 4.03 19.0615 4.938C19.9702 5.846 20.6868 6.90433 21.2115 8.113C21.7362 9.32167 21.9988 10.6173 21.9995 12C21.9995 13.3667 21.7368 14.6583 21.2115 15.875C20.6862 17.0917 19.9695 18.1543 19.0615 19.063C18.1535 19.971 17.0952 20.6877 15.8865 21.213C14.6778 21.7383 13.3822 22.0007 11.9995 22ZM11.9995 19.95C12.4328 19.35 12.8078 18.725 13.1245 18.075C13.4412 17.425 13.6995 16.7333 13.8995 16H10.0995C10.2995 16.7333 10.5578 17.425 10.8745 18.075C11.1912 18.725 11.5662 19.35 11.9995 19.95ZM9.39951 19.55C9.09951 19 8.83685 18.429 8.61151 17.837C8.38618 17.245 8.19885 16.6327 8.04951 16H5.09951C5.58285 16.8333 6.18718 17.5583 6.91251 18.175C7.63785 18.7917 8.46685 19.25 9.39951 19.55ZM14.5995 19.55C15.5328 19.25 16.3622 18.7917 17.0875 18.175C17.8128 17.5583 18.4168 16.8333 18.8995 16H15.9495C15.7995 16.6333 15.6122 17.246 15.3875 17.838C15.1628 18.43 14.9002 19.0007 14.5995 19.55ZM4.24951 14H7.64951C7.59951 13.6667 7.56185 13.3373 7.53651 13.012C7.51118 12.6867 7.49885 12.3493 7.49951 12C7.49951 11.65 7.51218 11.3127 7.53751 10.988C7.56285 10.6633 7.60018 10.334 7.64951 10H4.24951C4.16618 10.3333 4.10351 10.6627 4.06151 10.988C4.01951 11.3133 3.99885 11.6507 3.99951 12C3.99951 12.35 4.02051 12.6873 4.06251 13.012C4.10451 13.3367 4.16685 13.666 4.24951 14ZM9.64951 14H14.3495C14.3995 13.6667 14.4372 13.3373 14.4625 13.012C14.4878 12.6867 14.5002 12.3493 14.4995 12C14.4995 11.65 14.4868 11.3127 14.4615 10.988C14.4362 10.6633 14.3988 10.334 14.3495 10H9.64951C9.59951 10.3333 9.56185 10.6627 9.53651 10.988C9.51118 11.3133 9.49885 11.6507 9.49951 12C9.49951 12.35 9.51218 12.6873 9.53751 13.012C9.56285 13.3367 9.60018 13.666 9.64951 14ZM16.3495 14H19.7495C19.8328 13.6667 19.8955 13.3373 19.9375 13.012C19.9795 12.6867 20.0002 12.3493 19.9995 12C19.9995 11.65 19.9785 11.3127 19.9365 10.988C19.8945 10.6633 19.8322 10.334 19.7495 10H16.3495C16.3995 10.3333 16.4372 10.6627 16.4625 10.988C16.4878 11.3133 16.5002 11.6507 16.4995 12C16.4995 12.35 16.4868 12.6873 16.4615 13.012C16.4362 13.3367 16.3988 13.666 16.3495 14ZM15.9495 8H18.8995C18.4162 7.16667 17.8122 6.44167 17.0875 5.825C16.3628 5.20833 15.5335 4.75 14.5995 4.45C14.8995 5 15.1622 5.571 15.3875 6.163C15.6128 6.755 15.8002 7.36733 15.9495 8ZM10.0995 8H13.8995C13.6995 7.26667 13.4412 6.575 13.1245 5.925C12.8078 5.275 12.4328 4.65 11.9995 4.05C11.5662 4.65 11.1912 5.275 10.8745 5.925C10.5578 6.575 10.2995 7.26667 10.0995 8ZM5.09951 8H8.04951C8.19951 7.36667 8.38718 6.754 8.61251 6.162C8.83785 5.57 9.10018 4.99933 9.39951 4.45C8.46618 4.75 7.63685 5.20833 6.91151 5.825C6.18618 6.44167 5.58218 7.16667 5.09951 8Z" fill="url(#paint0_linear_1361_17993)"/>
<defs>
<linearGradient id="paint0_linear_1361_17993" x1="0.420564" y1="-2.47917" x2="23.2501" y2="19.386" gradientUnits="userSpaceOnUse">
<stop offset="0.0633718" stop-color="#3619AB"/>
<stop offset="0.517512" stop-color="#2272BB"/>
<stop offset="1" stop-color="#00814B"/>
</linearGradient>
</defs>
</svg>
