<svg width="24" height="24" viewBox="0 0 24 24" fill="none" xmlns="http://www.w3.org/2000/svg">
<path d="M3.00049 19.0004C2.71715 19.0004 2.47949 18.9044 2.28749 18.7124C2.09549 18.5204 1.99982 18.2831 2.00049 18.0004C2.00049 17.7171 2.09649 17.4794 2.28849 17.2874C2.48049 17.0954 2.71782 16.9997 3.00049 17.0004H21.0005C21.2838 17.0004 21.5215 17.0964 21.7135 17.2884C21.9055 17.4804 22.0012 17.7177 22.0005 18.0004C22.0005 18.2837 21.9045 18.5214 21.7125 18.7134C21.5205 18.9054 21.2832 19.0011 21.0005 19.0004H3.00049ZM2.50049 12.5754C2.31715 12.4754 2.20049 12.3254 2.15049 12.1254C2.10049 11.9254 2.12549 11.7337 2.22549 11.5504L2.70049 10.7004H1.75049C1.53382 10.7004 1.35482 10.6297 1.21349 10.4884C1.07216 10.3471 1.00115 10.1677 1.00049 9.95039C1.00049 9.73372 1.07149 9.55472 1.21349 9.41339C1.35549 9.27206 1.53449 9.20106 1.75049 9.20039H2.70049L2.22549 8.40039C2.12549 8.21706 2.10049 8.02539 2.15049 7.82539C2.20049 7.62539 2.31715 7.47539 2.50049 7.37539C2.68382 7.27539 2.87549 7.25039 3.07549 7.30039C3.27549 7.35039 3.42549 7.46706 3.52549 7.65039L4.00049 8.45039L4.47549 7.65039C4.57549 7.46706 4.72549 7.35039 4.92549 7.30039C5.12549 7.25039 5.31715 7.27539 5.50049 7.37539C5.68382 7.47539 5.80049 7.62539 5.85049 7.82539C5.90049 8.02539 5.87549 8.21706 5.77549 8.40039L5.30049 9.20039H6.25049C6.46715 9.20039 6.64616 9.27139 6.78749 9.41339C6.92882 9.55539 6.99982 9.73439 7.00049 9.95039C7.00049 10.1671 6.92949 10.3464 6.78749 10.4884C6.64549 10.6304 6.46649 10.7011 6.25049 10.7004H5.30049L5.77549 11.5504C5.87549 11.7337 5.90049 11.9254 5.85049 12.1254C5.80049 12.3254 5.68382 12.4754 5.50049 12.5754C5.31715 12.6754 5.12549 12.7004 4.92549 12.6504C4.72549 12.6004 4.57549 12.4837 4.47549 12.3004L4.00049 11.4504L3.52549 12.3004C3.42549 12.4837 3.27549 12.6004 3.07549 12.6504C2.87549 12.7004 2.68382 12.6754 2.50049 12.5754ZM10.5005 12.5754C10.3172 12.4754 10.2005 12.3254 10.1505 12.1254C10.1005 11.9254 10.1255 11.7337 10.2255 11.5504L10.7005 10.7004H9.75049C9.53382 10.7004 9.35482 10.6297 9.21349 10.4884C9.07215 10.3471 9.00115 10.1677 9.00049 9.95039C9.00049 9.73372 9.07149 9.55472 9.21349 9.41339C9.35549 9.27206 9.53449 9.20106 9.75049 9.20039H10.7005L10.2255 8.40039C10.1255 8.21706 10.1005 8.02539 10.1505 7.82539C10.2005 7.62539 10.3172 7.47539 10.5005 7.37539C10.6838 7.27539 10.8755 7.25039 11.0755 7.30039C11.2755 7.35039 11.4255 7.46706 11.5255 7.65039L12.0005 8.45039L12.4755 7.65039C12.5755 7.46706 12.7255 7.35039 12.9255 7.30039C13.1255 7.25039 13.3172 7.27539 13.5005 7.37539C13.6838 7.47539 13.8005 7.62539 13.8505 7.82539C13.9005 8.02539 13.8755 8.21706 13.7755 8.40039L13.3005 9.20039H14.2505C14.4672 9.20039 14.6462 9.27139 14.7875 9.41339C14.9288 9.55539 14.9998 9.73439 15.0005 9.95039C15.0005 10.1671 14.9295 10.3464 14.7875 10.4884C14.6455 10.6304 14.4665 10.7011 14.2505 10.7004H13.3005L13.7755 11.5504C13.8755 11.7337 13.9005 11.9254 13.8505 12.1254C13.8005 12.3254 13.6838 12.4754 13.5005 12.5754C13.3172 12.6754 13.1255 12.7004 12.9255 12.6504C12.7255 12.6004 12.5755 12.4837 12.4755 12.3004L12.0005 11.4504L11.5255 12.3004C11.4255 12.4837 11.2755 12.6004 11.0755 12.6504C10.8755 12.7004 10.6838 12.6754 10.5005 12.5754ZM18.5005 12.5754C18.3172 12.4754 18.2005 12.3254 18.1505 12.1254C18.1005 11.9254 18.1255 11.7337 18.2255 11.5504L18.7005 10.7004H17.7505C17.5338 10.7004 17.3548 10.6297 17.2135 10.4884C17.0722 10.3471 17.0012 10.1677 17.0005 9.95039C17.0005 9.73372 17.0715 9.55472 17.2135 9.41339C17.3555 9.27206 17.5345 9.20106 17.7505 9.20039H18.7005L18.2255 8.40039C18.1255 8.21706 18.1005 8.02539 18.1505 7.82539C18.2005 7.62539 18.3172 7.47539 18.5005 7.37539C18.6838 7.27539 18.8755 7.25039 19.0755 7.30039C19.2755 7.35039 19.4255 7.46706 19.5255 7.65039L20.0005 8.45039L20.4755 7.65039C20.5755 7.46706 20.7255 7.35039 20.9255 7.30039C21.1255 7.25039 21.3172 7.27539 21.5005 7.37539C21.6838 7.47539 21.8005 7.62539 21.8505 7.82539C21.9005 8.02539 21.8755 8.21706 21.7755 8.40039L21.3005 9.20039H22.2505C22.4672 9.20039 22.6462 9.27139 22.7875 9.41339C22.9288 9.55539 22.9998 9.73439 23.0005 9.95039C23.0005 10.1671 22.9295 10.3464 22.7875 10.4884C22.6455 10.6304 22.4665 10.7011 22.2505 10.7004H21.3005L21.7755 11.5504C21.8755 11.7337 21.9005 11.9254 21.8505 12.1254C21.8005 12.3254 21.6838 12.4754 21.5005 12.5754C21.3172 12.6754 21.1255 12.7004 20.9255 12.6504C20.7255 12.6004 20.5755 12.4837 20.4755 12.3004L20.0005 11.4504L19.5255 12.3004C19.4255 12.4837 19.2755 12.6004 19.0755 12.6504C18.8755 12.7004 18.6838 12.6754 18.5005 12.5754Z" fill="url(#paint0_linear_1361_17997)"/>
<defs>
<linearGradient id="paint0_linear_1361_17997" x1="-0.736354" y1="4.64948" x2="10.6476" y2="25.1073" gradientUnits="userSpaceOnUse">
<stop offset="0.0633718" stop-color="#3619AB"/>
<stop offset="0.517512" stop-color="#2272BB"/>
<stop offset="1" stop-color="#00814B"/>
</linearGradient>
</defs>
</svg>
