<svg width="24" height="24" viewBox="0 0 24 24" fill="none" xmlns="http://www.w3.org/2000/svg">
<path d="M11.8791 22.5C11.5518 22.5 11.2773 22.388 11.0555 22.164C10.8338 21.94 10.7233 21.6631 10.724 21.3333V19.9917C9.85775 19.7972 9.09735 19.4569 8.44283 18.9708C7.78831 18.4847 7.25892 17.8042 6.85465 16.9292C6.7199 16.6569 6.71528 16.3699 6.84079 16.0682C6.96631 15.7664 7.19231 15.5478 7.5188 15.4125C7.78831 15.2958 8.06744 15.3009 8.3562 15.4277C8.64496 15.5544 8.86635 15.7633 9.02035 16.0542C9.34761 16.6375 9.7615 17.0797 10.262 17.3807C10.7625 17.6817 11.3786 17.8326 12.1101 17.8333C12.8994 17.8333 13.5681 17.6533 14.1164 17.2932C14.6646 16.9331 14.9392 16.3742 14.9399 15.6167C14.9399 14.9361 14.7282 14.3967 14.3047 13.9985C13.8811 13.6003 12.8994 13.148 11.3593 12.6417C9.70375 12.1167 8.56796 11.4894 7.95194 10.7598C7.33592 10.0303 7.02791 9.14089 7.02791 8.09167C7.02791 6.82778 7.43217 5.84584 8.2407 5.14584C9.04923 4.44584 9.877 4.04723 10.724 3.95V2.66667C10.724 2.33611 10.8349 2.05884 11.0567 1.83484C11.2785 1.61084 11.5522 1.49923 11.8779 1.5C12.2052 1.5 12.4797 1.612 12.7015 1.836C12.9232 2.06 13.0337 2.33689 13.033 2.66667V3.95C13.7645 4.06667 14.3998 4.30506 14.9388 4.66517C15.4778 5.02528 15.9206 5.46745 16.2671 5.99167C16.4403 6.24445 16.4742 6.52639 16.3687 6.8375C16.2632 7.14861 16.0465 7.37222 15.7184 7.50833C15.4489 7.625 15.1698 7.63006 14.881 7.5235C14.5923 7.41695 14.3227 7.22717 14.0725 6.95417C13.8222 6.68195 13.5285 6.47311 13.1912 6.32767C12.8539 6.18222 12.4354 6.10911 11.9357 6.10834C11.0886 6.10834 10.4437 6.29811 10.001 6.67767C9.55821 7.05722 9.33722 7.52856 9.33799 8.09167C9.33799 8.73333 9.62675 9.23889 10.2043 9.60833C10.7818 9.97778 11.7828 10.3667 13.2074 10.775C14.5357 11.1639 15.5417 11.7814 16.2255 12.6277C16.9093 13.4739 17.2508 14.4508 17.25 15.5583C17.25 16.9389 16.8457 17.9889 16.0372 18.7083C15.2287 19.4278 14.2276 19.875 13.0341 20.05V21.3333C13.0341 21.6639 12.9232 21.9412 12.7015 22.1652C12.4797 22.3892 12.2056 22.5008 11.8791 22.5Z" fill="url(#paint0_linear_1361_20498)"/>
<defs>
<linearGradient id="paint0_linear_1361_20498" x1="5.92105" y1="-3.20312" x2="24.6141" y2="5.74856" gradientUnits="userSpaceOnUse">
<stop offset="0.0633718" stop-color="#3619AB"/>
<stop offset="0.517512" stop-color="#2272BB"/>
<stop offset="1" stop-color="#00814B"/>
</linearGradient>
</defs>
</svg>
