<svg width="24" height="24" viewBox="0 0 24 24" fill="none" xmlns="http://www.w3.org/2000/svg">
<path d="M10.2995 19.8C11.0495 18.2833 12.0495 17.2707 13.2995 16.762C14.5495 16.2533 15.6162 15.9993 16.4995 16C16.8828 16 17.2578 16.0333 17.6245 16.1C17.9912 16.1667 18.3495 16.25 18.6995 16.35C19.0995 15.7167 19.4162 15.0333 19.6495 14.3C19.8828 13.5667 19.9995 12.8 19.9995 12C19.9995 9.76667 19.2245 7.875 17.6745 6.325C16.1245 4.775 14.2328 4 11.9995 4C9.76618 4 7.87451 4.775 6.32451 6.325C4.77451 7.875 3.99951 9.76667 3.99951 12C3.99951 12.75 4.09518 13.4667 4.28651 14.15C4.47785 14.8333 4.76551 15.4667 5.14951 16.05C5.83285 15.7167 6.54118 15.4583 7.27451 15.275C8.00784 15.0917 8.74951 15 9.49951 15C10.0328 15 10.5452 15.046 11.0365 15.138C11.5278 15.23 12.0155 15.3507 12.4995 15.5C12.1162 15.7 11.7535 15.9333 11.4115 16.2C11.0695 16.4667 10.7488 16.75 10.4495 17.05C10.2495 17.0167 10.0788 17 9.93751 17H9.49951C8.96618 17 8.43685 17.0583 7.91151 17.175C7.38618 17.2917 6.88218 17.4667 6.39951 17.7C6.93285 18.2333 7.52884 18.6793 8.18751 19.038C8.84618 19.3967 9.55018 19.6507 10.2995 19.8ZM11.9995 22C10.6162 22 9.31618 21.7373 8.09951 21.212C6.88285 20.6867 5.82451 19.9743 4.92451 19.075C4.02451 18.175 3.31218 17.1167 2.78751 15.9C2.26285 14.6833 2.00018 13.3833 1.99951 12C1.99951 10.6167 2.26218 9.31667 2.78751 8.1C3.31285 6.88333 4.02518 5.825 4.92451 4.925C5.82451 4.025 6.88285 3.31267 8.09951 2.788C9.31618 2.26333 10.6162 2.00067 11.9995 2C13.3828 2 14.6828 2.26267 15.8995 2.788C17.1162 3.31333 18.1745 4.02567 19.0745 4.925C19.9745 5.825 20.6872 6.88333 21.2125 8.1C21.7378 9.31667 22.0002 10.6167 21.9995 12C21.9995 13.3833 21.7368 14.6833 21.2115 15.9C20.6862 17.1167 19.9738 18.175 19.0745 19.075C18.1745 19.975 17.1162 20.6877 15.8995 21.213C14.6828 21.7383 13.3828 22.0007 11.9995 22ZM9.49951 13.5C8.53285 13.5 7.70785 13.1583 7.02451 12.475C6.34118 11.7917 5.99951 10.9667 5.99951 10C5.99951 9.03333 6.34118 8.20833 7.02451 7.525C7.70785 6.84167 8.53285 6.5 9.49951 6.5C10.4662 6.5 11.2912 6.84167 11.9745 7.525C12.6578 8.20833 12.9995 9.03333 12.9995 10C12.9995 10.9667 12.6578 11.7917 11.9745 12.475C11.2912 13.1583 10.4662 13.5 9.49951 13.5ZM9.49951 11.5C9.91618 11.5 10.2705 11.354 10.5625 11.062C10.8545 10.77 11.0002 10.416 10.9995 10C10.9995 9.58333 10.8535 9.229 10.5615 8.937C10.2695 8.645 9.91551 8.49933 9.49951 8.5C9.08285 8.5 8.72851 8.646 8.43651 8.938C8.14451 9.23 7.99885 9.584 7.99951 10C7.99951 10.4167 8.14551 10.771 8.43751 11.063C8.72951 11.355 9.08351 11.5007 9.49951 11.5ZM16.4995 14.5C15.7995 14.5 15.2078 14.2583 14.7245 13.775C14.2412 13.2917 13.9995 12.7 13.9995 12C13.9995 11.3 14.2412 10.7083 14.7245 10.225C15.2078 9.74167 15.7995 9.5 16.4995 9.5C17.1995 9.5 17.7912 9.74167 18.2745 10.225C18.7578 10.7083 18.9995 11.3 18.9995 12C18.9995 12.7 18.7578 13.2917 18.2745 13.775C17.7912 14.2583 17.1995 14.5 16.4995 14.5Z" fill="url(#paint0_linear_1361_18009)"/>
<defs>
<linearGradient id="paint0_linear_1361_18009" x1="0.420564" y1="-2.47917" x2="23.2501" y2="19.386" gradientUnits="userSpaceOnUse">
<stop offset="0.0633718" stop-color="#3619AB"/>
<stop offset="0.517512" stop-color="#2272BB"/>
<stop offset="1" stop-color="#00814B"/>
</linearGradient>
</defs>
</svg>
