<svg width="80" height="80" viewBox="0 0 80 80" fill="none" xmlns="http://www.w3.org/2000/svg">
<path d="M56.665 53.3347C58.0539 53.3347 59.235 52.8624 60.2084 51.918C61.1817 50.9735 61.6673 49.7791 61.665 48.3347C61.665 46.9458 61.1784 45.7647 60.205 44.7913C59.2317 43.818 58.0517 43.3324 56.665 43.3347C55.2206 43.3347 54.0262 43.8213 53.0817 44.7947C52.1373 45.768 51.665 46.948 51.665 48.3347C51.665 49.7791 52.1373 50.9735 53.0817 51.918C54.0262 52.8624 55.2206 53.3347 56.665 53.3347ZM6.66504 30.0013L17.9984 18.668C18.6095 18.0569 19.3184 17.5702 20.125 17.208C20.9317 16.8458 21.8062 16.6658 22.7484 16.668H57.165C58.1095 16.668 58.985 16.8491 59.7917 17.2113C60.5984 17.5735 61.3062 18.0591 61.915 18.668L73.3317 30.0013H6.66504ZM13.3317 63.3347C11.4428 63.3347 9.85948 62.6958 8.58171 61.418C7.30393 60.1402 6.66504 58.5569 6.66504 56.668V36.668H73.3317V56.668C73.3317 58.5569 72.6784 60.1402 71.3717 61.418C70.065 62.6958 68.4962 63.3347 66.665 63.3347H13.3317Z" fill="#4363B0"/>
</svg>
