<svg width="80" height="80" viewBox="0 0 80 80" fill="none" xmlns="http://www.w3.org/2000/svg">
<path d="M40.0016 69.9466C35.8588 69.9466 31.9656 69.16 28.3219 67.5867C24.6783 66.0135 21.5088 63.8802 18.8135 61.1869C16.1182 58.4915 13.9849 55.3221 12.4136 51.6784C10.8423 48.0347 10.0557 44.1415 10.0537 39.9987C10.0537 35.8559 10.8403 31.9627 12.4136 28.319C13.9869 24.6754 16.1202 21.5059 18.8135 18.8105C21.5088 16.1152 24.6783 13.9819 28.3219 12.4107C31.9656 10.8394 35.8588 10.0528 40.0016 10.0508C44.1444 10.0508 48.0377 10.8374 51.6813 12.4107C55.325 13.9839 58.4945 16.1172 61.1898 18.8105C63.8851 21.5059 66.0194 24.6754 67.5926 28.319C69.1659 31.9627 69.9515 35.8559 69.9496 39.9987C69.9496 44.1415 69.1629 48.0347 67.5897 51.6784C66.0164 55.3221 63.8831 58.4915 61.1898 61.1869C58.4945 63.8822 55.325 66.0165 51.6813 67.5897C48.0377 69.163 44.1444 69.9486 40.0016 69.9466ZM38.2048 44.4909V54.7481C38.2048 55.5467 38.5791 56.0338 39.3278 56.2095C40.0765 56.3852 40.6505 56.1227 41.0498 55.4219L50.1091 37.6777C50.3586 37.1786 50.3337 36.6924 50.0342 36.2193C49.7347 35.7461 49.3104 35.5085 48.7614 35.5065H42.2477V25.0996C42.2477 24.301 41.8734 23.8019 41.1247 23.6022C40.376 23.4026 39.802 23.6521 39.4027 24.3509L29.9691 42.3197C29.7195 42.8687 29.7325 43.3678 30.008 43.8171C30.2835 44.2663 30.6948 44.4909 31.2419 44.4909H38.2048Z" fill="#4363B0"/>
</svg>
