<svg width="80" height="80" viewBox="0 0 80 80" fill="none" xmlns="http://www.w3.org/2000/svg">
<path d="M40 70.625C35.8137 70.625 31.8604 69.8167 28.14 68.2C24.4196 66.5833 21.1704 64.3859 18.3923 61.6077C15.6141 58.8296 13.4167 55.5804 11.8 51.86C10.1833 48.1396 9.375 44.1863 9.375 40C9.375 35.7926 10.1833 31.834 11.8 28.1241C13.4167 24.4143 15.6141 21.1704 18.3923 18.3923C21.1704 15.6141 24.4196 13.4167 28.14 11.8C31.8604 10.1833 35.8137 9.375 40 9.375C44.2074 9.375 48.166 10.1833 51.8759 11.8C55.5857 13.4167 58.8296 15.6141 61.6077 18.3923C64.3859 21.1704 66.5833 24.4143 68.2 28.1241C69.8167 31.834 70.625 35.7926 70.625 40C70.625 44.1863 69.8167 48.1396 68.2 51.86C66.5833 55.5804 64.3859 58.8296 61.6077 61.6077C58.8296 64.3859 55.5857 66.5833 51.8759 68.2C48.166 69.8167 44.2074 70.625 40 70.625ZM39.9174 62.7765C41.0736 61.0783 42.1143 59.2864 43.0396 57.4008C43.965 55.5152 44.7199 53.5285 45.3043 51.4407H34.6544C35.2389 53.5285 35.9731 55.5152 36.8571 57.4008C37.7412 59.2864 38.7613 61.0783 39.9174 62.7765ZM32.5264 61.6077C31.5947 60.0556 30.8277 58.4151 30.2253 56.6862C29.6228 54.9573 29.1024 53.2088 28.6641 51.4407H20.2917C21.6215 53.8207 23.3249 55.8979 25.4022 57.6724C27.4794 59.4468 29.8542 60.7586 32.5264 61.6077ZM47.3498 61.6077C50.022 60.7586 52.4105 59.4468 54.5152 57.6724C56.62 55.8979 58.3373 53.8207 59.667 51.4407H51.2946C50.8563 53.2088 50.3222 54.9573 49.6922 56.6862C49.0622 58.4151 48.2814 60.0556 47.3498 61.6077ZM17.8492 45.7203H27.4953C27.3492 44.7463 27.2396 43.7982 27.1665 42.8761C27.0935 41.9539 27.057 40.9952 27.057 40C27.057 38.9773 27.0935 38.0117 27.1665 37.1033C27.2396 36.1949 27.3492 35.2537 27.4953 34.2797H17.8492C17.6057 35.2262 17.423 36.1605 17.3013 37.0826C17.1795 38.0048 17.1187 38.9773 17.1187 40C17.1187 40.9952 17.1795 41.9608 17.3013 42.8967C17.423 43.8326 17.6057 44.7738 17.8492 45.7203ZM33.3395 45.7203H46.6192C46.7653 44.7463 46.8611 43.7982 46.9066 42.8761C46.9522 41.9539 46.9749 40.9952 46.9749 40C46.9749 38.9773 46.9522 38.0117 46.9066 37.1033C46.8611 36.1949 46.7653 35.2537 46.6192 34.2797H33.3395C33.1934 35.2537 33.0838 36.1949 33.0108 37.1033C32.9377 38.0117 32.9012 38.9773 32.9012 40C32.9012 40.9952 32.9377 41.9539 33.0108 42.8761C33.0838 43.7982 33.1934 44.7463 33.3395 45.7203ZM52.4634 45.7203H62.0683C62.3118 44.7738 62.4944 43.8326 62.6162 42.8967C62.7379 41.9608 62.7988 40.9952 62.7988 40C62.7988 38.9773 62.7379 38.0048 62.6162 37.0826C62.4944 36.1605 62.3118 35.2262 62.0683 34.2797H52.4634C52.582 35.2537 52.6709 36.1949 52.7302 37.1033C52.7895 38.0117 52.8191 38.9773 52.8191 40C52.8191 40.9952 52.7895 41.9539 52.7302 42.8761C52.6709 43.7982 52.582 44.7463 52.4634 45.7203ZM51.2946 28.518H59.667C58.3373 26.138 56.62 24.0677 54.5152 22.307C52.4105 20.5463 50.022 19.2414 47.3498 18.3923C48.2814 19.9444 49.0622 21.578 49.6922 23.2932C50.3222 25.0083 50.8563 26.7499 51.2946 28.518ZM34.6544 28.518H45.3043C44.7474 26.4302 44.0063 24.4504 43.0809 22.5785C42.1556 20.7067 41.1011 18.9217 39.9174 17.2235C38.7613 18.9217 37.7412 20.7067 36.8571 22.5785C35.9731 24.4504 35.2389 26.4302 34.6544 28.518ZM20.2917 28.518H28.6641C29.1024 26.7499 29.6228 25.0083 30.2253 23.2932C30.8277 21.578 31.5947 19.9444 32.5264 18.3923C29.8542 19.2414 27.4794 20.5463 25.4022 22.307C23.3249 24.0677 21.6215 26.138 20.2917 28.518Z" fill="#4363B0"/>
</svg>
