<svg width="80" height="80" viewBox="0 0 80 80" fill="none" xmlns="http://www.w3.org/2000/svg">
<path d="M40 36.8056C47.9861 36.8056 54.7743 35.5544 60.3646 33.0521C65.9549 30.5498 68.75 27.5417 68.75 24.0278C68.75 20.5139 65.9549 17.5058 60.3646 15.0035C54.7743 12.5012 47.9861 11.25 40 11.25C32.0139 11.25 25.2257 12.5012 19.6354 15.0035C14.0451 17.5058 11.25 20.5139 11.25 24.0278C11.25 27.5417 14.0451 30.5498 19.6354 33.0521C25.2257 35.5544 32.0139 36.8056 40 36.8056ZM40 44.7917C42.1829 44.7917 44.912 44.5649 48.1874 44.1113C51.4627 43.6576 54.6167 42.9261 57.6493 41.9167C60.684 40.9051 63.2928 39.5879 65.4757 37.9651C67.6586 36.3424 68.75 34.3586 68.75 32.0139V40C68.75 42.3426 67.6586 44.3263 65.4757 45.9513C63.2928 47.5762 60.684 48.8933 57.6493 49.9028C54.6146 50.9144 51.4606 51.6469 48.1874 52.1006C44.9141 52.5542 42.185 52.7799 40 52.7778C37.8171 52.7778 35.088 52.551 31.8126 52.0974C28.5373 51.6438 25.3844 50.9122 22.3539 49.9028C19.3192 48.8912 16.7104 47.574 14.5275 45.9513C12.3446 44.3285 11.2521 42.3447 11.25 40V32.0139C11.25 34.3565 12.3414 36.3402 14.5243 37.9651C16.7072 39.59 19.316 40.9072 22.3507 41.9167C25.3854 42.9282 28.5405 43.6608 31.8158 44.1144C35.0912 44.5681 37.8193 44.7938 40 44.7917ZM40 60.7639C42.1829 60.7639 44.912 60.5371 48.1874 60.0835C51.4627 59.6299 54.6167 58.8983 57.6493 57.8889C60.684 56.8773 63.2928 55.5591 65.4757 53.9342C67.6586 52.3093 68.75 50.3266 68.75 47.9861V55.9722C68.75 58.3148 67.6586 60.2986 65.4757 61.9235C63.2928 63.5484 60.684 64.8656 57.6493 65.875C54.6146 66.8866 51.4606 67.6192 48.1874 68.0728C44.9141 68.5264 42.185 68.7521 40 68.75C37.8171 68.75 35.088 68.5232 31.8126 68.0696C28.5373 67.616 25.3844 66.8844 22.3539 65.875C19.3192 64.8634 16.7104 63.5452 14.5275 61.9203C12.3446 60.2954 11.2521 58.3127 11.25 55.9722V47.9861C11.25 50.3287 12.3414 52.3125 14.5243 53.9374C16.7072 55.5623 19.316 56.8794 22.3507 57.8889C25.3854 58.9005 28.5405 59.6331 31.8158 60.0867C35.0912 60.5403 37.8193 60.766 40 60.7639Z" fill="#4363B0"/>
</svg>
