<svg width="80" height="80" viewBox="0 0 80 80" fill="none" xmlns="http://www.w3.org/2000/svg">
<path d="M40.0022 40.0002C36.0299 40.0002 32.6295 38.5859 29.8008 35.7572C26.9721 32.9285 25.5577 29.528 25.5577 25.5558C25.5577 21.5836 26.9721 18.1831 29.8008 15.3544C32.6295 12.5257 36.0299 11.1113 40.0022 11.1113C43.9744 11.1113 47.3749 12.5257 50.2036 15.3544C53.0323 18.1831 54.4466 21.5836 54.4466 25.5558C54.4466 29.528 53.0323 32.9285 50.2036 35.7572C47.3749 38.5859 43.9744 40.0002 40.0022 40.0002ZM14.7244 68.8891C12.73 68.8891 11.1133 67.2724 11.1133 65.278V58.778C11.1133 56.7317 11.6405 54.8503 12.6949 53.1338C13.7494 51.4173 15.1481 50.1089 16.8911 49.2086C20.6225 47.3428 24.4142 45.9429 28.2661 45.0088C32.1179 44.0748 36.0299 43.6089 40.0022 43.6113C43.9744 43.6113 47.8864 44.0784 51.7383 45.0124C55.5901 45.9465 59.3818 47.3452 63.1133 49.2086C64.8587 50.1113 66.2586 51.421 67.313 53.1374C68.3674 54.8539 68.8935 56.7341 68.8911 58.778V65.278C68.8911 67.2724 67.2743 68.8891 65.2799 68.8891H14.7244Z" fill="#4363B0"/>
</svg>
