<svg width="80" height="80" viewBox="0 0 80 80" fill="none" xmlns="http://www.w3.org/2000/svg">
<path d="M31.9674 40.0002C29.8008 40.0002 27.9952 39.1877 26.5508 37.5627C25.1063 35.9377 24.5346 34.0419 24.8355 31.8752L26.0091 23.028C26.4906 19.5974 28.0554 16.7531 30.7036 14.4949C33.3517 12.2368 36.4512 11.1089 40.0022 11.1113C43.5531 11.1113 46.6526 12.2404 49.3008 14.4986C51.9489 16.7567 53.5137 19.5999 53.9952 23.028L55.1688 31.8752C55.4698 34.0419 54.898 35.9377 53.4536 37.5627C52.0091 39.1877 50.2036 40.0002 48.0369 40.0002H31.9674ZM14.7244 68.8891C12.73 68.8891 11.1133 67.2724 11.1133 65.278V58.778C11.1133 56.7317 11.6405 54.8503 12.6949 53.1338C13.7494 51.4174 15.1481 50.1089 16.8911 49.2086C20.6225 47.3428 24.4142 45.9429 28.2661 45.0088C32.1179 44.0748 36.0299 43.6089 40.0022 43.6113C43.9744 43.6113 47.8864 44.0784 51.7383 45.0124C55.5901 45.9465 59.3818 47.3452 63.1133 49.2086C64.8587 50.1113 66.2586 51.421 67.313 53.1374C68.3674 54.8539 68.8935 56.7341 68.8911 58.778V65.278C68.8911 67.2724 67.2743 68.8891 65.2799 68.8891H14.7244Z" fill="#4363B0"/>
</svg>
