<svg width="80" height="80" viewBox="0 0 80 80" fill="none" xmlns="http://www.w3.org/2000/svg">
<path d="M50.8312 36.3889H56.2478V31.875H61.6645V26.4583H56.2478V21.9445H50.8312V36.3889ZM18.3312 31.875H47.2201V26.4583H18.3312V31.875ZM23.7478 50.8333H29.1645V36.3889H23.7478V40.9028H18.3312V46.3195H23.7478V50.8333ZM32.7756 46.3195H61.6645V40.9028H32.7756V46.3195ZM29.1645 72.5C28.1414 72.5 27.2831 72.1533 26.5898 71.46C25.8965 70.7667 25.551 69.9096 25.5534 68.8889V65.2778H11.1089C9.12284 65.2778 7.422 64.57 6.00645 63.1544C4.59089 61.7389 3.88432 60.0393 3.88672 58.0556V14.7222C3.88672 12.7361 4.5945 11.0353 6.01006 9.61973C7.42561 8.20417 9.12524 7.4976 11.1089 7.50001H68.8867C70.8728 7.50001 72.5737 8.20778 73.9892 9.62334C75.4048 11.0389 76.1114 12.7385 76.109 14.7222V58.0556C76.109 60.0417 75.4012 61.7425 73.9856 63.1581C72.5701 64.5736 70.8704 65.2802 68.8867 65.2778H54.4423V68.8889C54.4423 69.912 54.0956 70.7703 53.4023 71.4636C52.709 72.1569 51.8519 72.5024 50.8312 72.5H29.1645Z" fill="#4363B0"/>
</svg>
