<svg width="24" height="24" viewBox="0 0 24 24" fill="none" xmlns="http://www.w3.org/2000/svg">
<path d="M12.0005 21.8504C11.8172 21.8504 11.6462 21.8377 11.4875 21.8124C11.3288 21.7871 11.1832 21.7497 11.0505 21.7004C8.98382 20.9337 7.29215 19.5671 5.97549 17.6004C4.65882 15.6337 4.00049 13.4671 4.00049 11.1004V6.37539C4.00049 5.95872 4.12149 5.58372 4.36349 5.25039C4.60549 4.91706 4.91782 4.67539 5.30049 4.52539L11.3005 2.27539C11.5338 2.19206 11.7672 2.15039 12.0005 2.15039C12.2338 2.15039 12.4672 2.19206 12.7005 2.27539L18.7005 4.52539C19.0838 4.67539 19.3965 4.91706 19.6385 5.25039C19.8805 5.58372 20.0012 5.95872 20.0005 6.37539V11.1004C20.0005 13.4671 19.3422 15.6337 18.0255 17.6004C16.7088 19.5671 15.0172 20.9337 12.9505 21.7004C12.8172 21.7504 12.6715 21.7881 12.5135 21.8134C12.3555 21.8387 12.1845 21.8511 12.0005 21.8504ZM12.0005 19.9004C13.6172 19.4004 14.9672 18.4131 16.0505 16.9384C17.1338 15.4637 17.7672 13.8177 17.9505 12.0004H12.0005V4.12539L6.00049 6.37539V11.5504C6.00049 11.6671 6.01716 11.8171 6.05049 12.0004H12.0005V19.9004Z" fill="url(#paint0_linear_1361_18003)"/>
<defs>
<linearGradient id="paint0_linear_1361_18003" x1="2.73733" y1="-2.26159" x2="24.5535" y2="14.7086" gradientUnits="userSpaceOnUse">
<stop offset="0.0633718" stop-color="#3619AB"/>
<stop offset="0.517512" stop-color="#2272BB"/>
<stop offset="1" stop-color="#00814B"/>
</linearGradient>
</defs>
</svg>
