<svg width="20" height="20" viewBox="0 0 20 20" fill="none" xmlns="http://www.w3.org/2000/svg">
<path d="M9.99951 20C8.63285 20 7.34118 19.7373 6.12451 19.212C4.90785 18.6867 3.84518 17.97 2.93651 17.062C2.02851 16.154 1.31185 15.0917 0.786513 13.875C0.26118 12.6583 -0.00115368 11.3667 -0.000487014 10C-0.000487014 8.61667 0.26218 7.32067 0.787513 6.112C1.31285 4.90333 2.02951 3.84533 2.93751 2.938C3.84551 2.02933 4.90751 1.31267 6.12351 0.788C7.33951 0.263333 8.63151 0.000666667 9.99951 0C11.3828 0 12.6788 0.262667 13.8875 0.788C15.0962 1.31333 16.1542 2.03 17.0615 2.938C17.9702 3.846 18.6868 4.90433 19.2115 6.113C19.7362 7.32167 19.9988 8.61733 19.9995 10C19.9995 11.3667 19.7368 12.6583 19.2115 13.875C18.6862 15.0917 17.9695 16.1543 17.0615 17.063C16.1535 17.971 15.0952 18.6877 13.8865 19.213C12.6778 19.7383 11.3822 20.0007 9.99951 20ZM9.99951 17.95C10.4328 17.35 10.8078 16.725 11.1245 16.075C11.4412 15.425 11.6995 14.7333 11.8995 14H8.09951C8.29951 14.7333 8.55785 15.425 8.87451 16.075C9.19118 16.725 9.56618 17.35 9.99951 17.95ZM7.39951 17.55C7.09951 17 6.83685 16.429 6.61151 15.837C6.38618 15.245 6.19885 14.6327 6.04951 14H3.09951C3.58285 14.8333 4.18718 15.5583 4.91251 16.175C5.63785 16.7917 6.46685 17.25 7.39951 17.55ZM12.5995 17.55C13.5328 17.25 14.3622 16.7917 15.0875 16.175C15.8128 15.5583 16.4168 14.8333 16.8995 14H13.9495C13.7995 14.6333 13.6122 15.246 13.3875 15.838C13.1628 16.43 12.9002 17.0007 12.5995 17.55ZM2.24951 12H5.64951C5.59951 11.6667 5.56185 11.3373 5.53651 11.012C5.51118 10.6867 5.49885 10.3493 5.49951 10C5.49951 9.65 5.51218 9.31267 5.53751 8.988C5.56285 8.66333 5.60018 8.334 5.64951 8H2.24951C2.16618 8.33333 2.10351 8.66267 2.06151 8.988C2.01951 9.31333 1.99885 9.65067 1.99951 10C1.99951 10.35 2.02051 10.6873 2.06251 11.012C2.10451 11.3367 2.16685 11.666 2.24951 12ZM7.64951 12H12.3495C12.3995 11.6667 12.4372 11.3373 12.4625 11.012C12.4878 10.6867 12.5002 10.3493 12.4995 10C12.4995 9.65 12.4868 9.31267 12.4615 8.988C12.4362 8.66333 12.3988 8.334 12.3495 8H7.64951C7.59951 8.33333 7.56185 8.66267 7.53651 8.988C7.51118 9.31333 7.49885 9.65067 7.49951 10C7.49951 10.35 7.51218 10.6873 7.53751 11.012C7.56285 11.3367 7.60018 11.666 7.64951 12ZM14.3495 12H17.7495C17.8328 11.6667 17.8955 11.3373 17.9375 11.012C17.9795 10.6867 18.0002 10.3493 17.9995 10C17.9995 9.65 17.9785 9.31267 17.9365 8.988C17.8945 8.66333 17.8322 8.334 17.7495 8H14.3495C14.3995 8.33333 14.4372 8.66267 14.4625 8.988C14.4878 9.31333 14.5002 9.65067 14.4995 10C14.4995 10.35 14.4868 10.6873 14.4615 11.012C14.4362 11.3367 14.3988 11.666 14.3495 12ZM13.9495 6H16.8995C16.4162 5.16667 15.8122 4.44167 15.0875 3.825C14.3628 3.20833 13.5335 2.75 12.5995 2.45C12.8995 3 13.1622 3.571 13.3875 4.163C13.6128 4.755 13.8002 5.36733 13.9495 6ZM8.09951 6H11.8995C11.6995 5.26667 11.4412 4.575 11.1245 3.925C10.8078 3.275 10.4328 2.65 9.99951 2.05C9.56618 2.65 9.19118 3.275 8.87451 3.925C8.55785 4.575 8.29951 5.26667 8.09951 6ZM3.09951 6H6.04951C6.19951 5.36667 6.38718 4.754 6.61251 4.162C6.83785 3.57 7.10018 2.99933 7.39951 2.45C6.46618 2.75 5.63685 3.20833 4.91151 3.825C4.18618 4.44167 3.58218 5.16667 3.09951 6Z" fill="url(#paint0_linear_1401_4529)"/>
<defs>
<linearGradient id="paint0_linear_1401_4529" x1="-1.57944" y1="-4.47917" x2="21.2501" y2="17.386" gradientUnits="userSpaceOnUse">
<stop offset="0.0633718" stop-color="#3619AB"/>
<stop offset="0.517512" stop-color="#2272BB"/>
<stop offset="1" stop-color="#00814B"/>
</linearGradient>
</defs>
</svg>
