<svg width="16" height="21" viewBox="0 0 16 21" fill="none" xmlns="http://www.w3.org/2000/svg">
<path d="M2.00049 21C1.45049 21 0.97949 20.804 0.58749 20.412C0.19549 20.02 -0.000176688 19.5493 0.000489979 19V9C0.000489979 8.45 0.19649 7.979 0.58849 7.587C0.98049 7.195 1.45116 6.99933 2.00049 7H3.00049V5C3.00049 3.61667 3.48816 2.43733 4.46349 1.462C5.43882 0.486667 6.61782 -0.000665984 8.00049 6.8306e-07C9.38382 6.8306e-07 10.5632 0.487667 11.5385 1.463C12.5138 2.43833 13.0012 3.61733 13.0005 5V7H14.0005C14.5505 7 15.0215 7.196 15.4135 7.588C15.8055 7.98 16.0012 8.45067 16.0005 9V19C16.0005 19.55 15.8045 20.021 15.4125 20.413C15.0205 20.805 14.5498 21.0007 14.0005 21H2.00049ZM2.00049 19H14.0005V9H2.00049V19ZM8.00049 16C8.55049 16 9.02149 15.804 9.41349 15.412C9.80549 15.02 10.0012 14.5493 10.0005 14C10.0005 13.45 9.80449 12.979 9.41249 12.587C9.02049 12.195 8.54982 11.9993 8.00049 12C7.45049 12 6.97949 12.196 6.58749 12.588C6.19549 12.98 5.99982 13.4507 6.00049 14C6.00049 14.55 6.19649 15.021 6.58849 15.413C6.98049 15.805 7.45116 16.0007 8.00049 16ZM5.00049 7H11.0005V5C11.0005 4.16667 10.7088 3.45833 10.1255 2.875C9.54216 2.29167 8.83382 2 8.00049 2C7.16716 2 6.45882 2.29167 5.87549 2.875C5.29216 3.45833 5.00049 4.16667 5.00049 5V7Z" fill="url(#paint0_linear_1401_4536)"/>
<defs>
<linearGradient id="paint0_linear_1401_4536" x1="-1.26267" y1="-4.70312" x2="21.5869" y2="11.9707" gradientUnits="userSpaceOnUse">
<stop offset="0.0633718" stop-color="#3619AB"/>
<stop offset="0.517512" stop-color="#2272BB"/>
<stop offset="1" stop-color="#00814B"/>
</linearGradient>
</defs>
</svg>
