<svg width="16" height="20" viewBox="0 0 16 20" fill="none" xmlns="http://www.w3.org/2000/svg">
<path d="M8.00049 19.8499C7.81715 19.8499 7.64616 19.8372 7.48749 19.8119C7.32882 19.7866 7.18316 19.7492 7.05049 19.6999C4.98382 18.9332 3.29215 17.5666 1.97549 15.5999C0.658821 13.6332 0.000488281 11.4666 0.000488281 9.0999V4.3749C0.000488281 3.95824 0.121488 3.58324 0.363488 3.2499C0.605488 2.91657 0.917822 2.6749 1.30049 2.5249L7.30049 0.274902C7.53382 0.191569 7.76716 0.149902 8.00049 0.149902C8.23382 0.149902 8.46715 0.191569 8.70049 0.274902L14.7005 2.5249C15.0838 2.6749 15.3965 2.91657 15.6385 3.2499C15.8805 3.58324 16.0012 3.95824 16.0005 4.3749V9.0999C16.0005 11.4666 15.3422 13.6332 14.0255 15.5999C12.7088 17.5666 11.0172 18.9332 8.95049 19.6999C8.81715 19.7499 8.67149 19.7876 8.51349 19.8129C8.35549 19.8382 8.18449 19.8506 8.00049 19.8499ZM8.00049 17.8999C9.61716 17.3999 10.9672 16.4126 12.0505 14.9379C13.1338 13.4632 13.7672 11.8172 13.9505 9.9999H8.00049V2.1249L2.00049 4.3749V9.5499C2.00049 9.66657 2.01716 9.81657 2.05049 9.9999H8.00049V17.8999Z" fill="url(#paint0_linear_1401_4543)"/>
<defs>
<linearGradient id="paint0_linear_1401_4543" x1="-1.26267" y1="-4.26208" x2="20.5535" y2="12.7081" gradientUnits="userSpaceOnUse">
<stop offset="0.0633718" stop-color="#3619AB"/>
<stop offset="0.517512" stop-color="#2272BB"/>
<stop offset="1" stop-color="#00814B"/>
</linearGradient>
</defs>
</svg>
