<svg width="18" height="20" viewBox="0 0 18 20" fill="none" xmlns="http://www.w3.org/2000/svg">
<path d="M7.3 13.85C7.5 13.65 7.6 13.4127 7.6 13.138C7.6 12.8633 7.5 12.6257 7.3 12.425L5.85 11L7.325 9.525C7.525 9.325 7.625 9.08733 7.625 8.812C7.625 8.53667 7.525 8.29933 7.325 8.1C7.125 7.9 6.88767 7.8 6.613 7.8C6.33834 7.8 6.10067 7.9 5.9 8.1L3.7 10.3C3.5 10.5 3.4 10.7333 3.4 11C3.4 11.2667 3.5 11.5 3.7 11.7L5.875 13.875C6.075 14.075 6.31267 14.171 6.588 14.163C6.86334 14.155 7.10067 14.0507 7.3 13.85ZM10.7 13.875C10.9 14.075 11.1417 14.175 11.425 14.175C11.7083 14.175 11.9417 14.0833 12.125 13.9L14.3 11.725C14.4833 11.5417 14.575 11.3083 14.575 11.025C14.575 10.7417 14.4833 10.5083 14.3 10.325L12.1 8.125C11.9167 7.94167 11.6833 7.85 11.4 7.85C11.1167 7.85 10.875 7.94167 10.675 8.125C10.4917 8.325 10.4 8.56667 10.4 8.85C10.4 9.13333 10.4917 9.36667 10.675 9.55L12.15 11.025L10.7 12.45C10.5167 12.65 10.425 12.8917 10.425 13.175C10.425 13.4583 10.5167 13.6917 10.7 13.875ZM2 18H16V4H2V18ZM2 20C1.45 20 0.979002 19.804 0.587002 19.412C0.195002 19.02 -0.000664969 18.5493 1.69779e-06 18V4C1.69779e-06 3.45 0.196002 2.979 0.588002 2.587C0.980002 2.195 1.45067 1.99933 2 2H6.2C6.41667 1.4 6.77934 0.916667 7.288 0.55C7.79667 0.183333 8.36734 0 9 0C9.63334 0 10.2043 0.183333 10.713 0.55C11.2217 0.916667 11.584 1.4 11.8 2H16C16.55 2 17.021 2.196 17.413 2.588C17.805 2.98 18.0007 3.45067 18 4V18C18 18.55 17.804 19.021 17.412 19.413C17.02 19.805 16.5493 20.0007 16 20H2ZM9 3.25C9.21667 3.25 9.39567 3.179 9.537 3.037C9.67834 2.895 9.74934 2.716 9.75 2.5C9.75 2.28333 9.679 2.10433 9.537 1.963C9.395 1.82167 9.216 1.75067 9 1.75C8.78334 1.75 8.60434 1.821 8.463 1.963C8.32167 2.105 8.25067 2.284 8.25 2.5C8.25 2.71667 8.321 2.89567 8.463 3.037C8.605 3.17833 8.784 3.24933 9 3.25Z" fill="url(#paint0_linear_1401_4550)"/>
<defs>
<linearGradient id="paint0_linear_1401_4550" x1="-1.42105" y1="-4.47917" x2="21.18" y2="15.0025" gradientUnits="userSpaceOnUse">
<stop offset="0.0633718" stop-color="#3619AB"/>
<stop offset="0.517512" stop-color="#2272BB"/>
<stop offset="1" stop-color="#00814B"/>
</linearGradient>
</defs>
</svg>
