<svg width="16" height="20" viewBox="0 0 16 20" fill="none" xmlns="http://www.w3.org/2000/svg">
<path d="M2.00049 20C1.45049 20 0.97949 19.804 0.58749 19.412C0.19549 19.02 -0.000176688 18.5493 0.000489979 18V2C0.000489979 1.45 0.19649 0.979002 0.58849 0.587002C0.98049 0.195002 1.45116 -0.000664969 2.00049 1.69779e-06H9.17549C9.44216 1.69779e-06 9.69649 0.0500018 9.93849 0.150002C10.1805 0.250002 10.3928 0.391668 10.5755 0.575002L15.4255 5.425C15.6088 5.60834 15.7505 5.821 15.8505 6.063C15.9505 6.305 16.0005 6.559 16.0005 6.825V18C16.0005 18.55 15.8045 19.021 15.4125 19.413C15.0205 19.805 14.5498 20.0007 14.0005 20H2.00049ZM9.00049 6V2H2.00049V18H14.0005V7H10.0005C9.71716 7 9.47949 6.904 9.28749 6.712C9.09549 6.52 8.99982 6.28267 9.00049 6Z" fill="url(#paint0_linear_1401_4557)"/>
<defs>
<linearGradient id="paint0_linear_1401_4557" x1="-1.26267" y1="-4.47917" x2="20.8011" y2="12.4262" gradientUnits="userSpaceOnUse">
<stop offset="0.0633718" stop-color="#3619AB"/>
<stop offset="0.517512" stop-color="#2272BB"/>
<stop offset="1" stop-color="#00814B"/>
</linearGradient>
</defs>
</svg>
