<svg width="24" height="25" viewBox="0 0 24 25" fill="none" xmlns="http://www.w3.org/2000/svg">
<path d="M8.00098 21.7734V20.7734L10.001 18.7734H4.00098C3.45098 18.7734 2.97998 18.5774 2.58798 18.1854C2.19598 17.7934 2.00031 17.3228 2.00098 16.7734V5.77344C2.00098 5.22344 2.19698 4.75244 2.58898 4.36044C2.98098 3.96844 3.45164 3.77277 4.00098 3.77344H20.001C20.551 3.77344 21.022 3.96944 21.414 4.36144C21.806 4.75344 22.0016 5.22411 22.001 5.77344V16.7734C22.001 17.3234 21.805 17.7944 21.413 18.1864C21.021 18.5784 20.5503 18.7741 20.001 18.7734H14.001L16.001 20.7734V21.7734H8.00098ZM4.00098 13.7734H20.001V5.77344H4.00098V13.7734Z" fill="#4363B0"/>
</svg>
