<svg width="24" height="25" viewBox="0 0 24 25" fill="none" xmlns="http://www.w3.org/2000/svg">
<path d="M12 11.8151C14.3958 11.8151 16.4323 11.4398 18.1094 10.6891C19.7865 9.93837 20.625 9.03594 20.625 7.98177C20.625 6.9276 19.7865 6.02517 18.1094 5.27448C16.4323 4.52378 14.3958 4.14844 12 4.14844C9.60417 4.14844 7.56771 4.52378 5.89062 5.27448C4.21354 6.02517 3.375 6.9276 3.375 7.98177C3.375 9.03594 4.21354 9.93837 5.89062 10.6891C7.56771 11.4398 9.60417 11.8151 12 11.8151ZM12 14.2109C12.6549 14.2109 13.4736 14.1429 14.4562 14.0068C15.4388 13.8707 16.385 13.6513 17.2948 13.3484C18.2052 13.045 18.9878 12.6498 19.6427 12.163C20.2976 11.6761 20.625 11.081 20.625 10.3776V12.7734C20.625 13.4762 20.2976 14.0713 19.6427 14.5588C18.9878 15.0463 18.2052 15.4414 17.2948 15.7443C16.3844 16.0477 15.4382 16.2675 14.4562 16.4036C13.4742 16.5397 12.6555 16.6074 12 16.6068C11.3451 16.6068 10.5264 16.5387 9.54379 16.4026C8.56118 16.2666 7.61531 16.0471 6.70617 15.7443C5.79575 15.4408 5.01311 15.0456 4.35825 14.5588C3.70339 14.072 3.37564 13.4769 3.375 12.7734V10.3776C3.375 11.0804 3.70243 11.6755 4.35729 12.163C5.01215 12.6505 5.79479 13.0456 6.70521 13.3484C7.61562 13.6519 8.56214 13.8717 9.54475 14.0078C10.5274 14.1439 11.3458 14.2116 12 14.2109ZM12 19.0026C12.6549 19.0026 13.4736 18.9346 14.4562 18.7985C15.4388 18.6624 16.385 18.4429 17.2948 18.1401C18.2052 17.8366 18.9878 17.4412 19.6427 16.9537C20.2976 16.4662 20.625 15.8714 20.625 15.1693V17.5651C20.625 18.2679 20.2976 18.863 19.6427 19.3505C18.9878 19.838 18.2052 20.2331 17.2948 20.5359C16.3844 20.8394 15.4382 21.0592 14.4562 21.1953C13.4742 21.3314 12.6555 21.3991 12 21.3984C11.3451 21.3984 10.5264 21.3304 9.54379 21.1943C8.56118 21.0582 7.61531 20.8388 6.70617 20.5359C5.79575 20.2325 5.01311 19.837 4.35825 19.3495C3.70339 18.862 3.37564 18.2672 3.375 17.5651V15.1693C3.375 15.872 3.70243 16.4672 4.35729 16.9546C5.01215 17.4421 5.79479 17.8373 6.70521 18.1401C7.61562 18.4436 8.56214 18.6634 9.54475 18.7994C10.5274 18.9355 11.3458 19.0032 12 19.0026Z" fill="#4363B0"/>
</svg>
