<svg width="25" height="25" viewBox="0 0 25 25" fill="none" xmlns="http://www.w3.org/2000/svg">
<path d="M4.50098 20.7734C3.95098 20.7734 3.47998 20.5774 3.08798 20.1854C2.69598 19.7934 2.50031 19.3228 2.50098 18.7734V6.77344C2.50098 6.22344 2.69698 5.75244 3.08898 5.36044C3.48098 4.96844 3.95164 4.77277 4.50098 4.77344H20.501C21.051 4.77344 21.522 4.96944 21.914 5.36144C22.306 5.75344 22.5016 6.22411 22.501 6.77344V18.7734C22.501 19.3234 22.305 19.7944 21.913 20.1864C21.521 20.5784 21.0503 20.7741 20.501 20.7734H4.50098ZM12.501 13.5984C12.5843 13.5984 12.672 13.5858 12.764 13.5604C12.856 13.5351 12.9433 13.4978 13.026 13.4484L20.101 9.02344C20.2343 8.94011 20.3343 8.83577 20.401 8.71044C20.4676 8.58511 20.501 8.44777 20.501 8.29844C20.501 7.96511 20.3593 7.71511 20.076 7.54844C19.7926 7.38177 19.501 7.39011 19.201 7.57344L12.501 11.7734L5.80098 7.57344C5.50098 7.39011 5.20931 7.38611 4.92598 7.56144C4.64265 7.73677 4.50098 7.98244 4.50098 8.29844C4.50098 8.46511 4.53431 8.61111 4.60098 8.73644C4.66764 8.86177 4.76764 8.95744 4.90098 9.02344L11.976 13.4484C12.0593 13.4984 12.147 13.5361 12.239 13.5614C12.331 13.5868 12.4183 13.5991 12.501 13.5984Z" fill="#4363B0"/>
</svg>
