<svg width="25" height="25" viewBox="0 0 25 25" fill="none" xmlns="http://www.w3.org/2000/svg">
<path d="M7.50098 23.7734C6.95098 23.7734 6.47998 23.5774 6.08798 23.1854C5.69598 22.7934 5.50031 22.3228 5.50098 21.7734V3.77344C5.50098 3.22344 5.69698 2.75244 6.08898 2.36044C6.48098 1.96844 6.95164 1.77277 7.50098 1.77344H17.501C18.051 1.77344 18.522 1.96944 18.914 2.36144C19.306 2.75344 19.5016 3.22411 19.501 3.77344V21.7734C19.501 22.3234 19.305 22.7944 18.913 23.1864C18.521 23.5784 18.0503 23.7741 17.501 23.7734H7.50098ZM12.501 22.2734C12.7843 22.2734 13.022 22.1774 13.214 21.9854C13.406 21.7934 13.5016 21.5561 13.501 21.2734C13.501 20.9901 13.405 20.7524 13.213 20.5604C13.021 20.3684 12.7836 20.2728 12.501 20.2734C12.2176 20.2734 11.98 20.3694 11.788 20.5614C11.596 20.7534 11.5003 20.9908 11.501 21.2734C11.501 21.5568 11.597 21.7944 11.789 21.9864C11.981 22.1784 12.2183 22.2741 12.501 22.2734ZM7.50098 18.7734H17.501V4.77344H7.50098V18.7734Z" fill="#4363B0"/>
</svg>
