<svg width="25" height="25" viewBox="0 0 25 25" fill="none" xmlns="http://www.w3.org/2000/svg">
<g clip-path="url(#clip0_1328_23317)">
<path d="M1.5 20.7734C1.21667 20.7734 0.979004 20.6774 0.787003 20.4854C0.595003 20.2934 0.499337 20.0561 0.500003 19.7734C0.500003 19.4901 0.596003 19.2524 0.788003 19.0604C0.980004 18.8684 1.21734 18.7728 1.5 18.7734H2.5V5.77344C2.5 5.22344 2.696 4.75244 3.088 4.36044C3.48 3.96844 3.95067 3.77277 4.5 3.77344H20.5C21.05 3.77344 21.521 3.96944 21.913 4.36144C22.305 4.75344 22.5007 5.22411 22.5 5.77344V18.7734H23.5C23.7833 18.7734 24.021 18.8694 24.213 19.0614C24.405 19.2534 24.5007 19.4908 24.5 19.7734C24.5 20.0568 24.404 20.2944 24.212 20.4864C24.02 20.6784 23.7827 20.7741 23.5 20.7734H1.5ZM11 18.7734H14C14.1333 18.7734 14.25 18.7234 14.35 18.6234C14.45 18.5234 14.5 18.4068 14.5 18.2734C14.5 18.1401 14.45 18.0234 14.35 17.9234C14.25 17.8234 14.1333 17.7734 14 17.7734H11C10.8667 17.7734 10.75 17.8234 10.65 17.9234C10.55 18.0234 10.5 18.1401 10.5 18.2734C10.5 18.4068 10.55 18.5234 10.65 18.6234C10.75 18.7234 10.8667 18.7734 11 18.7734ZM4.5 15.7734H20.5V5.77344H4.5V15.7734Z" fill="#4363B0"/>
</g>
<defs>
<clipPath id="clip0_1328_23317">
<rect width="24" height="24" fill="white" transform="translate(0.5 0.773438)"/>
</clipPath>
</defs>
</svg>
