<svg width="25" height="24" viewBox="0 0 25 24" fill="none" xmlns="http://www.w3.org/2000/svg">
<g clip-path="url(#clip0_1328_23403)">
<path d="M12.5003 18.6766C16.188 18.6766 19.1773 15.6871 19.1773 11.9994C19.1773 8.31176 16.188 5.32227 12.5003 5.32227C8.81265 5.32227 5.82324 8.31176 5.82324 11.9994C5.82324 15.6871 8.81265 18.6766 12.5003 18.6766Z" fill="white"/>
<path d="M3.86454 8.71855C3.36645 7.85577 2.78098 6.95023 2.10804 6.00195C1.05464 7.82608 0.500036 9.8954 0.5 12.0018C0.499964 14.1083 1.05449 16.1776 2.10784 18.0018C3.16118 19.826 4.67621 21.3407 6.5006 22.3936C8.32499 23.4466 10.3944 24.0007 12.5009 24.0002C13.6053 22.4511 14.3553 21.3342 14.7505 20.6495C15.5098 19.3344 16.4917 17.4515 17.6964 15.001V14.9996C17.1701 15.9121 16.4128 16.6699 15.5007 17.1969C14.5886 17.7239 13.5538 18.0014 12.5005 18.0015C11.4471 18.0017 10.4122 17.7245 9.49993 17.1978C8.58766 16.6711 7.83015 15.9135 7.30357 15.0012C5.66735 11.9498 4.52107 9.85555 3.86454 8.71855Z" fill="#229342"/>
<path d="M12.5007 23.9998C14.0766 24 15.6371 23.6898 17.093 23.0868C18.549 22.4839 19.8719 21.6 20.9862 20.4856C22.1005 19.3712 22.9844 18.0483 23.5872 16.5923C24.1901 15.1363 24.5003 13.5758 24.4999 11.9999C24.4996 9.8934 23.9446 7.82415 22.8909 6.00016C20.6177 5.77609 18.94 5.66406 17.8578 5.66406C16.6308 5.66406 14.8448 5.77609 12.4998 6.00016L12.4985 6.00109C13.5519 6.0006 14.5869 6.27748 15.4994 6.80389C16.4118 7.33031 17.1696 8.08769 17.6964 8.99988C18.2232 9.91209 18.5006 10.9469 18.5006 12.0004C18.5006 13.0538 18.2232 14.0886 17.6963 15.0008L12.5007 23.9998Z" fill="#FBC116"/>
<path d="M12.5013 16.7506C15.1248 16.7506 17.2515 14.6239 17.2515 12.0003C17.2515 9.37663 15.1248 7.25 12.5012 7.25C9.87779 7.25 7.75098 9.37681 7.75098 12.0003C7.75098 14.6238 9.87779 16.7506 12.5013 16.7506Z" fill="#1A73E8"/>
<path d="M12.5004 6.00041H22.8914C21.8384 4.17599 20.3237 2.66095 18.4995 1.60764C16.6753 0.554321 14.6059 -0.000142503 12.4995 2.74723e-08C10.393 0.000142558 8.32372 0.554886 6.49966 1.60845C4.67561 2.66201 3.16109 4.17725 2.1084 6.00181L7.30393 15.0009L7.30534 15.0016C6.77823 14.0896 6.50056 13.0548 6.50025 12.0014C6.49994 10.948 6.777 9.9131 7.30357 9.00075C7.83014 8.08839 8.58765 7.33077 9.49993 6.80407C10.4122 6.27737 11.4471 6.00016 12.5005 6.00031L12.5003 6.00041H12.5004Z" fill="#E33B2E"/>
</g>
<defs>
<clipPath id="clip0_1328_23403">
<rect width="24" height="24" fill="white" transform="translate(0.5)"/>
</clipPath>
</defs>
</svg>
