<svg width="25" height="24" viewBox="0 0 25 24" fill="none" xmlns="http://www.w3.org/2000/svg">
<g clip-path="url(#clip0_1328_23428)">
<path d="M23.4697 8.034C22.9652 6.8205 21.942 5.51029 21.1406 5.09613C21.7121 6.20273 22.1088 7.39116 22.3164 8.61915L22.3185 8.63862C21.0058 5.36683 18.7798 4.04765 16.9619 1.17507C16.868 1.02864 16.7768 0.88048 16.6884 0.730664C16.6428 0.652416 16.6002 0.572513 16.5605 0.491116C16.485 0.345139 16.4269 0.190857 16.3873 0.0314033C16.3873 0.0240423 16.3847 0.0169189 16.3798 0.0113905C16.3749 0.00586211 16.3682 0.00231526 16.3609 0.0014259C16.3538 -0.000475299 16.3462 -0.000475299 16.3391 0.0014259C16.3376 0.0014259 16.3352 0.00414288 16.3334 0.00477684C16.3316 0.00532024 16.3277 0.00803722 16.325 0.00921458L16.3295 0.0014259C13.4134 1.70851 12.4239 4.86854 12.3328 6.44918C11.1683 6.5292 10.0549 6.95821 9.13781 7.68025C9.04213 7.59924 8.94212 7.52348 8.83823 7.45329C8.57372 6.5276 8.56246 5.54792 8.80562 4.6164C7.7347 5.13505 6.78312 5.87028 6.0111 6.77558H6.00567C5.54556 6.19252 5.5779 4.26989 5.60427 3.86823C5.46816 3.92296 5.33822 3.99193 5.21663 4.074C4.81047 4.36385 4.43075 4.68904 4.0819 5.04577C3.68444 5.4487 3.32142 5.88418 2.99664 6.34766V6.34938V6.3473C2.25026 7.40524 1.72084 8.60049 1.43894 9.86407L1.42345 9.94069C1.3806 10.1815 1.34255 10.4232 1.30931 10.6655C1.30931 10.6742 1.3075 10.6822 1.30659 10.6909C1.20496 11.219 1.14198 11.7538 1.11816 12.291V12.3509C1.12595 21.2863 10.8062 26.8623 18.5426 22.3879C20.0149 21.5363 21.2821 20.3718 22.2546 18.9765C23.227 17.5813 23.8809 15.9895 24.17 14.3137C24.1895 14.164 24.2054 14.0157 24.2228 13.8645C24.4619 11.8886 24.203 9.88433 23.4697 8.034ZM10.0886 17.1194C10.1428 17.1455 10.1937 17.1737 10.2494 17.1985L10.2575 17.2036C10.2008 17.1764 10.1444 17.1483 10.0886 17.1194ZM22.3194 8.64134V8.6302L22.3215 8.64251L22.3194 8.64134Z" fill="url(#paint0_linear_1328_23428)"/>
<path d="M23.4697 8.03358C22.9652 6.82008 21.942 5.50986 21.1406 5.0957C21.7121 6.20231 22.1088 7.39074 22.3164 8.61872V8.62977L22.3185 8.64209C23.2133 11.2021 23.0839 14.0089 21.9572 16.4758C20.6266 19.3301 17.4058 22.2556 12.3643 22.1133C6.91691 21.9591 2.11954 17.918 1.2227 12.6251C1.05946 11.7904 1.2227 11.3673 1.30478 10.689C1.1928 11.2158 1.13032 11.752 1.11816 12.2905V12.3505C1.12595 21.2858 10.8062 26.8619 18.5426 22.3875C20.0149 21.5359 21.2821 20.3713 22.2546 18.9761C23.227 17.5808 23.8809 15.989 24.17 14.3132C24.1895 14.1635 24.2054 14.0153 24.2228 13.864C24.4619 11.8882 24.203 9.8839 23.4697 8.03358Z" fill="url(#paint1_radial_1328_23428)"/>
<path d="M23.4697 8.03358C22.9652 6.82008 21.942 5.50986 21.1406 5.0957C21.7121 6.20231 22.1088 7.39074 22.3164 8.61872V8.62977L22.3185 8.64209C23.2133 11.2021 23.0839 14.0089 21.9572 16.4758C20.6266 19.3301 17.4058 22.2556 12.3643 22.1133C6.91691 21.9591 2.11954 17.918 1.2227 12.6251C1.05946 11.7904 1.2227 11.3673 1.30478 10.689C1.1928 11.2158 1.13032 11.752 1.11816 12.2905V12.3505C1.12595 21.2858 10.8062 26.8619 18.5426 22.3875C20.0149 21.5359 21.2821 20.3713 22.2546 18.9761C23.227 17.5808 23.8809 15.989 24.17 14.3132C24.1895 14.1635 24.2054 14.0153 24.2228 13.864C24.4619 11.8882 24.203 9.8839 23.4697 8.03358Z" fill="url(#paint2_radial_1328_23428)"/>
<path d="M17.828 9.3989C17.8532 9.41656 17.8766 9.43423 17.9002 9.45189C17.6086 8.9349 17.2456 8.46157 16.8218 8.04585C13.2135 4.43779 15.8762 0.222663 16.3252 0.00856445L16.3297 0.00195312C13.4136 1.70903 12.4241 4.86906 12.333 6.44971C12.4684 6.44038 12.6026 6.42897 12.741 6.42897C13.7757 6.43089 14.7915 6.70669 15.685 7.22835C16.5785 7.75001 17.3179 8.49891 17.828 9.3989Z" fill="url(#paint3_radial_1328_23428)"/>
<path d="M12.7472 10.1202C12.728 10.4089 11.7077 11.4046 11.351 11.4046C8.0496 11.4046 7.51367 13.4012 7.51367 13.4012C7.65988 15.0825 8.83175 16.4672 10.2483 17.1997C10.313 17.2333 10.3787 17.2636 10.4443 17.2932C10.5565 17.343 10.6702 17.3895 10.7851 17.4327C11.2713 17.6048 11.7805 17.703 12.2957 17.7241C18.0822 17.9954 19.2032 10.8063 15.0274 8.7201C16.0125 8.59194 17.0101 8.8341 17.8267 9.39962C17.3166 8.49962 16.5772 7.75072 15.6837 7.22907C14.7902 6.70741 13.7744 6.4316 12.7397 6.42969C12.6019 6.42969 12.4671 6.4411 12.3317 6.45043C11.1671 6.53044 10.0537 6.95945 9.13668 7.68149C9.31369 7.83129 9.51353 8.03135 9.93441 8.44605C10.7222 9.22202 12.7427 10.0258 12.7472 10.1202Z" fill="url(#paint4_radial_1328_23428)"/>
<path d="M12.7472 10.1202C12.728 10.4089 11.7077 11.4046 11.351 11.4046C8.0496 11.4046 7.51367 13.4012 7.51367 13.4012C7.65988 15.0825 8.83175 16.4672 10.2483 17.1997C10.313 17.2333 10.3787 17.2636 10.4443 17.2932C10.5565 17.343 10.6702 17.3895 10.7851 17.4327C11.2713 17.6048 11.7805 17.703 12.2957 17.7241C18.0822 17.9954 19.2032 10.8063 15.0274 8.7201C16.0125 8.59194 17.0101 8.8341 17.8267 9.39962C17.3166 8.49962 16.5772 7.75072 15.6837 7.22907C14.7902 6.70741 13.7744 6.4316 12.7397 6.42969C12.6019 6.42969 12.4671 6.4411 12.3317 6.45043C11.1671 6.53044 10.0537 6.95945 9.13668 7.68149C9.31369 7.83129 9.51353 8.03135 9.93441 8.44605C10.7222 9.22202 12.7427 10.0258 12.7472 10.1202Z" fill="url(#paint5_radial_1328_23428)"/>
<path d="M8.59542 7.29504C8.67632 7.34649 8.7562 7.39952 8.83503 7.45408C8.57048 6.5284 8.55922 5.5487 8.80242 4.61719C7.73148 5.13585 6.77988 5.87109 6.00781 6.77637C6.06443 6.77483 7.74859 6.74458 8.59542 7.29504Z" fill="url(#paint6_radial_1328_23428)"/>
<path d="M1.22432 12.6253C2.12025 17.9182 6.91853 21.9593 12.3659 22.1135C17.4074 22.2561 20.6281 19.3303 21.9588 16.476C23.0855 14.0091 23.2149 11.2024 22.3201 8.64229V8.63124C22.3201 8.62255 22.3183 8.61739 22.3201 8.6201L22.3222 8.63958C22.7341 11.3279 21.3663 13.9325 19.2281 15.6937L19.2214 15.7087C15.0553 19.1009 11.0682 17.7553 10.2612 17.206C10.2044 17.1789 10.1481 17.1509 10.0923 17.1219C7.66317 15.9611 6.65971 13.7486 6.87477 11.8511C6.29816 11.8596 5.73146 11.7008 5.24332 11.3938C4.75519 11.0869 4.36657 10.645 4.12455 10.1217C4.76218 9.73116 5.48923 9.51038 6.23641 9.4804C6.98358 9.45042 7.72599 9.61224 8.39288 9.95043C9.76779 10.5744 11.3323 10.6359 12.752 10.1217C12.7475 10.0273 10.727 9.22327 9.93915 8.44767C9.51827 8.03287 9.31852 7.83309 9.14151 7.68311C9.04585 7.60205 8.94584 7.52625 8.84193 7.45606C8.77299 7.40906 8.69545 7.35816 8.60232 7.29703C7.75549 6.74657 6.07133 6.77681 6.01562 6.77835H6.01027C5.55017 6.19529 5.58251 4.27266 5.60887 3.87109C5.47274 3.92573 5.34279 3.99468 5.22123 4.07677C4.81506 4.3666 4.43533 4.69179 4.08651 5.04854C3.68764 5.45037 3.3231 5.88485 2.99671 6.34744V6.34916V6.34708C2.25033 7.40503 1.72091 8.60028 1.43902 9.86385C1.4334 9.88749 1.02085 11.6903 1.22432 12.6253Z" fill="url(#paint7_radial_1328_23428)"/>
<path d="M16.8221 8.04532C17.2459 8.46155 17.609 8.9354 17.9005 9.4529C17.9607 9.49768 18.0188 9.54525 18.0745 9.59545C20.7067 12.0212 19.3276 15.4502 19.2248 15.6943C21.363 13.933 22.7296 11.3285 22.3189 8.64007C21.0057 5.36683 18.7797 4.04765 16.9617 1.17507C16.8678 1.02864 16.7766 0.88048 16.6882 0.730664C16.6427 0.652416 16.6 0.572513 16.5603 0.491116C16.4849 0.345139 16.4268 0.190857 16.3871 0.0314033C16.3872 0.0240423 16.3845 0.0169189 16.3796 0.0113905C16.3748 0.00586211 16.3681 0.00231526 16.3607 0.0014259C16.3536 -0.000475299 16.3461 -0.000475299 16.3389 0.0014259C16.3375 0.0014259 16.335 0.00414288 16.3332 0.00477684C16.3314 0.00532024 16.3275 0.00803722 16.3249 0.00921458C15.8758 0.222135 13.2131 4.43726 16.8221 8.04532Z" fill="url(#paint8_radial_1328_23428)"/>
<path d="M18.0717 9.5941C18.0159 9.54392 17.9578 9.49636 17.8977 9.45155C17.874 9.43389 17.8506 9.41623 17.8255 9.39857C17.0088 8.83307 16.0112 8.59091 15.0261 8.71905C19.2019 10.8064 18.0816 17.9944 12.2945 17.723C11.7792 17.7019 11.27 17.6037 10.7839 17.4317C10.6689 17.3886 10.5552 17.3421 10.443 17.2921C10.3773 17.2621 10.3118 17.2323 10.2471 17.1987L10.2551 17.2038C11.0621 17.7546 15.048 19.1001 19.2154 15.7064L19.222 15.6915C19.3259 15.4488 20.705 12.019 18.0717 9.5941Z" fill="url(#paint9_radial_1328_23428)"/>
<path d="M7.51504 13.4005C7.51504 13.4005 8.05097 11.4038 11.3523 11.4038C11.7091 11.4038 12.7303 10.4082 12.7486 10.1194C11.3289 10.6336 9.7644 10.5721 8.38951 9.94808C7.72259 9.60993 6.98017 9.44814 6.23298 9.47814C5.4858 9.50813 4.75874 9.72891 4.12109 10.1194C4.36311 10.6427 4.75173 11.0846 5.23986 11.3916C5.728 11.6985 6.2947 11.8574 6.87131 11.8489C6.65625 13.7467 7.65972 15.9592 10.0888 17.1196C10.1431 17.1457 10.194 17.1739 10.2497 17.1987C8.83195 16.4665 7.66126 15.0817 7.51504 13.4005Z" fill="url(#paint10_radial_1328_23428)"/>
<path d="M23.4697 8.034C22.9652 6.8205 21.942 5.51029 21.1406 5.09613C21.7121 6.20273 22.1088 7.39116 22.3164 8.61915L22.3185 8.63862C21.0058 5.36683 18.7798 4.04765 16.9619 1.17507C16.868 1.02864 16.7768 0.88048 16.6884 0.730664C16.6428 0.652416 16.6002 0.572513 16.5605 0.491116C16.485 0.345139 16.4269 0.190857 16.3873 0.0314033C16.3873 0.0240423 16.3847 0.0169189 16.3798 0.0113905C16.3749 0.00586211 16.3682 0.00231526 16.3609 0.0014259C16.3538 -0.000475299 16.3462 -0.000475299 16.3391 0.0014259C16.3376 0.0014259 16.3352 0.00414288 16.3334 0.00477684C16.3316 0.00532024 16.3277 0.00803722 16.325 0.00921458L16.3295 0.0014259C13.4134 1.70851 12.4239 4.86854 12.3328 6.44918C12.4683 6.43986 12.6024 6.42844 12.7408 6.42844C13.7756 6.43036 14.7913 6.70617 15.6848 7.22782C16.5783 7.74948 17.3177 8.49838 17.8278 9.39838C17.0112 8.83286 16.0136 8.5907 15.0285 8.71886C19.2043 10.8062 18.084 17.9942 12.2969 17.7228C11.7816 17.7017 11.2724 17.6035 10.7863 17.4315C10.6713 17.3884 10.5576 17.3419 10.4454 17.2919C10.3798 17.262 10.3141 17.2321 10.2494 17.1985L10.2575 17.2036C10.2008 17.1764 10.1444 17.1483 10.0886 17.1194C10.1428 17.1455 10.1937 17.1737 10.2494 17.1985C8.83171 16.466 7.66102 15.0812 7.51481 13.3999C7.51481 13.3999 8.05073 11.4033 11.3521 11.4033C11.7088 11.4033 12.7301 10.4076 12.7484 10.1189C12.7438 10.0246 10.7233 9.2205 9.93555 8.44481C9.51467 8.03011 9.31483 7.83032 9.13781 7.68025C9.04213 7.59924 8.94212 7.52348 8.83823 7.45329C8.57372 6.5276 8.56246 5.54792 8.80562 4.6164C7.7347 5.13505 6.78312 5.87028 6.0111 6.77558H6.00567C5.54556 6.19252 5.5779 4.26989 5.60427 3.86823C5.46816 3.92296 5.33822 3.99193 5.21663 4.074C4.81047 4.36385 4.43075 4.68904 4.0819 5.04577C3.68444 5.4487 3.32142 5.88418 2.99664 6.34766V6.34938V6.3473C2.25026 7.40524 1.72084 8.60049 1.43894 9.86407L1.42345 9.94069C1.40153 10.0428 1.3036 10.5615 1.28947 10.6729C1.28947 10.6642 1.28947 10.6813 1.28947 10.6729C1.1999 11.2083 1.14269 11.7487 1.11816 12.291V12.3509C1.12595 21.2863 10.8062 26.8623 18.5426 22.3879C20.0149 21.5363 21.2821 20.3718 22.2546 18.9765C23.227 17.5813 23.8809 15.9895 24.17 14.3137C24.1895 14.164 24.2054 14.0157 24.2228 13.8645C24.4619 11.8886 24.203 9.88433 23.4697 8.034Z" fill="url(#paint11_linear_1328_23428)"/>
</g>
<defs>
<linearGradient id="paint0_linear_1328_23428" x1="21.9329" y1="3.7101" x2="2.66483" y2="22.3051" gradientUnits="userSpaceOnUse">
<stop offset="0.048" stop-color="#FFF44F"/>
<stop offset="0.111" stop-color="#FFE847"/>
<stop offset="0.225" stop-color="#FFC830"/>
<stop offset="0.368" stop-color="#FF980E"/>
<stop offset="0.401" stop-color="#FF8B16"/>
<stop offset="0.462" stop-color="#FF672A"/>
<stop offset="0.534" stop-color="#FF3647"/>
<stop offset="0.705" stop-color="#E31587"/>
</linearGradient>
<radialGradient id="paint1_radial_1328_23428" cx="0" cy="0" r="1" gradientUnits="userSpaceOnUse" gradientTransform="translate(21.0428 2.6577) scale(24.203 24.1967)">
<stop offset="0.129" stop-color="#FFBD4F"/>
<stop offset="0.186" stop-color="#FFAC31"/>
<stop offset="0.247" stop-color="#FF9D17"/>
<stop offset="0.283" stop-color="#FF980E"/>
<stop offset="0.403" stop-color="#FF563B"/>
<stop offset="0.467" stop-color="#FF3750"/>
<stop offset="0.71" stop-color="#F5156C"/>
<stop offset="0.782" stop-color="#EB0878"/>
<stop offset="0.86" stop-color="#E50080"/>
</radialGradient>
<radialGradient id="paint2_radial_1328_23428" cx="0" cy="0" r="1" gradientUnits="userSpaceOnUse" gradientTransform="translate(12.1987 12.5499) scale(24.203 24.1967)">
<stop offset="0.3" stop-color="#960E18"/>
<stop offset="0.351" stop-color="#B11927" stop-opacity="0.74"/>
<stop offset="0.435" stop-color="#DB293D" stop-opacity="0.343"/>
<stop offset="0.497" stop-color="#F5334B" stop-opacity="0.094"/>
<stop offset="0.53" stop-color="#FF3750" stop-opacity="0"/>
</radialGradient>
<radialGradient id="paint3_radial_1328_23428" cx="0" cy="0" r="1" gradientUnits="userSpaceOnUse" gradientTransform="translate(15.1169 -2.83252) scale(17.5341 17.5295)">
<stop offset="0.132" stop-color="#FFF44F"/>
<stop offset="0.252" stop-color="#FFDC3E"/>
<stop offset="0.506" stop-color="#FF9D12"/>
<stop offset="0.526" stop-color="#FF980E"/>
</radialGradient>
<radialGradient id="paint4_radial_1328_23428" cx="0" cy="0" r="1" gradientUnits="userSpaceOnUse" gradientTransform="translate(9.52049 18.872) scale(11.5241 11.5211)">
<stop offset="0.353" stop-color="#3A8EE6"/>
<stop offset="0.472" stop-color="#5C79F0"/>
<stop offset="0.669" stop-color="#9059FF"/>
<stop offset="1" stop-color="#C139E6"/>
</radialGradient>
<radialGradient id="paint5_radial_1328_23428" cx="0" cy="0" r="1" gradientUnits="userSpaceOnUse" gradientTransform="translate(13.5239 10.5689) rotate(-13.5881) scale(6.10993 7.15152)">
<stop offset="0.206" stop-color="#9059FF" stop-opacity="0"/>
<stop offset="0.278" stop-color="#8C4FF3" stop-opacity="0.064"/>
<stop offset="0.747" stop-color="#7716A8" stop-opacity="0.45"/>
<stop offset="0.975" stop-color="#6E008B" stop-opacity="0.6"/>
</radialGradient>
<radialGradient id="paint6_radial_1328_23428" cx="0" cy="0" r="1" gradientUnits="userSpaceOnUse" gradientTransform="translate(11.8921 1.66885) scale(8.29045 8.28826)">
<stop stop-color="#FFE226"/>
<stop offset="0.121" stop-color="#FFDB27"/>
<stop offset="0.295" stop-color="#FFC82A"/>
<stop offset="0.502" stop-color="#FFA930"/>
<stop offset="0.732" stop-color="#FF7E37"/>
<stop offset="0.792" stop-color="#FF7139"/>
</radialGradient>
<radialGradient id="paint7_radial_1328_23428" cx="0" cy="0" r="1" gradientUnits="userSpaceOnUse" gradientTransform="translate(18.4097 -3.58913) scale(35.3716 35.3623)">
<stop offset="0.113" stop-color="#FFF44F"/>
<stop offset="0.456" stop-color="#FF980E"/>
<stop offset="0.622" stop-color="#FF5634"/>
<stop offset="0.716" stop-color="#FF3647"/>
<stop offset="0.904" stop-color="#E31587"/>
</radialGradient>
<radialGradient id="paint8_radial_1328_23428" cx="0" cy="0" r="1" gradientUnits="userSpaceOnUse" gradientTransform="translate(15.4339 -1.62333) rotate(83.9745) scale(25.918 17.0141)">
<stop stop-color="#FFF44F"/>
<stop offset="0.06" stop-color="#FFE847"/>
<stop offset="0.168" stop-color="#FFC830"/>
<stop offset="0.304" stop-color="#FF980E"/>
<stop offset="0.356" stop-color="#FF8B16"/>
<stop offset="0.455" stop-color="#FF672A"/>
<stop offset="0.57" stop-color="#FF3647"/>
<stop offset="0.737" stop-color="#E31587"/>
</radialGradient>
<radialGradient id="paint9_radial_1328_23428" cx="0" cy="0" r="1" gradientUnits="userSpaceOnUse" gradientTransform="translate(11.6967 4.73817) scale(22.0831 22.0773)">
<stop offset="0.137" stop-color="#FFF44F"/>
<stop offset="0.48" stop-color="#FF980E"/>
<stop offset="0.592" stop-color="#FF5634"/>
<stop offset="0.655" stop-color="#FF3647"/>
<stop offset="0.904" stop-color="#E31587"/>
</radialGradient>
<radialGradient id="paint10_radial_1328_23428" cx="0" cy="0" r="1" gradientUnits="userSpaceOnUse" gradientTransform="translate(17.5274 6.03072) scale(24.1698 24.1634)">
<stop offset="0.094" stop-color="#FFF44F"/>
<stop offset="0.231" stop-color="#FFE141"/>
<stop offset="0.509" stop-color="#FFAF1E"/>
<stop offset="0.626" stop-color="#FF980E"/>
</radialGradient>
<linearGradient id="paint11_linear_1328_23428" x1="21.7014" y1="3.61067" x2="5.30632" y2="20.0097" gradientUnits="userSpaceOnUse">
<stop offset="0.167" stop-color="#FFF44F" stop-opacity="0.8"/>
<stop offset="0.266" stop-color="#FFF44F" stop-opacity="0.634"/>
<stop offset="0.489" stop-color="#FFF44F" stop-opacity="0.217"/>
<stop offset="0.6" stop-color="#FFF44F" stop-opacity="0"/>
</linearGradient>
<clipPath id="clip0_1328_23428">
<rect width="24" height="24" fill="white" transform="translate(0.5)"/>
</clipPath>
</defs>
</svg>
