<svg width="24" height="24" viewBox="0 0 24 24" fill="none" xmlns="http://www.w3.org/2000/svg">
<g clip-path="url(#clip0_1328_23398)">
<path d="M9.35846 6.84812L9.42437 8.36401L8.36983 10.3413L6.72212 13.5708L6.39258 16.273L7.57893 20.0957L10.2812 21.6116H14.3675L18.1902 18.7117L19.9038 14.164L15.9493 9.35264L14.8289 6.65039L9.35846 6.84812Z" fill="#ECEFF1"/>
<path d="M18.718 10.6038C17.6635 9.08795 16.8067 8.16523 16.3453 6.25388C15.8839 4.34254 16.4771 4.8698 16.0817 3.22209C15.8839 2.36528 15.5544 1.7721 15.2249 1.31074C14.8294 0.849384 14.368 0.585749 14.1044 0.519841C13.5112 0.190298 12.1272 -0.33697 10.4135 0.585749C8.634 1.50847 8.83173 3.48573 9.16127 7.50615C9.16127 7.76978 9.09536 8.09932 8.96354 8.36296C8.69991 8.95613 8.23855 9.4834 7.8431 9.94476C7.38174 10.6038 6.92038 11.2629 6.59084 11.9879C5.79993 13.5038 5.07494 15.4152 5.27266 16.1402C5.60221 16.0743 9.75445 22.4015 9.75445 22.5333C10.0181 22.4674 11.1385 22.4674 12.1272 22.4674C13.5112 22.4015 14.3021 22.3356 15.4226 22.5992C15.4226 22.4015 15.3567 22.2038 15.3567 22.006C15.3567 21.6106 15.4226 21.281 15.4885 20.8197C15.5544 20.4901 15.6203 20.1606 15.6862 19.7651C15.0271 20.3583 13.8408 21.0174 12.7203 21.2151C11.7317 21.4128 10.084 21.0833 9.29309 20.0947C9.35899 20.0947 9.49081 20.0947 9.55672 20.0288C9.75445 19.9629 9.95217 19.897 10.0181 19.7651C10.2158 19.4356 10.084 19.106 9.95217 18.9083C9.82035 18.7106 8.83173 17.9856 8.37037 17.5902C7.90901 17.1947 7.64537 16.997 7.38174 16.7333L6.85447 16.2061C6.72265 16.0743 6.65674 15.9424 6.59084 15.8765C6.45902 15.547 6.39311 15.1515 6.45902 14.6243C6.52493 13.8993 6.78856 13.3061 7.1181 12.647C7.24992 12.3834 7.57946 11.8561 7.57946 11.8561C7.57946 11.8561 6.45902 14.6243 7.0522 15.4811C7.0522 15.4811 7.1181 14.6243 7.38174 13.7675C7.57946 13.1743 7.90901 12.3175 8.30446 11.8561C8.69991 11.3947 9.68854 9.68113 9.75445 8.62659C9.75445 8.16523 9.82035 7.70387 9.82035 7.37433C9.55672 7.11069 14.1703 6.45161 14.434 7.1766C14.4999 7.44024 15.4226 9.81295 15.9498 11.0652C16.2135 11.6584 16.543 12.1857 16.7408 12.8447C16.9385 13.5697 17.0703 14.5584 17.0703 15.547C17.0703 15.7447 17.0703 16.0743 17.0044 16.4038C17.1362 16.4038 19.7066 13.6356 16.6748 11.3288C16.6748 11.3288 18.5203 12.1857 18.5862 13.8993C18.6521 15.2834 18.0589 16.4038 17.9271 16.6015C17.993 16.6015 19.3112 17.1947 19.3771 17.1947C19.6407 17.1947 20.168 16.997 20.168 16.997C20.2339 16.7992 20.4316 16.272 20.4316 16.0743C20.893 14.5584 19.7725 12.1197 18.718 10.6038Z" fill="#263238"/>
<path d="M10.3475 6.25158C10.8207 6.25158 11.2043 5.66141 11.2043 4.93341C11.2043 4.2054 10.8207 3.61523 10.3475 3.61523C9.87433 3.61523 9.49072 4.2054 9.49072 4.93341C9.49072 5.66141 9.87433 6.25158 10.3475 6.25158Z" fill="#ECEFF1"/>
<path d="M13.3138 6.38531C13.9326 6.38531 14.4342 5.70662 14.4342 4.86941C14.4342 4.03221 13.9326 3.35352 13.3138 3.35352C12.695 3.35352 12.1934 4.03221 12.1934 4.86941C12.1934 5.70662 12.695 6.38531 13.3138 6.38531Z" fill="#ECEFF1"/>
<path d="M10.827 5.02541C10.7722 4.59206 10.5229 4.26666 10.2701 4.29861C10.0173 4.33056 9.85678 4.70777 9.91156 5.14112C9.96634 5.57448 10.2157 5.89988 10.4685 5.86793C10.7213 5.83597 10.8818 5.45877 10.827 5.02541Z" fill="#212121"/>
<path d="M13.248 5.99097C13.612 5.99097 13.907 5.60736 13.907 5.13415C13.907 4.66095 13.612 4.27734 13.248 4.27734C12.8839 4.27734 12.5889 4.66095 12.5889 5.13415C12.5889 5.60736 12.8839 5.99097 13.248 5.99097Z" fill="#212121"/>
<path d="M22.0137 19.6347C21.75 19.5029 21.2887 19.3051 20.8932 18.712C20.6955 18.3824 20.7614 17.4597 20.4319 17.0642C20.2341 16.8006 19.9705 16.9324 19.9046 16.9324C19.3114 17.0642 17.9274 17.987 17.0046 16.9324C16.8728 16.8006 16.6751 16.6029 16.3455 16.6029C16.016 16.6029 15.8842 16.7347 15.7524 16.9983C15.6206 17.262 15.6206 17.4597 15.6206 18.1188C15.6206 18.6461 15.6206 19.2392 15.5546 19.7006C15.4228 20.821 15.2251 21.4801 15.2251 22.1392C15.2251 22.8642 15.4228 23.3256 15.6865 23.5233C15.8842 23.721 16.2137 23.8528 16.9387 23.8528C17.6637 23.8528 18.1251 23.5892 18.5864 23.1278C18.916 22.7983 19.1796 22.6665 20.1023 22.0074C20.8273 21.546 21.9478 20.9529 22.1455 20.7551C22.2773 20.6233 22.475 20.5574 22.475 20.162C22.475 19.8324 22.2114 19.7006 22.0137 19.6347ZM8.76606 19.8324C8.10698 18.7779 8.04107 18.5801 7.57971 17.9211C7.18426 17.262 6.32745 16.0097 5.80018 16.0097C5.40473 16.0097 5.207 16.2074 4.94337 16.4711C4.67973 16.7347 4.4161 17.3279 3.95474 17.6574C3.55929 17.987 2.43884 17.9211 2.17521 18.3165C1.91157 18.712 2.43884 19.3051 2.43884 20.2938C2.43884 20.6892 2.1093 20.9529 2.04339 21.2165C1.97748 21.546 1.91157 21.7438 2.04339 22.0074C2.30702 22.4028 2.63657 22.5347 4.87746 22.996C6.06381 23.2597 7.18426 23.9187 7.90925 23.9846C8.63424 24.0506 9.88651 23.9846 9.88651 22.2051C9.95241 21.1506 9.35924 20.8869 8.76606 19.8324ZM10.0183 7.90296C9.62287 7.63933 9.29333 7.37569 9.29333 6.98024C9.29333 6.58479 9.55696 6.45297 9.95241 6.12343C10.0183 6.05752 10.7433 5.39844 11.4683 5.39844C12.1933 5.39844 13.0501 5.8598 13.3797 5.99161C13.9728 6.12343 14.566 6.25525 14.5001 6.71661C14.4342 7.37569 14.3683 7.50751 13.7092 7.83705C13.2478 7.96887 12.391 8.69386 11.7979 8.69386C11.5342 8.69386 11.1388 8.69386 10.8751 8.62796C10.6774 8.56205 10.3479 8.2325 10.0183 7.90296Z" fill="#FFC107"/>
<path d="M9.88559 7.37527C10.0174 7.50709 10.2151 7.63891 10.4129 7.70481C10.5447 7.77072 10.7424 7.83663 10.7424 7.83663H11.3356C11.6651 7.83663 12.1265 7.70481 12.5878 7.44118C13.0492 7.24345 13.1151 7.11164 13.4446 6.97982C13.7742 6.78209 14.1037 6.58437 13.9719 6.51846C13.8401 6.45255 13.7083 6.51846 13.2469 6.78209C12.8515 7.04573 12.5219 7.17755 12.1265 7.37527C11.9288 7.44118 11.6651 7.573 11.4674 7.573H10.8742C10.6765 7.573 10.5447 7.50709 10.3469 7.44118C10.2151 7.37527 10.1492 7.30936 10.0833 7.30936C9.95149 7.24345 9.68786 6.97982 9.55604 6.91391C9.55604 6.91391 9.42423 6.91391 9.49013 6.97982L9.88559 7.37527ZM11.8628 5.92528C11.9288 6.0571 12.0606 6.0571 12.1265 6.12301C12.1924 6.18892 12.2583 6.18892 12.2583 6.18892C12.3242 6.12301 12.2583 5.99119 12.1924 5.99119C12.1924 5.85937 11.8628 5.85938 11.8628 5.92528ZM10.8083 6.0571C10.8083 6.12301 10.9401 6.18892 10.9401 6.12301C11.006 6.0571 11.0719 5.99119 11.1378 5.99119C11.2697 5.92528 11.2038 5.85938 11.006 5.85938C10.8742 5.92528 10.8742 5.99119 10.8083 6.0571Z" fill="#634703"/>
<path d="M17.2031 17.7227V17.9204C17.3349 18.1841 17.6644 18.25 17.9281 18.25C18.3235 18.25 18.719 17.9864 18.9167 17.7227C18.9167 17.6568 18.9826 17.5909 19.0485 17.525C19.1803 17.3273 19.2463 17.1955 19.3122 17.1295C19.3122 17.1295 19.2463 17.0636 19.2463 16.9977C19.1803 16.8659 18.9826 16.7341 18.719 16.6682C18.5213 16.6023 18.1917 16.5364 18.0599 16.5364C17.4667 16.4705 17.1372 16.6682 16.9395 16.8659C16.9395 16.8659 17.0054 16.8659 17.0054 16.9318C17.1372 17.0636 17.2031 17.1955 17.2031 17.3932C17.269 17.525 17.2031 17.5909 17.2031 17.7227Z" fill="#455A64"/>
</g>
<defs>
<clipPath id="clip0_1328_23398">
<rect width="24" height="24" fill="white"/>
</clipPath>
</defs>
</svg>
