<svg width="24" height="24" viewBox="0 0 24 24" fill="none" xmlns="http://www.w3.org/2000/svg">
<g clip-path="url(#clip0_1328_23438)">
<path d="M21.6551 17.8598C21.3363 18.0285 21.0082 18.1785 20.6707 18.3004C19.5926 18.7035 18.4582 18.9098 17.3051 18.9098C12.8707 18.9098 9.0082 15.8629 9.0082 11.9441C9.01758 10.8754 9.6082 9.89102 10.5457 9.38477C6.5332 9.55352 5.50195 13.7348 5.50195 16.1816C5.50195 23.1098 11.8863 23.8129 13.2645 23.8129C14.0051 23.8129 15.1207 23.5973 15.7957 23.3816L15.9176 23.3441C18.5051 22.4535 20.6988 20.7098 22.1613 18.3941C22.2738 18.216 22.2176 17.991 22.0488 17.8785C21.927 17.8035 21.777 17.7941 21.6551 17.8598Z" fill="url(#paint0_linear_1328_23438)"/>
<path opacity="0.35" d="M21.6551 17.8598C21.3363 18.0285 21.0082 18.1785 20.6707 18.3004C19.5926 18.7035 18.4582 18.9098 17.3051 18.9098C12.8707 18.9098 9.0082 15.8629 9.0082 11.9441C9.01758 10.8754 9.6082 9.89102 10.5457 9.38477C6.5332 9.55352 5.50195 13.7348 5.50195 16.1816C5.50195 23.1098 11.8863 23.8129 13.2645 23.8129C14.0051 23.8129 15.1207 23.5973 15.7957 23.3816L15.9176 23.3441C18.5051 22.4535 20.6988 20.7098 22.1613 18.3941C22.2738 18.216 22.2176 17.991 22.0488 17.8785C21.927 17.8035 21.777 17.7941 21.6551 17.8598Z" fill="url(#paint1_radial_1328_23438)"/>
<path d="M9.90943 22.632C9.07505 22.1164 8.35318 21.432 7.7813 20.6352C5.31568 17.2602 6.0563 12.5258 9.4313 10.0602C9.78755 9.80703 10.1532 9.57266 10.5469 9.38516C10.8376 9.24453 11.3344 9.00078 12.0001 9.01016C12.9469 9.01953 13.8376 9.46953 14.4094 10.2289C14.7844 10.7352 15.0001 11.3445 15.0094 11.982C15.0094 11.9633 17.3063 4.51953 7.50943 4.51953C3.3938 4.51953 0.00942882 8.42891 0.00942882 11.8508C-0.00932118 13.6602 0.384429 15.4602 1.1438 17.1008C3.7313 22.6133 10.0313 25.3133 15.8063 23.3914C13.8282 24.0102 11.6719 23.7383 9.90943 22.632Z" fill="url(#paint2_linear_1328_23438)"/>
<path opacity="0.41" d="M9.90943 22.632C9.07505 22.1164 8.35318 21.432 7.7813 20.6352C5.31568 17.2602 6.0563 12.5258 9.4313 10.0602C9.78755 9.80703 10.1532 9.57266 10.5469 9.38516C10.8376 9.24453 11.3344 9.00078 12.0001 9.01016C12.9469 9.01953 13.8376 9.46953 14.4094 10.2289C14.7844 10.7352 15.0001 11.3445 15.0094 11.982C15.0094 11.9633 17.3063 4.51953 7.50943 4.51953C3.3938 4.51953 0.00942882 8.42891 0.00942882 11.8508C-0.00932118 13.6602 0.384429 15.4602 1.1438 17.1008C3.7313 22.6133 10.0313 25.3133 15.8063 23.3914C13.8282 24.0102 11.6719 23.7383 9.90943 22.632Z" fill="url(#paint3_radial_1328_23438)"/>
<path d="M14.2781 13.9594C14.2031 14.0531 13.9688 14.1938 13.9688 14.4938C13.9688 14.7375 14.1281 14.9719 14.4094 15.1688C15.7594 16.1063 18.3 15.9844 18.3094 15.9844C19.3125 15.9844 20.2875 15.7125 21.15 15.2062C22.9125 14.175 24 12.2906 24 10.2469C24.0281 8.14688 23.25 6.75 22.9406 6.13125C20.9531 2.24063 16.6594 0 12 0C5.4375 0 0.09375 5.26875 0 11.8312C0.046875 8.40937 3.45 5.64375 7.5 5.64375C7.82812 5.64375 9.70312 5.67188 11.4375 6.59063C12.9656 7.39688 13.7719 8.3625 14.325 9.32812C14.9062 10.3313 15.0094 11.5875 15.0094 12.0938C15.0094 12.5906 14.7563 13.3406 14.2781 13.9594Z" fill="url(#paint4_radial_1328_23438)"/>
<path d="M14.2781 13.9594C14.2031 14.0531 13.9688 14.1938 13.9688 14.4938C13.9688 14.7375 14.1281 14.9719 14.4094 15.1688C15.7594 16.1063 18.3 15.9844 18.3094 15.9844C19.3125 15.9844 20.2875 15.7125 21.15 15.2062C22.9125 14.175 24 12.2906 24 10.2469C24.0281 8.14688 23.25 6.75 22.9406 6.13125C20.9531 2.24063 16.6594 0 12 0C5.4375 0 0.09375 5.26875 0 11.8312C0.046875 8.40937 3.45 5.64375 7.5 5.64375C7.82812 5.64375 9.70312 5.67188 11.4375 6.59063C12.9656 7.39688 13.7719 8.3625 14.325 9.32812C14.9062 10.3313 15.0094 11.5875 15.0094 12.0938C15.0094 12.5906 14.7563 13.3406 14.2781 13.9594Z" fill="url(#paint5_radial_1328_23438)"/>
</g>
<defs>
<linearGradient id="paint0_linear_1328_23438" x1="5.50233" y1="16.596" x2="22.2164" y2="16.596" gradientUnits="userSpaceOnUse">
<stop stop-color="#0C59A4"/>
<stop offset="1" stop-color="#114A8B"/>
</linearGradient>
<radialGradient id="paint1_radial_1328_23438" cx="0" cy="0" r="1" gradientUnits="userSpaceOnUse" gradientTransform="translate(14.7356 16.7288) scale(8.94098 8.49299)">
<stop offset="0.72" stop-opacity="0"/>
<stop offset="0.95" stop-opacity="0.53"/>
<stop offset="1"/>
</radialGradient>
<linearGradient id="paint2_linear_1328_23438" x1="14.3223" y1="9.35197" x2="3.88112" y2="20.725" gradientUnits="userSpaceOnUse">
<stop stop-color="#1B9DE2"/>
<stop offset="0.16" stop-color="#1595DF"/>
<stop offset="0.67" stop-color="#0680D7"/>
<stop offset="1" stop-color="#0078D4"/>
</linearGradient>
<radialGradient id="paint3_radial_1328_23438" cx="0" cy="0" r="1" gradientUnits="userSpaceOnUse" gradientTransform="translate(6.61961 18.6579) rotate(-81.3826) scale(13.4435 10.8632)">
<stop offset="0.76" stop-opacity="0"/>
<stop offset="0.95" stop-opacity="0.5"/>
<stop offset="1"/>
</radialGradient>
<radialGradient id="paint4_radial_1328_23438" cx="0" cy="0" r="1" gradientUnits="userSpaceOnUse" gradientTransform="translate(2.42359 4.44307) rotate(92.2911) scale(18.9892 40.4492)">
<stop stop-color="#35C1F1"/>
<stop offset="0.11" stop-color="#34C1ED"/>
<stop offset="0.23" stop-color="#2FC2DF"/>
<stop offset="0.31" stop-color="#2BC3D2"/>
<stop offset="0.67" stop-color="#36C752"/>
</radialGradient>
<radialGradient id="paint5_radial_1328_23438" cx="0" cy="0" r="1" gradientUnits="userSpaceOnUse" gradientTransform="translate(22.5057 7.25679) rotate(73.7366) scale(9.12387 7.42096)">
<stop stop-color="#66EB6E"/>
<stop offset="1" stop-color="#66EB6E" stop-opacity="0"/>
</radialGradient>
<clipPath id="clip0_1328_23438">
<rect width="24" height="24" fill="white"/>
</clipPath>
</defs>
</svg>
