<svg width="24" height="24" viewBox="0 0 24 24" fill="none" xmlns="http://www.w3.org/2000/svg">
<path d="M16.1363 4.5H7.8675C5.98082 4.49895 4.17101 5.28812 2.83622 6.6939C1.50143 8.09969 0.750996 10.0069 0.750001 11.996C0.749006 13.9852 1.49753 15.8932 2.83092 17.3005C4.1643 18.7078 5.97332 19.499 7.86 19.5H16.1363C18.0229 19.5 19.8323 18.7098 21.1664 17.3033C22.5005 15.8968 23.25 13.9891 23.25 12C23.25 10.0109 22.5005 8.10322 21.1664 6.6967C19.8323 5.29018 18.0229 4.5 16.1363 4.5ZM15.9553 16.857H8.04938C6.84365 16.8314 5.69551 16.3084 4.85141 15.4003C4.0073 14.4922 3.53451 13.2715 3.53451 12C3.53451 10.7285 4.0073 9.50777 4.85141 8.5997C5.69551 7.69162 6.84365 7.16864 8.04938 7.14299H15.9553C17.1771 7.14299 18.3489 7.65471 19.2129 8.56558C20.0768 9.47644 20.5622 10.7118 20.5622 12C20.5622 13.2882 20.0768 14.5236 19.2129 15.4344C18.3489 16.3453 17.1771 16.857 15.9553 16.857Z" fill="#EA1B22"/>
</svg>
