<svg width="24" height="24" viewBox="0 0 24 24" fill="none" xmlns="http://www.w3.org/2000/svg">
<g clip-path="url(#clip0_1328_23433)">
<path d="M23.6913 14.3383C23.5515 13.9157 23.1854 13.6213 22.712 13.5507C22.4888 13.5174 22.2331 13.5316 21.9306 13.5939C21.4032 13.7025 21.012 13.7439 20.7265 13.7519C21.8042 11.935 22.6805 9.86323 23.185 7.91296C24.0008 4.75941 23.5648 3.32278 23.0554 2.67296C21.7073 0.952957 19.7405 0.0289572 17.3676 0.000684517C16.1018 -0.01477 14.9906 0.234775 14.4109 0.41423C13.8712 0.319139 13.2909 0.266048 12.682 0.25623C11.5405 0.238048 10.532 0.486503 9.67025 0.997139C9.19318 0.836048 8.42748 0.608957 7.54325 0.464048C5.46358 0.123139 3.78743 0.388775 2.56141 1.25359C1.07682 2.30068 0.388603 4.11996 0.515885 6.66087C0.556309 7.46759 1.00826 9.92214 1.71987 12.25C2.12885 13.588 2.56496 14.699 3.01609 15.5527C3.65587 16.7631 4.34044 17.476 5.10896 17.732C5.53969 17.8752 6.32232 17.9756 7.14547 17.291C7.24981 17.4172 7.38901 17.5426 7.57375 17.659C7.80837 17.8068 8.09526 17.9275 8.38178 17.999C9.41433 18.2568 10.3815 18.1923 11.2067 17.831C11.2117 17.9776 11.2157 18.1176 11.2189 18.2385C11.2244 18.4346 11.2299 18.6269 11.2371 18.8067C11.286 20.0225 11.3688 20.9679 11.6143 21.6293C11.6277 21.6657 11.6459 21.7211 11.665 21.78C11.7874 22.1543 11.9922 22.781 12.5132 23.2719C13.0526 23.7803 13.7051 23.9362 14.3027 23.9362C14.6025 23.9362 14.8884 23.897 15.1393 23.8433C16.0333 23.652 17.0488 23.3605 17.7833 22.3161C18.4778 21.3289 18.8154 19.8419 18.8765 17.4989C18.8844 17.4326 18.8917 17.3693 18.8987 17.309L18.9133 17.1852L19.0769 17.1996L19.1191 17.2024C20.0297 17.2439 21.1432 17.051 21.827 16.7339C22.3674 16.4835 24.099 15.5707 23.6913 14.3383Z" fill="black"/>
<path d="M22.1329 14.5769C19.4252 15.1347 19.239 14.2193 19.239 14.2193C22.0979 9.98358 23.293 4.60694 22.2617 3.29103C19.4481 -0.298515 14.5776 1.39912 14.4963 1.44312L14.4701 1.44785C13.9352 1.33694 13.3365 1.27094 12.6636 1.25994C11.4385 1.23994 10.5091 1.58067 9.80387 2.11467C9.80387 2.11467 1.11538 -1.45933 1.51953 6.60958C1.60548 8.32612 3.98359 19.598 6.82003 16.1934C7.85677 14.9484 8.85854 13.8958 8.85854 13.8958C9.35602 14.2258 9.95164 14.3941 10.576 14.3337L10.6246 14.2926C10.6094 14.4471 10.6164 14.5983 10.6439 14.7773C9.91322 15.5925 10.128 15.7356 8.66726 16.0359C7.18913 16.34 8.05743 16.8815 8.62437 17.0231C9.31168 17.1947 10.9017 17.4378 11.976 15.936L11.9332 16.1074C12.2195 16.3364 12.4205 17.5968 12.3868 18.7394C12.3531 19.8819 12.3307 20.6664 12.5562 21.2791C12.7819 21.8918 13.0067 23.2705 14.927 22.8597C16.5315 22.5163 17.363 21.6266 17.4787 20.1424C17.5608 19.0873 17.7466 19.2433 17.7583 18.2999L17.9073 17.8534C18.0791 16.4231 17.9346 15.9617 18.9231 16.1763L19.1635 16.1974C19.8909 16.2304 20.8433 16.0805 21.4022 15.8211C22.6056 15.2635 23.3194 14.3323 22.1327 14.5769H22.1329Z" fill="#336791"/>
<path d="M10.3136 7.37825C10.0696 7.34434 9.84867 7.3757 9.73686 7.46025C9.67404 7.50779 9.65456 7.56288 9.64928 7.60079C9.63525 7.70125 9.70572 7.81234 9.74906 7.86961C9.87161 8.03179 10.0506 8.14325 10.2278 8.16779C10.2535 8.17143 10.279 8.17307 10.3044 8.17307C10.5999 8.17307 10.8686 7.94334 10.8922 7.77379C10.9218 7.56143 10.6131 7.41979 10.3136 7.37825ZM18.397 7.38497C18.3737 7.21852 18.0771 7.17107 17.7956 7.21016C17.5144 7.24925 17.2418 7.37597 17.2646 7.54279C17.2828 7.67252 17.5174 7.89397 17.7951 7.89397C17.8186 7.89397 17.8423 7.89243 17.8661 7.88907C18.0515 7.86343 18.1875 7.74588 18.2522 7.67816C18.3505 7.57488 18.4075 7.45979 18.397 7.38497Z" fill="white"/>
<path d="M23.0341 14.5147C22.9308 14.203 22.5985 14.1027 22.0464 14.2165C20.4071 14.5543 19.8201 14.3203 19.6273 14.1786C20.9015 12.2404 21.9497 9.89753 22.5152 7.71162C22.7831 6.67616 22.931 5.71453 22.9431 4.93071C22.9565 4.07044 22.8098 3.43825 22.5071 3.05207C21.2869 1.49525 19.4961 0.660162 17.3283 0.637253C15.8379 0.620526 14.5788 1.00134 14.3347 1.10843C13.8206 0.980798 13.2602 0.902435 12.6501 0.892435C11.5314 0.874344 10.5643 1.1418 9.76363 1.68698C9.41584 1.55771 8.51704 1.24962 7.41784 1.0728C5.51754 0.767344 4.00745 0.998799 2.92984 1.76107C1.644 2.67071 1.05038 4.29671 1.16537 6.5938C1.20407 7.36662 1.64509 9.74407 2.34104 12.0209C3.25715 15.0176 4.253 16.7141 5.30076 17.0631C5.4234 17.1039 5.56479 17.1324 5.72075 17.1324C6.10296 17.1324 6.57157 16.9604 7.05912 16.3752C7.65379 15.6628 8.26894 14.9678 8.9038 14.291C9.31569 14.5117 9.76819 14.635 10.231 14.6473C10.2319 14.6594 10.2331 14.6715 10.2342 14.6835C10.1545 14.7784 10.0765 14.8746 10.0002 14.9722C9.67951 15.3786 9.61277 15.4633 8.58059 15.6754C8.28696 15.736 7.50716 15.8964 7.49569 16.4423C7.4833 17.0386 8.41752 17.2891 8.52396 17.3156C8.89488 17.4083 9.25223 17.4541 9.59301 17.4541C10.4218 17.4541 11.1512 17.1821 11.734 16.6558C11.7161 18.7818 11.8049 20.8767 12.0605 21.515C12.2699 22.0375 12.7814 23.3145 14.3971 23.3144C14.6342 23.3144 14.8952 23.2869 15.1822 23.2254C16.8685 22.8645 17.6008 22.1203 17.884 20.4797C18.0356 19.6029 18.2957 17.5092 18.4181 16.3861C18.6763 16.4665 19.0087 16.5033 19.368 16.5033C20.1175 16.5033 20.9824 16.3443 21.5247 16.0929C22.134 15.8103 23.2335 15.1171 23.0341 14.5147ZM19.0184 6.92562C19.0129 7.25716 18.9672 7.55816 18.9187 7.87234C18.8666 8.21025 18.8127 8.55962 18.7991 8.98371C18.7857 9.39643 18.8373 9.82553 18.8872 10.2405C18.9881 11.0787 19.0916 11.9416 18.6909 12.7931C18.6244 12.6753 18.5651 12.5536 18.5134 12.4286C18.4636 12.3081 18.3554 12.1144 18.2057 11.8464C17.6231 10.8032 16.2587 8.36007 16.9572 7.36316C17.1652 7.06643 17.6932 6.76134 19.0184 6.92562ZM17.412 1.30862C19.3544 1.35143 20.8909 2.07698 21.9787 3.46498C22.813 4.52962 21.8943 9.37389 19.2346 13.5531C19.2078 13.5191 19.1809 13.4853 19.1539 13.4515L19.1202 13.4095C19.8075 12.2762 19.6731 11.1548 19.5535 10.1606C19.5043 9.75262 19.4579 9.36725 19.4697 9.00525C19.4819 8.62162 19.5327 8.29253 19.5819 7.97434C19.6423 7.58225 19.7037 7.17653 19.6868 6.69825C19.6994 6.64807 19.7045 6.5888 19.6979 6.51844C19.6547 6.0598 19.1302 4.68716 18.0614 3.4448C17.4767 2.76525 16.624 2.0048 15.4598 1.49189C15.9606 1.38825 16.6453 1.29162 17.412 1.30862ZM6.54317 15.9468C6.006 16.5917 5.63508 16.4681 5.51308 16.4275C4.71825 16.1628 3.79595 14.4853 2.98283 11.8253C2.27922 9.52371 1.86806 7.20925 1.83547 6.56025C1.73277 4.50771 2.23106 3.07725 3.3166 2.30853C5.08325 1.05762 7.98779 1.80634 9.1549 2.18607C9.13815 2.20262 9.12067 2.21807 9.1041 2.23489C7.18886 4.16616 7.23429 7.4658 7.23903 7.66753C7.23885 7.74534 7.2454 7.85553 7.25432 8.00707C7.28728 8.56207 7.34865 9.59498 7.18477 10.7647C7.03254 11.8517 7.36813 12.9156 8.10533 13.6837C8.18099 13.7624 8.26051 13.8373 8.34359 13.9081C8.01547 14.259 7.30231 15.035 6.54317 15.9468ZM8.58978 13.2202C7.99562 12.6011 7.72576 11.74 7.84931 10.8574C8.02229 9.6218 7.95847 8.54562 7.92415 7.96743C7.91932 7.88653 7.91504 7.81562 7.91258 7.75971C8.19237 7.51198 9.48895 6.81834 10.4136 7.02989C10.8355 7.12634 11.0926 7.41325 11.1995 7.90671C11.7527 10.4615 11.2727 11.5263 10.887 12.3821C10.8076 12.5583 10.7325 12.725 10.6684 12.8973L10.6186 13.0306C10.4928 13.3675 10.3757 13.6808 10.3032 13.9783C9.6715 13.9764 9.05703 13.707 8.58978 13.2201V13.2202ZM8.68675 16.6656C8.50229 16.6196 8.3364 16.5397 8.23907 16.4734C8.32038 16.4353 8.46505 16.3833 8.71597 16.3316C9.93025 16.0821 10.1178 15.9059 10.5273 15.3867C10.6212 15.2676 10.7276 15.1327 10.875 14.9683L10.8752 14.9682C11.0947 14.7227 11.1951 14.7643 11.3772 14.8398C11.5248 14.9007 11.6686 15.0854 11.7269 15.2887C11.7544 15.3847 11.7854 15.5669 11.6841 15.7087C10.8286 16.9047 9.582 16.8893 8.68675 16.6656ZM15.0416 22.5703C13.5561 22.8882 13.0302 22.1313 12.6836 21.2662C12.4599 20.7076 12.3499 18.1889 12.4279 15.4073C12.4289 15.3703 12.4236 15.3346 12.4134 15.301C12.4043 15.2346 12.3904 15.1689 12.3719 15.1044C12.2559 14.6997 11.9732 14.3612 11.6341 14.2208C11.4993 14.1651 11.252 14.0628 10.9549 14.1387C11.0182 13.878 11.1281 13.5835 11.2473 13.2647L11.2973 13.1306C11.3536 12.9794 11.4242 12.8228 11.4989 12.657C11.9025 11.7617 12.4552 10.5354 11.8553 7.76516C11.6306 6.72753 10.8802 6.2208 9.74269 6.33853C9.06076 6.40898 8.43683 6.68371 8.12563 6.84125C8.05871 6.87507 7.99753 6.9078 7.94035 6.93962C8.02721 5.89416 8.35534 3.94034 9.58282 2.70416C10.3557 1.92598 11.385 1.54162 12.639 1.56234C15.11 1.60271 16.6946 2.86889 17.5888 3.92407C18.3594 4.83325 18.7767 5.74916 18.9432 6.24316C17.6909 6.11598 16.8392 6.3628 16.4074 6.97916C15.4681 8.31989 16.9213 10.9221 17.6197 12.1727C17.7478 12.4019 17.8583 12.6 17.8931 12.6842C18.1205 13.2345 18.415 13.602 18.6299 13.8702C18.6959 13.9523 18.7598 14.0321 18.8084 14.1017C18.4291 14.2109 17.7478 14.4632 17.8099 15.7242C17.7598 16.3569 17.4037 19.3193 17.2228 20.3659C16.984 21.7486 16.4744 22.2636 15.0416 22.5704V22.5703ZM21.2422 15.4853C20.8544 15.665 20.2053 15.7998 19.5887 15.8288C18.9077 15.8606 18.561 15.7526 18.4794 15.6862C18.4412 14.9003 18.7341 14.8183 19.0441 14.7313C19.0928 14.7177 19.1403 14.7043 19.1862 14.6883C19.2147 14.7115 19.246 14.7345 19.2802 14.7571C19.8276 15.1178 20.8038 15.1567 22.1822 14.8726L22.1973 14.8696C22.0114 15.0432 21.6933 15.2761 21.2422 15.4853Z" fill="white"/>
</g>
<defs>
<clipPath id="clip0_1328_23433">
<rect width="24" height="24" fill="white"/>
</clipPath>
</defs>
</svg>
