<svg width="25" height="24" viewBox="0 0 25 24" fill="none" xmlns="http://www.w3.org/2000/svg">
<g clip-path="url(#clip0_1328_23418)">
<path d="M12.5 23.7188C18.9721 23.7188 24.2188 18.4721 24.2188 12C24.2188 5.52791 18.9721 0.28125 12.5 0.28125C6.02791 0.28125 0.78125 5.52791 0.78125 12C0.78125 18.4721 6.02791 23.7188 12.5 23.7188Z" fill="url(#paint0_linear_1328_23418)"/>
<path d="M12.4055 1.42578V3.15078H12.593V1.42578H12.4055ZM11.6739 1.47453L11.4871 1.48953L11.5621 2.42703L11.7489 2.41203L11.6739 1.47453ZM13.3246 1.47453L13.2496 2.41203L13.4364 2.42703L13.5114 1.48953L13.3246 1.47453ZM10.7542 1.57841L10.5693 1.61066L10.8693 3.31709L11.0542 3.28466L10.7542 1.57841ZM14.2443 1.57841L13.9443 3.28466L14.1292 3.31728L14.4292 1.61066L14.2443 1.57841ZM9.85229 1.77641L9.67135 1.82534L9.91491 2.72553L10.0959 2.67659L9.85229 1.77641ZM15.1462 1.77641L14.9026 2.67641L15.0835 2.72553L15.3271 1.82553L15.1462 1.77641ZM8.98754 2.03197L8.81073 2.09497L9.39235 3.72622L9.56879 3.66303L8.98754 2.03197ZM16.0109 2.03197L15.4297 3.66322L15.6061 3.72603L16.1877 2.09497L16.0109 2.03197ZM16.8772 2.37922L16.4647 3.24191L16.6338 3.32253L17.0465 2.46003L16.8772 2.37922ZM8.12185 2.38053L7.9516 2.45853L8.34535 3.32103L8.5156 3.24341L8.12185 2.38053ZM7.31185 2.80428L7.14929 2.89766L8.01179 4.39766L8.17435 4.30428L7.31185 2.80428ZM17.6866 2.80428L16.8241 4.30428L16.9868 4.39766L17.8493 2.89766L17.6866 2.80428ZM6.51929 3.28428L6.36629 3.39247L6.91004 4.16141L7.06323 4.05303L6.51929 3.28428ZM18.4792 3.28428L17.9354 4.05303L18.0884 4.16141L18.6322 3.39247L18.4792 3.28428ZM5.80229 3.84078L5.65885 3.96153L6.7651 5.27403L6.90835 5.15328L5.80229 3.84078ZM19.1962 3.84078L18.0901 5.15328L18.2334 5.27403L19.3396 3.96153L19.1962 3.84078ZM5.10216 4.45259L4.97148 4.58703L5.64648 5.24328L5.77698 5.10884L5.10216 4.45259ZM4.47779 5.12272L4.35798 5.26672L5.68923 6.37297L5.80923 6.22859L4.47779 5.12272ZM20.5207 5.12272L19.1892 6.22878L19.3092 6.37316L20.6405 5.26672L20.5207 5.12272ZM3.90873 5.84891L3.80204 6.00322L4.58973 6.54697L4.69641 6.39247L3.90873 5.84891ZM21.0897 5.84891L20.3022 6.39247L20.4087 6.54697L21.1962 6.00322L21.0897 5.84891ZM3.41485 6.63209L3.32148 6.79466L4.82148 7.65716L4.91485 7.49459L3.41485 6.63209ZM21.584 6.63209L20.084 7.49459L20.1773 7.65716L21.6773 6.79466L21.584 6.63209ZM2.99523 7.43459L2.9161 7.60447L3.75985 7.99822L3.83898 7.82816L2.99523 7.43459ZM22.0036 7.43459L21.1598 7.82834L21.239 7.99803L22.0827 7.60428L22.0036 7.43459ZM2.63204 8.27516L2.56641 8.45084L4.17891 9.05122L4.24454 8.87534L2.63204 8.27516ZM22.3664 8.27516L20.7539 8.87534L20.8195 9.05122L22.432 8.45084L22.3664 8.27516ZM2.34198 9.15378L2.29398 9.33509L3.21273 9.57903L3.26091 9.39772L2.34198 9.15378ZM22.6565 9.15378L21.7377 9.39772L21.7855 9.57903L22.7043 9.33528L22.6565 9.15378ZM2.12823 10.0521L2.0956 10.2368L3.80185 10.537L3.83429 10.3521L2.12823 10.0521ZM22.8702 10.0521L21.164 10.3521L21.1968 10.537L22.903 10.2368L22.8702 10.0521ZM2.0086 10.9512L1.99023 11.1379L2.92773 11.2317L2.9461 11.0449L2.0086 10.9512ZM22.9902 10.9512L22.0527 11.0449L22.0711 11.2317L23.0086 11.1379L22.9902 10.9512ZM1.96191 11.8883V12.0758H3.68673V11.8883H1.96191ZM21.3117 11.8883V12.0758H23.0367V11.8883H21.3117ZM2.92754 12.7138L1.99004 12.8076L2.00841 12.994L2.94591 12.9002L2.92754 12.7138ZM22.0709 12.7138L22.0525 12.9002L22.99 12.994L23.0084 12.8076L22.0709 12.7138ZM3.80166 13.4085L2.09541 13.7085L2.12823 13.893L3.83448 13.593L3.80166 13.4085ZM21.1968 13.4085L21.1642 13.593L22.8704 13.893L22.9028 13.7083L21.1968 13.4085ZM3.21291 14.3667L2.29416 14.61L2.34198 14.7913L3.26073 14.5478L3.21291 14.3667ZM21.7855 14.3667L21.7375 14.5478L22.6563 14.7913L22.7045 14.61L21.7855 14.3667ZM4.17891 14.8943L2.56641 15.4941L2.63204 15.6698L4.24454 15.07L4.17891 14.8943ZM20.8195 14.8943L20.7539 15.07L22.3664 15.67L22.432 15.4941L20.8195 14.8943ZM3.75966 15.9471L2.91591 16.3408L2.99504 16.5107L3.83879 16.117L3.75966 15.9471ZM21.2388 15.9471L21.1597 16.117L22.0034 16.5107L22.0825 16.3407L21.2388 15.9471ZM4.82129 16.3071L3.32129 17.1696L3.41466 17.3322L4.91466 16.4697L4.82129 16.3071ZM20.1772 16.3071L20.0838 16.4697L21.5838 17.3322L21.6772 17.1694L20.1772 16.3071ZM4.58973 17.3987L3.80223 17.9425L3.90873 18.0968L4.69623 17.553L4.58973 17.3987ZM20.4087 17.3987L20.302 17.5528L21.0897 18.0966L21.1964 17.9425L20.4087 17.3987ZM5.68923 17.5723L4.35798 18.6786L4.47779 18.823L5.80923 17.7167L5.68923 17.5723ZM19.3092 17.5723L19.1892 17.7167L20.5207 18.823L20.6405 18.6786L19.3092 17.5723ZM6.7651 18.6717L5.65885 19.9842L5.80229 20.1051L6.90835 18.7926L6.7651 18.6717ZM18.2334 18.6717L18.0901 18.7926L19.1962 20.1051L19.3396 19.9842L18.2334 18.6717ZM19.3522 18.7024L19.2215 18.8368L19.8965 19.4931L20.027 19.3587L19.3522 18.7024ZM8.01216 19.566L7.14966 21.0473L7.31148 21.1418L8.17398 19.6605L8.01216 19.566ZM16.9865 19.566L16.8245 19.6605L17.687 21.1418L17.8488 21.0473L16.9865 19.566ZM6.91023 19.7843L6.36629 20.553L6.51929 20.6612L7.06304 19.8923L6.91023 19.7843ZM18.0884 19.7843L17.9352 19.8923L18.479 20.6612L18.6322 20.5528L18.0884 19.7843ZM9.39216 20.2193L8.81091 21.8505L8.98754 21.9133L9.56879 20.2823L9.39216 20.2193ZM15.6061 20.2193L15.4297 20.2823L16.0109 21.9135L16.1877 21.8503L15.6061 20.2193ZM10.8693 20.6284L10.5693 22.3347L10.7542 22.3671L11.0542 20.6608L10.8693 20.6284ZM14.1292 20.6284L13.9443 20.661L14.2443 22.3673L14.4292 22.3345L14.1292 20.6284ZM8.36504 20.6408L7.95235 21.4845L8.12073 21.567L8.5336 20.7233L8.36504 20.6408ZM16.6334 20.6408L16.4649 20.7233L16.8777 21.567L17.0461 21.4845L16.6334 20.6408ZM12.4055 20.7945V22.5195H12.593V20.7945H12.4055ZM9.91491 21.2205L9.67098 22.1393L9.85229 22.1873L10.096 21.2685L9.91491 21.2205ZM15.0835 21.2205L14.9022 21.2685L15.1462 22.1873L15.3275 22.1393L15.0835 21.2205ZM11.5621 21.5368L11.4871 22.4743L11.6739 22.4893L11.7489 21.5518L11.5621 21.5368ZM13.4364 21.5368L13.2496 21.5518L13.3246 22.4893L13.5114 22.4743L13.4364 21.5368Z" fill="white"/>
<path d="M20.5068 3.9375L11.5068 11.0063L12.4818 11.9813L20.5068 3.9375Z" fill="#FF0000"/>
<path d="M12.481 11.9812L13.606 13.1062L20.506 3.9375L12.481 11.9812Z" fill="#D01414"/>
<path d="M11.5063 11.0059L4.4375 20.0059L12.4813 11.9809L11.5063 11.0059Z" fill="white"/>
<path d="M4.4375 20.0055L13.6062 13.1055L12.4812 11.9805L4.4375 20.0055Z" fill="#ACACAC"/>
</g>
<defs>
<linearGradient id="paint0_linear_1328_23418" x1="12.5037" y1="0.2835" x2="12.5037" y2="23.7195" gradientUnits="userSpaceOnUse">
<stop stop-color="#19D7FF"/>
<stop offset="1" stop-color="#1E64F0"/>
</linearGradient>
<clipPath id="clip0_1328_23418">
<rect width="24" height="24" fill="white" transform="translate(0.5)"/>
</clipPath>
</defs>
</svg>
