<svg width="25" height="24" viewBox="0 0 25 24" fill="none" xmlns="http://www.w3.org/2000/svg">
<path d="M13.6979 18.5948C13.6869 18.4579 13.6803 18.3698 13.6803 18.3698C13.6803 18.3698 13.2667 15.5781 12.7736 14.7446C12.6959 14.6121 12.7816 14.0708 12.9999 13.2671C13.1274 13.4863 13.6636 14.4281 13.772 14.7315C13.8935 15.0735 13.9183 15.1716 13.9183 15.1716C13.9183 15.1716 13.6239 13.6562 13.1412 12.7721C13.2586 12.3781 13.3838 11.9864 13.517 11.5975C13.6994 11.9181 14.1382 12.696 14.2347 12.9662C14.2539 13.0211 14.2708 13.068 14.2854 13.1113C14.2897 13.0856 14.2948 13.06 14.2992 13.0337C14.1886 12.5642 13.9711 11.7475 13.6737 11.1433C14.3338 7.70683 16.5858 3.11383 18.8937 1.06445H3.83544C2.82537 1.06445 2 1.89058 2 2.89989V19.5068C2 20.5161 2.82612 21.3422 3.83562 21.3422H13.7538C13.6787 20.4285 13.6601 19.511 13.6981 18.595" fill="#0B7FCC"/>
<path d="M13.0009 13.267C13.1284 13.486 13.6646 14.4272 13.7728 14.7312C13.8945 15.0732 13.9193 15.1712 13.9193 15.1712C13.9193 15.1712 13.6249 13.6559 13.1423 12.7718C13.2597 12.3775 13.3849 11.9855 13.518 11.5962C13.6843 11.89 14.0659 12.5654 14.2028 12.8847L14.2181 12.7045C14.0966 12.2365 13.9119 11.6234 13.6748 11.143C14.2826 7.97967 16.2398 3.83611 18.3484 1.59961H3.83626C3.49157 1.59991 3.16108 1.73695 2.91733 1.98067C2.67358 2.22439 2.53648 2.55486 2.53613 2.89955V18.2952C5.82245 17.0331 9.78563 15.8802 13.1964 15.93C13.0704 15.4416 12.9263 15 12.7746 14.7443C12.6969 14.6117 12.7826 14.0699 13.0009 13.267Z" fill="url(#paint0_linear_1328_23443)"/>
<path d="M22.4073 0.521302C21.3761 -0.398573 20.1266 -0.0286358 18.8947 1.06486C18.7044 1.23507 18.5221 1.41395 18.3483 1.60093C16.2389 3.83705 14.2826 7.98024 13.6747 11.1437C13.9113 11.6243 14.0966 12.2372 14.2173 12.7052C14.2488 12.8252 14.2773 12.9381 14.3002 13.0341C14.3536 13.2604 14.3821 13.4084 14.3821 13.4084C14.3821 13.4084 14.3632 13.3366 14.2856 13.1117C14.2709 13.0686 14.2541 13.021 14.2349 12.9668C14.225 12.9394 14.2143 12.9122 14.2027 12.8854C14.0651 12.5661 13.6843 11.8907 13.5172 11.5979C13.3743 12.0197 13.2478 12.4154 13.1414 12.7726C13.6248 13.6566 13.9194 15.172 13.9194 15.172C13.9194 15.172 13.8937 15.0739 13.7728 14.7319C13.6644 14.428 13.1276 13.4869 13.0008 13.2677C12.7826 14.0704 12.6961 14.6125 12.7745 14.7452C12.9262 15.0006 13.0696 15.4431 13.1964 15.9308C13.4821 17.0309 13.6813 18.3706 13.6813 18.3706C13.6813 18.3706 13.6871 18.4585 13.6989 18.5956C13.6608 19.5115 13.6794 20.4289 13.7546 21.3426C13.8491 22.4882 14.027 23.4732 14.2541 23.9999L14.4093 23.9157C14.0754 22.8779 13.9398 21.517 13.9991 19.9489C14.0891 17.5502 14.6407 14.6586 15.6596 11.6447C17.3829 7.09411 19.7729 3.44386 21.9599 1.70068C19.9663 3.50105 17.2681 9.32893 16.4602 11.4872C15.5564 13.9043 14.9156 16.1717 14.5288 18.3449C15.1944 16.3081 17.3501 15.433 17.3501 15.433C17.3501 15.433 18.407 14.1284 19.6426 12.2665C18.902 12.4358 17.687 12.7244 17.2805 12.895C16.6805 13.147 16.5179 13.2325 16.5179 13.2325C16.5179 13.2325 18.4625 12.049 20.1311 11.5129C22.4249 7.8998 24.9239 2.76643 22.4075 0.521489" fill="#003956"/>
<defs>
<linearGradient id="paint0_linear_1328_23443" x1="11.6533" y1="1.93977" x2="11.6533" y2="17.3659" gradientUnits="userSpaceOnUse">
<stop stop-color="#95D7F4"/>
<stop offset="0.92" stop-color="#0F7FCC"/>
<stop offset="1" stop-color="#0F7FCC"/>
</linearGradient>
</defs>
</svg>
