<svg width="20" height="19" viewBox="0 0 20 19" fill="none" xmlns="http://www.w3.org/2000/svg">
<path d="M2.75 14L2.35 13.65C1.48334 12.8833 0.875004 12.0083 0.525004 11.025C0.175004 10.0417 3.46021e-06 9.05 3.46021e-06 8.05C3.46021e-06 6.48334 0.39567 5.06234 1.187 3.787C1.97834 2.51167 3.04934 1.53267 4.4 0.850003C4.63334 0.71667 4.88334 0.708337 5.15 0.825003C5.41667 0.94167 5.59167 1.13334 5.675 1.4C5.75834 1.65 5.754 1.9 5.662 2.15C5.57 2.4 5.40767 2.59167 5.175 2.725C4.20834 3.25834 3.43734 3.996 2.862 4.938C2.28667 5.88 1.99934 6.91734 2 8.05C2 8.8 2.14167 9.52934 2.425 10.238C2.70834 10.9467 3.15 11.6007 3.75 12.2L4 12.45V11C4 10.7167 4.096 10.479 4.288 10.287C4.48 10.095 4.71734 9.99934 5 10C5.28334 10 5.521 10.096 5.713 10.288C5.905 10.48 6.00067 10.7173 6 11V15C6 15.2833 5.904 15.521 5.712 15.713C5.52 15.905 5.28267 16.0007 5 16H1C0.71667 16 0.479003 15.904 0.287003 15.712C0.0950034 15.52 -0.000663206 15.2827 3.46021e-06 15C3.46021e-06 14.7167 0.0960036 14.479 0.288004 14.287C0.480004 14.095 0.717337 13.9993 1 14H2.75ZM14 3.55V5C14 5.28334 13.904 5.521 13.712 5.713C13.52 5.905 13.2827 6.00067 13 6C12.7167 6 12.479 5.904 12.287 5.712C12.095 5.52 11.9993 5.28267 12 5V1C12 0.71667 12.096 0.479004 12.288 0.287004C12.48 0.0950036 12.7173 -0.000663206 13 3.4602e-06H17C17.2833 3.4602e-06 17.521 0.0960036 17.713 0.288004C17.905 0.480004 18.0007 0.717337 18 1C18 1.28334 17.904 1.521 17.712 1.713C17.52 1.905 17.2827 2.00067 17 2H15.25L15.65 2.35C16.3333 3.05 16.8583 3.79167 17.225 4.575C17.5917 5.35834 17.825 6.16667 17.925 7H15.9C15.8167 6.41667 15.6377 5.85834 15.363 5.325C15.0883 4.79167 14.7173 4.28334 14.25 3.8L14 3.55ZM14.4 19C14.2667 19 14.1623 18.9623 14.087 18.887C14.0117 18.8117 13.9577 18.716 13.925 18.6L13.7 17.5C13.5 17.4167 13.3123 17.329 13.137 17.237C12.9617 17.145 12.7827 17.0327 12.6 16.9L11.525 17.225C11.4083 17.2583 11.3 17.254 11.2 17.212C11.1 17.17 11.0167 17.0993 10.95 17L10.35 16C10.2833 15.9 10.2667 15.7917 10.3 15.675C10.3333 15.5583 10.3917 15.4583 10.475 15.375L11.3 14.65C11.2667 14.4167 11.25 14.2 11.25 14C11.25 13.8 11.2667 13.5833 11.3 13.35L10.475 12.625C10.3917 12.5417 10.3333 12.4417 10.3 12.325C10.2667 12.2083 10.2833 12.1 10.35 12L10.95 11C11.0167 10.9 11.1 10.8293 11.2 10.788C11.3 10.7467 11.4083 10.7423 11.525 10.775L12.6 11.1C12.7833 10.9667 12.9627 10.8543 13.138 10.763C13.3133 10.6717 13.5007 10.584 13.7 10.5L13.925 9.4C13.9583 9.28334 14.0127 9.18734 14.088 9.112C14.1633 9.03667 14.2673 8.99934 14.4 9H15.6C15.7333 9 15.8377 9.03767 15.913 9.113C15.9883 9.18834 16.0423 9.284 16.075 9.4L16.3 10.5C16.5 10.5833 16.6877 10.675 16.863 10.775C17.0383 10.875 17.2173 11 17.4 11.15L18.45 10.775C18.5667 10.7417 18.6793 10.746 18.788 10.788C18.8967 10.83 18.984 10.9007 19.05 11L19.65 12.05C19.7167 12.15 19.7377 12.2583 19.713 12.375C19.6883 12.4917 19.634 12.5917 19.55 12.675L18.7 13.4C18.7333 13.6 18.75 13.8083 18.75 14.025C18.75 14.2417 18.7333 14.45 18.7 14.65L19.525 15.375C19.6083 15.4583 19.6667 15.5583 19.7 15.675C19.7333 15.7917 19.7167 15.9 19.65 16L19.05 17C18.9833 17.1 18.9 17.171 18.8 17.213C18.7 17.255 18.5917 17.259 18.475 17.225L17.4 16.9C17.2167 17.0333 17.0377 17.146 16.863 17.238C16.6883 17.33 16.5007 17.4173 16.3 17.5L16.075 18.6C16.0417 18.7167 15.9873 18.8127 15.912 18.888C15.8367 18.9633 15.7327 19.0007 15.6 19H14.4ZM15 16C15.55 16 16.021 15.804 16.413 15.412C16.805 15.02 17.0007 14.5493 17 14C17 13.45 16.804 12.979 16.412 12.587C16.02 12.195 15.5493 11.9993 15 12C14.45 12 13.979 12.196 13.587 12.588C13.195 12.98 12.9993 13.4507 13 14C13 14.55 13.196 15.021 13.588 15.413C13.98 15.805 14.4507 16.0007 15 16Z" fill="url(#paint0_linear_1401_4451)"/>
<defs>
<linearGradient id="paint0_linear_1401_4451" x1="-1.55708" y1="-4.25521" x2="20.1508" y2="17.3268" gradientUnits="userSpaceOnUse">
<stop offset="0.0633718" stop-color="#3619AB"/>
<stop offset="0.517512" stop-color="#2272BB"/>
<stop offset="1" stop-color="#00814B"/>
</linearGradient>
</defs>
</svg>
