<svg width="20" height="20" viewBox="0 0 20 20" fill="none" xmlns="http://www.w3.org/2000/svg">
<path d="M7.85 11.75L7.95 12.55C7.96667 12.6833 8.021 12.7917 8.113 12.875C8.205 12.9583 8.31733 13 8.45 13H9.55C9.68333 13 9.796 12.9583 9.888 12.875C9.98 12.7917 10.034 12.6833 10.05 12.55L10.15 11.75C10.2833 11.7 10.4043 11.6417 10.513 11.575C10.6217 11.5083 10.7173 11.4333 10.8 11.35L11.55 11.675C11.6667 11.725 11.7833 11.7333 11.9 11.7C12.0167 11.6667 12.1083 11.5917 12.175 11.475L12.725 10.525C12.7917 10.4083 12.8127 10.2917 12.788 10.175C12.7633 10.0583 12.7007 9.95833 12.6 9.875L11.95 9.4C11.9833 9.26667 12 9.13333 12 9C12 8.86667 11.9833 8.73333 11.95 8.6L12.6 8.125C12.7 8.04167 12.7627 7.94167 12.788 7.825C12.8133 7.70833 12.7923 7.59167 12.725 7.475L12.175 6.525C12.1083 6.40833 12.0167 6.33333 11.9 6.3C11.7833 6.26667 11.6667 6.275 11.55 6.325L10.8 6.65C10.7167 6.56667 10.6207 6.49167 10.512 6.425C10.4033 6.35833 10.2827 6.3 10.15 6.25L10.05 5.45C10.0333 5.31667 9.979 5.20833 9.887 5.125C9.795 5.04167 9.68267 5 9.55 5H8.45C8.31667 5 8.20433 5.04167 8.113 5.125C8.02167 5.20833 7.96733 5.31667 7.95 5.45L7.85 6.25C7.71667 6.3 7.596 6.35833 7.488 6.425C7.38 6.49167 7.284 6.56667 7.2 6.65L6.45 6.325C6.33333 6.275 6.21667 6.26667 6.1 6.3C5.98333 6.33333 5.89167 6.40833 5.825 6.525L5.275 7.475C5.20833 7.59167 5.18733 7.70833 5.212 7.825C5.23667 7.94167 5.29933 8.04167 5.4 8.125L6.05 8.6C6.01667 8.73333 6 8.86667 6 9C6 9.13333 6.01667 9.26667 6.05 9.4L5.4 9.875C5.3 9.95833 5.23733 10.0583 5.212 10.175C5.18667 10.2917 5.20767 10.4083 5.275 10.525L5.825 11.475C5.89167 11.5917 5.98333 11.6667 6.1 11.7C6.21667 11.7333 6.33333 11.725 6.45 11.675L7.2 11.35C7.28333 11.4333 7.37933 11.5083 7.488 11.575C7.59667 11.6417 7.71733 11.7 7.85 11.75ZM9 10.5C8.58333 10.5 8.22933 10.354 7.938 10.062C7.64667 9.77 7.50067 9.416 7.5 9C7.5 8.58333 7.646 8.229 7.938 7.937C8.23 7.645 8.584 7.49933 9 7.5C9.41667 7.5 9.771 7.646 10.063 7.938C10.355 8.23 10.5007 8.584 10.5 9C10.5 9.41667 10.354 9.771 10.062 10.063C9.77 10.355 9.416 10.5007 9 10.5ZM3 15.7C2.05 14.8333 1.31267 13.8207 0.788 12.662C0.263333 11.5033 0.000666667 10.2827 0 9C0 6.5 0.875 4.375 2.625 2.625C4.375 0.875 6.5 0 9 0C11.0833 0 12.9293 0.612667 14.538 1.838C16.1467 3.06333 17.1923 4.659 17.675 6.625L18.975 11.75C19.0583 12.0667 19 12.3543 18.8 12.613C18.6 12.8717 18.3333 13.0007 18 13H16V16C16 16.55 15.804 17.021 15.412 17.413C15.02 17.805 14.5493 18.0007 14 18H12V19C12 19.2833 11.904 19.521 11.712 19.713C11.52 19.905 11.2827 20.0007 11 20C10.7167 20 10.479 19.904 10.287 19.712C10.095 19.52 9.99933 19.2827 10 19V17C10 16.7167 10.096 16.479 10.288 16.287C10.48 16.095 10.7173 15.9993 11 16H14V12C14 11.7167 14.096 11.479 14.288 11.287C14.48 11.095 14.7173 10.9993 15 11H16.7L15.75 7.125C15.3667 5.60833 14.55 4.375 13.3 3.425C12.05 2.475 10.6167 2 9 2C7.06667 2 5.41667 2.675 4.05 4.025C2.68333 5.375 2 7.01667 2 8.95C2 9.95 2.20433 10.9 2.613 11.8C3.02167 12.7 3.60067 13.5 4.35 14.2L5 14.8V19C5 19.2833 4.904 19.521 4.712 19.713C4.52 19.905 4.28267 20.0007 4 20C3.71667 20 3.479 19.904 3.287 19.712C3.095 19.52 2.99933 19.2827 3 19V15.7Z" fill="url(#paint0_linear_1401_4458)"/>
<defs>
<linearGradient id="paint0_linear_1401_4458" x1="-1.50093" y1="-4.47917" x2="21.2496" y2="16.2337" gradientUnits="userSpaceOnUse">
<stop offset="0.0633718" stop-color="#3619AB"/>
<stop offset="0.517512" stop-color="#2272BB"/>
<stop offset="1" stop-color="#00814B"/>
</linearGradient>
</defs>
</svg>
