<svg width="22" height="16" viewBox="0 0 22 16" fill="none" xmlns="http://www.w3.org/2000/svg">
<path d="M0.999027 16C0.715694 16 0.478027 15.904 0.286027 15.712C0.0940268 15.52 -0.00163977 15.2827 -0.000973102 15V13.2C-0.000973102 12.6334 0.145027 12.1124 0.437027 11.637C0.729027 11.1617 1.11636 10.7994 1.59903 10.55C2.63236 10.0334 3.68236 9.64569 4.74903 9.38703C5.81569 9.12836 6.89903 8.99936 7.99903 9.00003C9.09903 9.00003 10.1824 9.12936 11.249 9.38803C12.3157 9.64669 13.3657 10.034 14.399 10.55C14.8824 10.8 15.27 11.1627 15.562 11.638C15.854 12.1134 15.9997 12.634 15.999 13.2V15C15.999 15.2834 15.903 15.521 15.711 15.713C15.519 15.905 15.2817 16.0007 14.999 16H0.999027ZM17.524 16C17.674 15.8834 17.7907 15.7374 17.874 15.562C17.9574 15.3867 17.999 15.191 17.999 14.975V13C17.999 12.2667 17.795 11.5624 17.387 10.887C16.979 10.2117 16.3997 9.63269 15.649 9.15003C16.499 9.25003 17.299 9.42103 18.049 9.66303C18.799 9.90503 19.499 10.2007 20.149 10.55C20.749 10.8834 21.2074 11.254 21.524 11.662C21.8407 12.07 21.999 12.516 21.999 13V15C21.999 15.2834 21.9034 15.521 21.712 15.713C21.5207 15.905 21.283 16.0007 20.999 16H17.524ZM7.99903 8.00003C6.89903 8.00003 5.95736 7.60836 5.17403 6.82503C4.39069 6.04169 3.99903 5.10003 3.99903 4.00003C3.99903 2.90003 4.39069 1.95836 5.17403 1.17503C5.95736 0.391692 6.89903 2.56407e-05 7.99903 2.56407e-05C9.09903 2.56407e-05 10.0407 0.391692 10.824 1.17503C11.6074 1.95836 11.999 2.90003 11.999 4.00003C11.999 5.10003 11.6074 6.04169 10.824 6.82503C10.0407 7.60836 9.09903 8.00003 7.99903 8.00003ZM17.999 4.00003C17.999 5.10003 17.6074 6.04169 16.824 6.82503C16.0407 7.60836 15.099 8.00003 13.999 8.00003C13.8157 8.00003 13.5824 7.97903 13.299 7.93703C13.0157 7.89503 12.7824 7.84936 12.599 7.80003C13.049 7.26669 13.395 6.67503 13.637 6.02503C13.879 5.37503 13.9997 4.70003 13.999 4.00003C13.999 3.30003 13.8784 2.62503 13.637 1.97503C13.3957 1.32503 13.0497 0.733359 12.599 0.200025C12.8324 0.116692 13.0657 0.0623592 13.299 0.0370258C13.5324 0.0116925 13.7657 -0.000641026 13.999 2.56407e-05C15.099 2.56407e-05 16.0407 0.391692 16.824 1.17503C17.6074 1.95836 17.999 2.90003 17.999 4.00003ZM1.99903 14H13.999V13.2C13.999 13.0167 13.953 12.85 13.861 12.7C13.769 12.55 13.6484 12.4334 13.499 12.35C12.599 11.9 11.6907 11.5627 10.774 11.338C9.85736 11.1134 8.93236 11.0007 7.99903 11C7.06569 11 6.14069 11.1127 5.22403 11.338C4.30736 11.5634 3.39903 11.9007 2.49903 12.35C2.34903 12.4334 2.22803 12.55 2.13603 12.7C2.04403 12.85 1.99836 13.0167 1.99903 13.2V14ZM7.99903 6.00003C8.54903 6.00003 9.02003 5.80403 9.41203 5.41203C9.80403 5.02003 9.99969 4.54936 9.99903 4.00003C9.99903 3.45003 9.80303 2.97903 9.41103 2.58703C9.01903 2.19503 8.54836 1.99936 7.99903 2.00003C7.44903 2.00003 6.97803 2.19603 6.58603 2.58803C6.19403 2.98003 5.99836 3.45069 5.99903 4.00003C5.99903 4.55003 6.19503 5.02103 6.58703 5.41303C6.97903 5.80503 7.44969 6.00069 7.99903 6.00003Z" fill="url(#paint0_linear_1401_4465)"/>
<defs>
<linearGradient id="paint0_linear_1401_4465" x1="-1.73782" y1="-3.58334" x2="15.8714" y2="19.6064" gradientUnits="userSpaceOnUse">
<stop offset="0.0633718" stop-color="#3619AB"/>
<stop offset="0.517512" stop-color="#2272BB"/>
<stop offset="1" stop-color="#00814B"/>
</linearGradient>
</defs>
</svg>
