<svg width="11" height="19" viewBox="0 0 11 19" fill="none" xmlns="http://www.w3.org/2000/svg">
<path d="M5.02398 13C4.62398 13 4.28664 12.8583 4.01198 12.575C3.73731 12.2917 3.61631 11.9583 3.64898 11.575C3.69898 10.875 3.86564 10.2667 4.14898 9.75C4.43231 9.23333 4.88231 8.7 5.49898 8.15C6.18231 7.55 6.70331 7.029 7.06198 6.587C7.42064 6.145 7.59964 5.641 7.59898 5.075C7.59898 4.39167 7.36998 3.825 6.91198 3.375C6.45398 2.925 5.81631 2.7 4.99898 2.7C4.46564 2.7 4.01131 2.81267 3.63598 3.038C3.26064 3.26333 2.95664 3.54233 2.72398 3.875C2.49064 4.20833 2.20331 4.43333 1.86198 4.55C1.52064 4.66667 1.19131 4.65833 0.873977 4.525C0.490643 4.35833 0.22831 4.08333 0.0869763 3.7C-0.054357 3.31667 -0.0253566 2.95833 0.173977 2.625C0.65731 1.875 1.30731 1.25 2.12398 0.75C2.94064 0.25 3.89898 0 4.99898 0C6.74898 0 8.09498 0.487333 9.03698 1.462C9.97898 2.43667 10.4496 3.60767 10.449 4.975C10.449 5.80833 10.27 6.521 9.91198 7.113C9.55398 7.705 8.99131 8.37567 8.22398 9.125C7.65731 9.65833 7.25731 10.0917 7.02398 10.425C6.79064 10.7583 6.63231 11.1417 6.54898 11.575C6.48231 11.9917 6.30731 12.3333 6.02398 12.6C5.74064 12.8667 5.40731 13 5.02398 13ZM4.99898 19C4.44898 19 3.97798 18.804 3.58598 18.412C3.19398 18.02 2.99831 17.5493 2.99898 17C2.99898 16.45 3.19498 15.979 3.58698 15.587C3.97898 15.195 4.44964 14.9993 4.99898 15C5.54898 15 6.01998 15.196 6.41198 15.588C6.80398 15.98 6.99964 16.4507 6.99898 17C6.99898 17.55 6.80298 18.021 6.41098 18.413C6.01898 18.805 5.54831 19.0007 4.99898 19Z" fill="url(#paint0_linear_1401_4472)"/>
<defs>
<linearGradient id="paint0_linear_1401_4472" x1="-0.825973" y1="-4.25521" x2="17.0767" y2="5.17525" gradientUnits="userSpaceOnUse">
<stop offset="0.0633718" stop-color="#3619AB"/>
<stop offset="0.517512" stop-color="#2272BB"/>
<stop offset="1" stop-color="#00814B"/>
</linearGradient>
</defs>
</svg>
