<svg width="18" height="18" viewBox="0 0 18 18" fill="none" xmlns="http://www.w3.org/2000/svg">
<path d="M5.85033 14.0747L9.00033 12.1747L12.1503 14.0997L11.3253 10.4997L14.1003 8.09971L10.4503 7.77471L9.00033 4.37471L7.55033 7.74971L3.90033 8.07471L6.67533 10.4997L5.85033 14.0747ZM9.00033 14.5247L4.85033 17.0247C4.667 17.1414 4.47533 17.1914 4.27533 17.1747C4.07533 17.158 3.90033 17.0914 3.75033 16.9747C3.60033 16.858 3.48366 16.712 3.40033 16.5367C3.317 16.3614 3.30033 16.1657 3.35033 15.9497L4.45033 11.2247L0.775329 8.04971C0.608662 7.89971 0.504662 7.72871 0.463329 7.53671C0.421996 7.34471 0.434329 7.15737 0.500329 6.97471C0.566996 6.79137 0.666995 6.64137 0.800329 6.52471C0.933662 6.40804 1.117 6.33304 1.35033 6.29971L6.20033 5.87471L8.07533 1.42471C8.15866 1.22471 8.288 1.07471 8.46333 0.974707C8.63866 0.874707 8.81766 0.824707 9.00033 0.824707C9.18366 0.824707 9.36266 0.874707 9.53733 0.974707C9.712 1.07471 9.84133 1.22471 9.92533 1.42471L11.8003 5.87471L16.6503 6.29971C16.8837 6.33304 17.067 6.40804 17.2003 6.52471C17.3337 6.64137 17.4337 6.79137 17.5003 6.97471C17.567 7.15804 17.5797 7.34571 17.5383 7.53771C17.497 7.72971 17.3927 7.90037 17.2253 8.04971L13.5503 11.2247L14.6503 15.9497C14.7003 16.1664 14.6837 16.3624 14.6003 16.5377C14.517 16.713 14.4003 16.8587 14.2503 16.9747C14.1003 17.0914 13.9253 17.158 13.7253 17.1747C13.5253 17.1914 13.3337 17.1414 13.1503 17.0247L9.00033 14.5247Z" fill="url(#paint0_linear_1401_4479)"/>
<defs>
<linearGradient id="paint0_linear_1401_4479" x1="-0.912332" y1="-2.83771" x2="17.7717" y2="15.8991" gradientUnits="userSpaceOnUse">
<stop offset="0.0633718" stop-color="#3619AB"/>
<stop offset="0.517512" stop-color="#2272BB"/>
<stop offset="1" stop-color="#00814B"/>
</linearGradient>
</defs>
</svg>
