<svg width="16" height="20" viewBox="0 0 16 20" fill="none" xmlns="http://www.w3.org/2000/svg">
<path d="M8 20C7.45 20 6.979 19.804 6.587 19.412C6.195 19.02 5.99933 18.5493 6 18H10C10 18.55 9.804 19.021 9.412 19.413C9.02 19.805 8.54933 20.0007 8 20ZM5 17C4.71667 17 4.479 16.904 4.287 16.712C4.095 16.52 3.99933 16.2827 4 16C4 15.7167 4.096 15.479 4.288 15.287C4.48 15.095 4.71733 14.9993 5 15H11C11.2833 15 11.521 15.096 11.713 15.288C11.905 15.48 12.0007 15.7173 12 16C12 16.2833 11.904 16.521 11.712 16.713C11.52 16.905 11.2827 17.0007 11 17H5ZM4.25 14C3.1 13.3167 2.18733 12.4 1.512 11.25C0.836668 10.1 0.499334 8.85 0.500001 7.5C0.500001 5.41667 1.22933 3.64567 2.688 2.187C4.14667 0.728334 5.91733 -0.00066621 8 4.5683e-07C10.0833 4.5683e-07 11.8543 0.729334 13.313 2.188C14.7717 3.64667 15.5007 5.41733 15.5 7.5C15.5 8.85 15.1627 10.1 14.488 11.25C13.8133 12.4 12.9007 13.3167 11.75 14H4.25ZM4.85 12H11.15C11.9 11.4667 12.4793 10.8083 12.888 10.025C13.2967 9.24167 13.5007 8.4 13.5 7.5C13.5 5.96667 12.9667 4.66667 11.9 3.6C10.8333 2.53333 9.53333 2 8 2C6.46667 2 5.16667 2.53333 4.1 3.6C3.03333 4.66667 2.5 5.96667 2.5 7.5C2.5 8.4 2.70433 9.24167 3.113 10.025C3.52167 10.8083 4.10067 11.4667 4.85 12Z" fill="url(#paint0_linear_1401_4486)"/>
<defs>
<linearGradient id="paint0_linear_1401_4486" x1="-0.684211" y1="-4.47917" x2="20.9706" y2="11.0759" gradientUnits="userSpaceOnUse">
<stop offset="0.0633718" stop-color="#3619AB"/>
<stop offset="0.517512" stop-color="#2272BB"/>
<stop offset="1" stop-color="#00814B"/>
</linearGradient>
</defs>
</svg>
