<svg width="20" height="20" viewBox="0 0 20 20" fill="none" xmlns="http://www.w3.org/2000/svg">
<path d="M7.99952 13C7.71618 13 7.47851 12.904 7.28651 12.712C7.09451 12.52 6.99885 12.2827 6.99952 12V8C6.99952 7.71667 7.09552 7.479 7.28752 7.287C7.47952 7.095 7.71685 6.99934 7.99952 7H11.9995C12.2828 7 12.5205 7.096 12.7125 7.288C12.9045 7.48 13.0002 7.71734 12.9995 8V12C12.9995 12.2833 12.9035 12.521 12.7115 12.713C12.5195 12.905 12.2822 13.0007 11.9995 13H7.99952ZM7.99952 20C7.71618 20 7.47851 19.904 7.28651 19.712C7.09451 19.52 6.99885 19.2827 6.99952 19V17H4.99952C4.44952 17 3.97852 16.804 3.58652 16.412C3.19452 16.02 2.99885 15.5493 2.99952 15V13H1.99952C1.71618 13 1.47852 12.904 1.28652 12.712C1.09452 12.52 0.998849 12.2827 0.999515 12C0.999515 11.7167 1.09552 11.479 1.28752 11.287C1.47952 11.095 1.71685 10.9993 1.99952 11H2.99952V9H0.999515C0.716182 9 0.478515 8.904 0.286515 8.712C0.0945151 8.52 -0.00115149 8.28267 -0.000484821 8C-0.000484821 7.71667 0.0955153 7.479 0.287515 7.287C0.479515 7.095 0.716849 6.99934 0.999515 7H2.99952V5C2.99952 4.45 3.19552 3.979 3.58752 3.587C3.97952 3.195 4.45018 2.99934 4.99952 3H6.99952V2C6.99952 1.71667 7.09552 1.479 7.28752 1.287C7.47952 1.095 7.71685 0.999337 7.99952 1C8.28285 1 8.52052 1.096 8.71252 1.288C8.90452 1.48 9.00018 1.71734 8.99952 2V3H10.9995V1C10.9995 0.71667 11.0955 0.479003 11.2875 0.287003C11.4795 0.0950034 11.7168 -0.000663206 11.9995 3.46021e-06C12.2828 3.46021e-06 12.5205 0.0960036 12.7125 0.288004C12.9045 0.480004 13.0002 0.717337 12.9995 1V3H14.9995C15.5495 3 16.0205 3.196 16.4125 3.588C16.8045 3.98 17.0002 4.45067 16.9995 5V7H17.9995C18.2828 7 18.5205 7.096 18.7125 7.288C18.9045 7.48 19.0002 7.71734 18.9995 8C18.9995 8.28334 18.9035 8.521 18.7115 8.713C18.5195 8.905 18.2822 9.00067 17.9995 9H16.9995V11H18.9995C19.2828 11 19.5205 11.096 19.7125 11.288C19.9045 11.48 20.0002 11.7173 19.9995 12C19.9995 12.2833 19.9035 12.521 19.7115 12.713C19.5195 12.905 19.2822 13.0007 18.9995 13H16.9995V15C16.9995 15.55 16.8035 16.021 16.4115 16.413C16.0195 16.805 15.5488 17.0007 14.9995 17H12.9995V18C12.9995 18.2833 12.9035 18.521 12.7115 18.713C12.5195 18.905 12.2822 19.0007 11.9995 19C11.7162 19 11.4785 18.904 11.2865 18.712C11.0945 18.52 10.9988 18.2827 10.9995 18V17H8.99952V19C8.99952 19.2833 8.90352 19.521 8.71152 19.713C8.51952 19.905 8.28218 20.0007 7.99952 20ZM4.99952 15H14.9995V5H4.99952V15ZM8.99952 11H10.9995V9H8.99952V11Z" fill="url(#paint0_linear_1401_4493)"/>
<defs>
<linearGradient id="paint0_linear_1401_4493" x1="-1.57944" y1="-4.47917" x2="21.2501" y2="17.386" gradientUnits="userSpaceOnUse">
<stop offset="0.0633718" stop-color="#3619AB"/>
<stop offset="0.517512" stop-color="#2272BB"/>
<stop offset="1" stop-color="#00814B"/>
</linearGradient>
</defs>
</svg>
