<svg width="16" height="11" viewBox="0 0 16 11" fill="none" xmlns="http://www.w3.org/2000/svg">
<path d="M10.999 5H13.999V2H10.999V5ZM1.99903 5H4.99903V2H1.99903V5ZM13.174 11C12.674 11 12.2907 10.7873 12.024 10.362C11.7574 9.93667 11.7407 9.49934 11.974 9.05L12.999 7H10.999C10.449 7 9.97803 6.804 9.58603 6.412C9.19403 6.02 8.99836 5.54934 8.99903 5V2C8.99903 1.45 9.19503 0.979002 9.58703 0.587002C9.97903 0.195002 10.4497 -0.000664969 10.999 1.69779e-06H13.999C14.549 1.69779e-06 15.02 0.196001 15.412 0.588001C15.804 0.980001 15.9997 1.45067 15.999 2V6.525C15.999 6.675 15.9864 6.82934 15.961 6.988C15.9357 7.14667 15.8817 7.29234 15.799 7.425L14.374 10.25C14.2574 10.4833 14.0907 10.6667 13.874 10.8C13.6574 10.9333 13.424 11 13.174 11ZM4.17403 11C3.67403 11 3.29069 10.7873 3.02403 10.362C2.75736 9.93667 2.74069 9.49934 2.97403 9.05L3.99903 7H1.99903C1.44903 7 0.978025 6.804 0.586025 6.412C0.194025 6.02 -0.00164153 5.54934 -0.000974865 5V2C-0.000974865 1.45 0.195025 0.979002 0.587025 0.587002C0.979025 0.195002 1.44969 -0.000664969 1.99903 1.69779e-06H4.99903C5.54903 1.69779e-06 6.02003 0.196001 6.41203 0.588001C6.80403 0.980001 6.99969 1.45067 6.99903 2V6.525C6.99903 6.675 6.98636 6.82934 6.96103 6.988C6.93569 7.14667 6.88169 7.29234 6.79903 7.425L5.37403 10.25C5.25736 10.4833 5.09069 10.6667 4.87403 10.8C4.65736 10.9333 4.42403 11 4.17403 11Z" fill="url(#paint0_linear_1401_4500)"/>
<defs>
<linearGradient id="paint0_linear_1401_4500" x1="-1.26413" y1="-2.46354" x2="10.6434" y2="14.1248" gradientUnits="userSpaceOnUse">
<stop offset="0.0633718" stop-color="#3619AB"/>
<stop offset="0.517512" stop-color="#2272BB"/>
<stop offset="1" stop-color="#00814B"/>
</linearGradient>
</defs>
</svg>
