<svg width="20" height="20" viewBox="0 0 20 20" fill="none" xmlns="http://www.w3.org/2000/svg">
<path d="M10 16.3123C9.88891 16.3123 9.78474 16.2948 9.68752 16.2598C9.5903 16.2254 9.50002 16.1665 9.41669 16.0831L3.91669 10.5831C3.75002 10.4165 3.66669 10.2184 3.66669 9.98896C3.66669 9.76008 3.75002 9.5623 3.91669 9.39563C4.08335 9.22896 4.2778 9.14563 4.50002 9.14563C4.72224 9.14563 4.91669 9.22896 5.08335 9.39563L9.16669 13.479V4.14563C9.16669 3.90952 9.24669 3.71507 9.40669 3.5623C9.56613 3.40952 9.76391 3.33313 10 3.33313C10.2361 3.33313 10.4342 3.41285 10.5942 3.5723C10.7536 3.7323 10.8334 3.93035 10.8334 4.16646V13.479L14.9167 9.39563C15.0834 9.22896 15.2778 9.14563 15.5 9.14563C15.7222 9.14563 15.9167 9.22896 16.0834 9.39563C16.25 9.5623 16.3334 9.76008 16.3334 9.98896C16.3334 10.2184 16.25 10.4165 16.0834 10.5831L10.5834 16.0831C10.5 16.1665 10.4097 16.2254 10.3125 16.2598C10.2153 16.2948 10.1111 16.3123 10 16.3123Z" fill="#D5DCE2"/>
</svg>
