<svg width="16" height="16" viewBox="0 0 16 16" fill="none" xmlns="http://www.w3.org/2000/svg">
<path d="M8.00039 0C7.86706 0 7.74206 0.0210016 7.62539 0.0630016C7.50872 0.104335 7.40039 0.175002 7.30039 0.275002L0.70039 6.875C0.50039 7.075 0.400391 7.31267 0.400391 7.588C0.400391 7.86267 0.50039 8.1 0.70039 8.3C0.90039 8.5 1.13372 8.6 1.40039 8.6C1.66706 8.6 1.90039 8.5 2.10039 8.3L7.00039 3.4V14.6C7.00039 14.8833 7.09639 15.1167 7.28839 15.3C7.47972 15.4833 7.71706 15.575 8.00039 15.575C8.28372 15.575 8.52139 15.4793 8.71339 15.288C8.90472 15.096 9.00039 14.8583 9.00039 14.575V3.4L13.9004 8.3C14.1004 8.5 14.3337 8.6 14.6004 8.6C14.8671 8.6 15.1004 8.5 15.3004 8.3C15.5004 8.1 15.6004 7.86267 15.6004 7.588C15.6004 7.31267 15.5004 7.075 15.3004 6.875L8.70039 0.275002C8.60039 0.175002 8.49206 0.104335 8.37539 0.0630016C8.25872 0.0210016 8.13372 0 8.00039 0Z" fill="white"/>
</svg>
