<svg width="24" height="24" viewBox="0 0 24 24" fill="none" xmlns="http://www.w3.org/2000/svg">
<path d="M11.85 24C10.01 24 8.45 23.36 7.17 22.08C5.89 20.8 5.25 19.24 5.25 17.4V4.8C5.25 3.48 5.72 2.35 6.66 1.41C7.6 0.47 8.73 0 10.05 0C11.37 0 12.5 0.47 13.44 1.41C14.38 2.35 14.85 3.48 14.85 4.8V14.4H13.05V4.8C13.05 3.96 12.76 3.25 12.18 2.67C11.6 2.09 10.89 1.8 10.05 1.8C9.21 1.8 8.5 2.09 7.92 2.67C7.34 3.25 7.05 3.96 7.05 4.8V17.4C7.05 18.72 7.52 19.85 8.46 20.79C9.4 21.73 10.53 22.2 11.85 22.2C12.43 22.2 12.9752 22.1048 13.4856 21.9144C13.9952 21.7248 14.45 21.46 14.85 21.12V23.28C14.39 23.5 13.91 23.6748 13.41 23.8044C12.91 23.9348 12.39 24 11.85 24ZM17.25 19.2H14.85C14.51 19.2 14.2252 19.0848 13.9956 18.8544C13.7652 18.6248 13.65 18.34 13.65 18C13.65 17.66 13.7652 17.3752 13.9956 17.1456C14.2252 16.9152 14.51 16.8 14.85 16.8H17.25V14.4C17.25 14.06 17.3652 13.7748 17.5956 13.5444C17.8252 13.3148 18.11 13.2 18.45 13.2C18.79 13.2 19.0748 13.3148 19.3044 13.5444C19.5348 13.7748 19.65 14.06 19.65 14.4V16.8H22.05C22.39 16.8 22.6748 16.9152 22.9044 17.1456C23.1348 17.3752 23.25 17.66 23.25 18C23.25 18.34 23.1348 18.6248 22.9044 18.8544C22.6748 19.0848 22.39 19.2 22.05 19.2H19.65V21.6C19.65 21.94 19.5348 22.2248 19.3044 22.4544C19.0748 22.6848 18.79 22.8 18.45 22.8C18.11 22.8 17.8252 22.6848 17.5956 22.4544C17.3652 22.2248 17.25 21.94 17.25 21.6V19.2ZM11.85 17.4V19.2C11.01 19.2 10.3 18.91 9.72 18.33C9.14 17.75 8.85 17.04 8.85 16.2V5.7C8.85 5.44 8.9352 5.2252 9.1056 5.0556C9.2752 4.8852 9.49 4.8 9.75 4.8C10.01 4.8 10.2252 4.8852 10.3956 5.0556C10.5652 5.2252 10.65 5.44 10.65 5.7V16.2C10.65 16.54 10.7652 16.8248 10.9956 17.0544C11.2252 17.2848 11.51 17.4 11.85 17.4ZM16.65 10.8V5.7C16.65 5.44 16.7352 5.2252 16.9056 5.0556C17.0752 4.8852 17.29 4.8 17.55 4.8C17.81 4.8 18.0252 4.8852 18.1956 5.0556C18.3652 5.2252 18.45 5.44 18.45 5.7V10.8H16.65Z" fill="url(#paint0_linear_102_10430)"/>
<defs>
<linearGradient id="paint0_linear_102_10430" x1="3.82895" y1="-5.375" x2="29.8147" y2="13.291" gradientUnits="userSpaceOnUse">
<stop offset="0.0633718" stop-color="#3619AB"/>
<stop offset="0.517512" stop-color="#2272BB"/>
<stop offset="1" stop-color="#00814B"/>
</linearGradient>
</defs>
</svg>
