<svg width="32" height="32" viewBox="0 0 32 32" fill="none" xmlns="http://www.w3.org/2000/svg">
<g filter="url(#filter0_iii_107_2889)">
<path d="M26.1529 2.05469H5.84688C3.74819 2.05469 2.04688 3.75601 2.04688 5.85469V26.1607C2.04688 28.2594 3.74819 29.9607 5.84688 29.9607H26.1529C28.2516 29.9607 29.9529 28.2594 29.9529 26.1607V5.85469C29.9529 3.75601 28.2516 2.05469 26.1529 2.05469Z" fill="url(#paint0_linear_107_2889)"/>
</g>
<path d="M26.1529 2.05469H5.84688C3.74819 2.05469 2.04688 3.75601 2.04688 5.85469V26.1607C2.04688 28.2594 3.74819 29.9607 5.84688 29.9607H26.1529C28.2516 29.9607 29.9529 28.2594 29.9529 26.1607V5.85469C29.9529 3.75601 28.2516 2.05469 26.1529 2.05469Z" fill="url(#paint1_linear_107_2889)"/>
<path d="M26.1529 2.05469H5.84688C3.74819 2.05469 2.04688 3.75601 2.04688 5.85469V26.1607C2.04688 28.2594 3.74819 29.9607 5.84688 29.9607H26.1529C28.2516 29.9607 29.9529 28.2594 29.9529 26.1607V5.85469C29.9529 3.75601 28.2516 2.05469 26.1529 2.05469Z" fill="url(#paint2_radial_107_2889)"/>
<path d="M26.1529 2.05469H5.84688C3.74819 2.05469 2.04688 3.75601 2.04688 5.85469V26.1607C2.04688 28.2594 3.74819 29.9607 5.84688 29.9607H26.1529C28.2516 29.9607 29.9529 28.2594 29.9529 26.1607V5.85469C29.9529 3.75601 28.2516 2.05469 26.1529 2.05469Z" fill="url(#paint3_radial_107_2889)"/>
<g filter="url(#filter1_f_107_2889)">
<path d="M27.2599 28.78C26.7106 29.0566 26.1039 29.1999 25.4889 29.198H21.5049V8.13397C21.5049 7.53097 22.0299 7.04297 22.6769 7.04297H26.0879C26.7349 7.04297 27.2589 7.53097 27.2589 8.13297V28.78H27.2599Z" fill="url(#paint4_linear_107_2889)"/>
</g>
<path fill-rule="evenodd" clip-rule="evenodd" d="M11.5229 2.05469H10.5229V10.4447H2.04688V11.4447H10.5229V20.4147H2.04688V21.4147H10.5229V29.9607H11.5229V21.4137H20.5229V29.9607H21.5229V21.4137H29.9529V20.4137H21.5229V11.4447H29.9529V10.4447H21.5229V2.05469H20.5229V10.4447H11.5229V2.05469ZM20.5229 11.4447V20.4147H11.5229V11.4447H20.5229Z" fill="url(#paint5_linear_107_2889)"/>
<path fill-rule="evenodd" clip-rule="evenodd" d="M11.5229 2.05469H10.5229V10.4447H2.04688V11.4447H10.5229V20.4147H2.04688V21.4147H10.5229V29.9607H11.5229V21.4137H20.5229V29.9607H21.5229V21.4137H29.9529V20.4137H21.5229V11.4447H29.9529V10.4447H21.5229V2.05469H20.5229V10.4447H11.5229V2.05469ZM20.5229 11.4447V20.4147H11.5229V11.4447H20.5229Z" fill="url(#paint6_linear_107_2889)"/>
<path fill-rule="evenodd" clip-rule="evenodd" d="M11.5229 2.05469H10.5229V10.4447H2.04688V11.4447H10.5229V20.4147H2.04688V21.4147H10.5229V29.9607H11.5229V21.4137H20.5229V29.9607H21.5229V21.4137H29.9529V20.4137H21.5229V11.4447H29.9529V10.4447H21.5229V2.05469H20.5229V10.4447H11.5229V2.05469ZM20.5229 11.4447V20.4147H11.5229V11.4447H20.5229Z" fill="url(#paint7_linear_107_2889)"/>
<path fill-rule="evenodd" clip-rule="evenodd" d="M11.5229 2.05469H10.5229V10.4447H2.04688V11.4447H10.5229V20.4147H2.04688V21.4147H10.5229V29.9607H11.5229V21.4137H20.5229V29.9607H21.5229V21.4137H29.9529V20.4137H21.5229V11.4447H29.9529V10.4447H21.5229V2.05469H20.5229V10.4447H11.5229V2.05469ZM20.5229 11.4447V20.4147H11.5229V11.4447H20.5229Z" fill="url(#paint8_linear_107_2889)"/>
<path fill-rule="evenodd" clip-rule="evenodd" d="M11.5229 2.05469H10.5229V10.4447H2.04688V11.4447H10.5229V20.4147H2.04688V21.4147H10.5229V29.9607H11.5229V21.4137H20.5229V29.9607H21.5229V21.4137H23.4949V20.4137H21.5229V11.4447H23.4949V10.4447H21.5229V2.05469H20.5229V10.4447H11.5229V2.05469ZM20.5229 11.4447V20.4147H11.5229V11.4447H20.5229Z" fill="url(#paint9_linear_107_2889)"/>
<path fill-rule="evenodd" clip-rule="evenodd" d="M11.5229 2.05469H10.5229V10.4447H2.04688V11.4447H10.5229V20.4147H2.04688V21.4147H10.5229V29.9607H11.5229V21.4137H20.5229V29.9607H21.5229V21.4137H23.4949V20.4137H21.5229V11.4447H23.4949V10.4447H21.5229V2.05469H20.5229V10.4447H11.5229V2.05469ZM20.5229 11.4447V20.4147H11.5229V11.4447H20.5229Z" fill="url(#paint10_linear_107_2889)"/>
<path fill-rule="evenodd" clip-rule="evenodd" d="M11.5229 2.05469H10.5229V10.4447H2.04688V11.4447H10.5229V20.4147H2.04688V21.4147H10.5229V29.9607H11.5229V21.4137H20.5229V29.9607H21.5229V21.4137H23.4949V20.4137H21.5229V11.4447H23.4949V10.4447H21.5229V2.05469H20.5229V10.4447H11.5229V2.05469ZM20.5229 11.4447V20.4147H11.5229V11.4447H20.5229Z" fill="url(#paint11_linear_107_2889)"/>
<g filter="url(#filter2_f_107_2889)">
<path d="M18.2404 29.3862C17.6636 29.5474 17.0672 29.6275 16.4684 29.6242H12.4854V17.6552C12.4854 17.3132 13.0094 17.0352 13.6564 17.0352H17.0684C17.7154 17.0352 18.2394 17.3132 18.2394 17.6552V29.3862H18.2404Z" fill="url(#paint12_linear_107_2889)"/>
</g>
<g filter="url(#filter3_f_107_2889)">
<path d="M9.10944 28.4367C8.55136 28.6806 7.94849 28.8053 7.33945 28.8027H3.35645V10.3817C3.35645 9.85473 3.88045 9.42773 4.52745 9.42773H7.93945C8.58645 9.42773 9.11145 9.85473 9.11145 10.3817V28.4367H9.10944Z" fill="url(#paint13_linear_107_2889)"/>
</g>
<g filter="url(#filter4_i_107_2889)">
<path d="M27.9672 29.4998C27.4108 29.8032 26.787 29.9617 26.1532 29.9608H22.0732V6.79375C22.0732 6.47549 22.1997 6.17027 22.4247 5.94522C22.6498 5.72018 22.955 5.59375 23.2732 5.59375H26.7672C27.0855 5.59375 27.3907 5.72018 27.6158 5.94522C27.8408 6.17027 27.9672 6.47549 27.9672 6.79375V29.4998Z" fill="url(#paint14_linear_107_2889)"/>
</g>
<path d="M27.9672 29.4998C27.4108 29.8032 26.787 29.9617 26.1532 29.9608H22.0732V6.79375C22.0732 6.47549 22.1997 6.17027 22.4247 5.94522C22.6498 5.72018 22.955 5.59375 23.2732 5.59375H26.7672C27.0855 5.59375 27.3907 5.72018 27.6158 5.94522C27.8408 6.17027 27.9672 6.47549 27.9672 6.79375V29.4998Z" fill="url(#paint15_linear_107_2889)"/>
<g filter="url(#filter5_f_107_2889)">
<path d="M27.2586 6.96034C27.2586 6.7212 27.0649 6.52734 26.8261 6.52734C26.5872 6.52734 26.3936 6.7212 26.3936 6.96034V28.5953C26.3936 28.8345 26.5872 29.0283 26.8261 29.0283C27.0649 29.0283 27.2586 28.8345 27.2586 28.5953V6.96034Z" fill="url(#paint16_linear_107_2889)"/>
</g>
<path d="M13.4589 10.4447H11.5229V2.05469H10.5229V10.4447H2.04688V11.4447H10.5229V20.4147H2.04688V21.4147H10.5229V29.9607H11.5229V21.4137H13.4589V20.4137H11.5229V11.4447H13.4589V10.4447Z" fill="url(#paint17_radial_107_2889)"/>
<path d="M13.4589 10.4447H11.5229V2.05469H10.5229V10.4447H2.04688V11.4447H10.5229V20.4147H2.04688V21.4147H10.5229V29.9607H11.5229V21.4137H13.4589V20.4137H11.5229V11.4447H13.4589V10.4447Z" fill="url(#paint18_linear_107_2889)"/>
<g filter="url(#filter6_i_107_2889)">
<path d="M18.9469 29.9605H13.0529V17.8465C13.0529 17.5282 13.1793 17.223 13.4043 16.998C13.6294 16.7729 13.9346 16.6465 14.2529 16.6465H17.7469C18.0651 16.6465 18.3703 16.7729 18.5954 16.998C18.8204 17.223 18.9469 17.5282 18.9469 17.8465V29.9595V29.9605Z" fill="url(#paint19_linear_107_2889)"/>
</g>
<g filter="url(#filter7_f_107_2889)">
<path d="M18.2389 17.9877C18.2389 17.7485 18.0453 17.5547 17.8064 17.5547C17.5675 17.5547 17.3739 17.7485 17.3739 17.9877V28.7647C17.3739 29.0038 17.5675 29.1977 17.8064 29.1977C18.0453 29.1977 18.2389 29.0038 18.2389 28.7647V17.9877Z" fill="url(#paint20_linear_107_2889)"/>
</g>
<g filter="url(#filter8_i_107_2889)">
<path d="M9.9272 29.96H5.8472C5.21355 29.9611 4.58979 29.8029 4.0332 29.5V9.86602C4.0332 9.54776 4.15963 9.24253 4.38468 9.01749C4.60972 8.79244 4.91494 8.66602 5.2332 8.66602H8.7272C9.04546 8.66602 9.35069 8.79244 9.57573 9.01749C9.80078 9.24253 9.9272 9.54776 9.9272 9.86602V29.962V29.96Z" fill="url(#paint21_linear_107_2889)"/>
</g>
<g filter="url(#filter9_f_107_2889)">
<path d="M9.54286 9.86073C9.54286 9.62159 9.34922 9.42773 9.11036 9.42773C8.87149 9.42773 8.67786 9.62159 8.67786 9.86073V28.7647C8.67786 29.0039 8.87149 29.1977 9.11036 29.1977C9.34922 29.1977 9.54286 29.0039 9.54286 28.7647V9.86073Z" fill="url(#paint22_linear_107_2889)"/>
</g>
<defs>
<filter id="filter0_iii_107_2889" x="1.04688" y="1.05469" width="30.406" height="29.9062" filterUnits="userSpaceOnUse" color-interpolation-filters="sRGB">
<feFlood flood-opacity="0" result="BackgroundImageFix"/>
<feBlend mode="normal" in="SourceGraphic" in2="BackgroundImageFix" result="shape"/>
<feColorMatrix in="SourceAlpha" type="matrix" values="0 0 0 0 0 0 0 0 0 0 0 0 0 0 0 0 0 0 127 0" result="hardAlpha"/>
<feOffset dx="-1" dy="1"/>
<feGaussianBlur stdDeviation="1"/>
<feComposite in2="hardAlpha" operator="arithmetic" k2="-1" k3="1"/>
<feColorMatrix type="matrix" values="0 0 0 0 0.878431 0 0 0 0 0.87451 0 0 0 0 0.886275 0 0 0 1 0"/>
<feBlend mode="normal" in2="shape" result="effect1_innerShadow_107_2889"/>
<feColorMatrix in="SourceAlpha" type="matrix" values="0 0 0 0 0 0 0 0 0 0 0 0 0 0 0 0 0 0 127 0" result="hardAlpha"/>
<feOffset dx="1.5" dy="-1"/>
<feGaussianBlur stdDeviation="1.5"/>
<feComposite in2="hardAlpha" operator="arithmetic" k2="-1" k3="1"/>
<feColorMatrix type="matrix" values="0 0 0 0 0.698039 0 0 0 0 0.67451 0 0 0 0 0.721569 0 0 0 1 0"/>
<feBlend mode="normal" in2="effect1_innerShadow_107_2889" result="effect2_innerShadow_107_2889"/>
<feColorMatrix in="SourceAlpha" type="matrix" values="0 0 0 0 0 0 0 0 0 0 0 0 0 0 0 0 0 0 127 0" result="hardAlpha"/>
<feOffset dx="0.25"/>
<feGaussianBlur stdDeviation="0.25"/>
<feComposite in2="hardAlpha" operator="arithmetic" k2="-1" k3="1"/>
<feColorMatrix type="matrix" values="0 0 0 0 0.729412 0 0 0 0 0.729412 0 0 0 0 0.729412 0 0 0 1 0"/>
<feBlend mode="normal" in2="effect2_innerShadow_107_2889" result="effect3_innerShadow_107_2889"/>
</filter>
<filter id="filter1_f_107_2889" x="20.5049" y="6.04297" width="7.755" height="24.1553" filterUnits="userSpaceOnUse" color-interpolation-filters="sRGB">
<feFlood flood-opacity="0" result="BackgroundImageFix"/>
<feBlend mode="normal" in="SourceGraphic" in2="BackgroundImageFix" result="shape"/>
<feGaussianBlur stdDeviation="0.5" result="effect1_foregroundBlur_107_2889"/>
</filter>
<filter id="filter2_f_107_2889" x="11.4854" y="16.0352" width="7.755" height="14.5889" filterUnits="userSpaceOnUse" color-interpolation-filters="sRGB">
<feFlood flood-opacity="0" result="BackgroundImageFix"/>
<feBlend mode="normal" in="SourceGraphic" in2="BackgroundImageFix" result="shape"/>
<feGaussianBlur stdDeviation="0.5" result="effect1_foregroundBlur_107_2889"/>
</filter>
<filter id="filter3_f_107_2889" x="2.35645" y="8.42773" width="7.755" height="21.375" filterUnits="userSpaceOnUse" color-interpolation-filters="sRGB">
<feFlood flood-opacity="0" result="BackgroundImageFix"/>
<feBlend mode="normal" in="SourceGraphic" in2="BackgroundImageFix" result="shape"/>
<feGaussianBlur stdDeviation="0.5" result="effect1_foregroundBlur_107_2889"/>
</filter>
<filter id="filter4_i_107_2889" x="22.0732" y="5.59375" width="6.64404" height="24.3672" filterUnits="userSpaceOnUse" color-interpolation-filters="sRGB">
<feFlood flood-opacity="0" result="BackgroundImageFix"/>
<feBlend mode="normal" in="SourceGraphic" in2="BackgroundImageFix" result="shape"/>
<feColorMatrix in="SourceAlpha" type="matrix" values="0 0 0 0 0 0 0 0 0 0 0 0 0 0 0 0 0 0 127 0" result="hardAlpha"/>
<feOffset dx="0.75"/>
<feGaussianBlur stdDeviation="0.5"/>
<feComposite in2="hardAlpha" operator="arithmetic" k2="-1" k3="1"/>
<feColorMatrix type="matrix" values="0 0 0 0 0.203922 0 0 0 0 0.482353 0 0 0 0 0.74902 0 0 0 1 0"/>
<feBlend mode="normal" in2="shape" result="effect1_innerShadow_107_2889"/>
</filter>
<filter id="filter5_f_107_2889" x="25.3936" y="5.52734" width="2.86499" height="24.501" filterUnits="userSpaceOnUse" color-interpolation-filters="sRGB">
<feFlood flood-opacity="0" result="BackgroundImageFix"/>
<feBlend mode="normal" in="SourceGraphic" in2="BackgroundImageFix" result="shape"/>
<feGaussianBlur stdDeviation="0.5" result="effect1_foregroundBlur_107_2889"/>
</filter>
<filter id="filter6_i_107_2889" x="13.0529" y="16.6465" width="6.64404" height="13.3145" filterUnits="userSpaceOnUse" color-interpolation-filters="sRGB">
<feFlood flood-opacity="0" result="BackgroundImageFix"/>
<feBlend mode="normal" in="SourceGraphic" in2="BackgroundImageFix" result="shape"/>
<feColorMatrix in="SourceAlpha" type="matrix" values="0 0 0 0 0 0 0 0 0 0 0 0 0 0 0 0 0 0 127 0" result="hardAlpha"/>
<feOffset dx="0.75"/>
<feGaussianBlur stdDeviation="0.5"/>
<feComposite in2="hardAlpha" operator="arithmetic" k2="-1" k3="1"/>
<feColorMatrix type="matrix" values="0 0 0 0 0.67451 0 0 0 0 0.239216 0 0 0 0 0.372549 0 0 0 1 0"/>
<feBlend mode="normal" in2="shape" result="effect1_innerShadow_107_2889"/>
</filter>
<filter id="filter7_f_107_2889" x="16.3739" y="16.5547" width="2.86499" height="13.6426" filterUnits="userSpaceOnUse" color-interpolation-filters="sRGB">
<feFlood flood-opacity="0" result="BackgroundImageFix"/>
<feBlend mode="normal" in="SourceGraphic" in2="BackgroundImageFix" result="shape"/>
<feGaussianBlur stdDeviation="0.5" result="effect1_foregroundBlur_107_2889"/>
</filter>
<filter id="filter8_i_107_2889" x="4.0332" y="8.66602" width="6.64404" height="21.2959" filterUnits="userSpaceOnUse" color-interpolation-filters="sRGB">
<feFlood flood-opacity="0" result="BackgroundImageFix"/>
<feBlend mode="normal" in="SourceGraphic" in2="BackgroundImageFix" result="shape"/>
<feColorMatrix in="SourceAlpha" type="matrix" values="0 0 0 0 0 0 0 0 0 0 0 0 0 0 0 0 0 0 127 0" result="hardAlpha"/>
<feOffset dx="0.75"/>
<feGaussianBlur stdDeviation="0.5"/>
<feComposite in2="hardAlpha" operator="arithmetic" k2="-1" k3="1"/>
<feColorMatrix type="matrix" values="0 0 0 0 0.415686 0 0 0 0 0.792157 0 0 0 0 0.466667 0 0 0 1 0"/>
<feBlend mode="normal" in2="shape" result="effect1_innerShadow_107_2889"/>
</filter>
<filter id="filter9_f_107_2889" x="7.67786" y="8.42773" width="2.86499" height="21.7695" filterUnits="userSpaceOnUse" color-interpolation-filters="sRGB">
<feFlood flood-opacity="0" result="BackgroundImageFix"/>
<feBlend mode="normal" in="SourceGraphic" in2="BackgroundImageFix" result="shape"/>
<feGaussianBlur stdDeviation="0.5" result="effect1_foregroundBlur_107_2889"/>
</filter>
<linearGradient id="paint0_linear_107_2889" x1="27.1249" y1="3.88269" x2="11.8749" y2="23.3197" gradientUnits="userSpaceOnUse">
<stop stop-color="#D8D1E0"/>
<stop offset="1" stop-color="#D5C9E3"/>
</linearGradient>
<linearGradient id="paint1_linear_107_2889" x1="21.4749" y1="30.2237" x2="21.4749" y2="27.9257" gradientUnits="userSpaceOnUse">
<stop stop-color="#A88AC4"/>
<stop offset="1" stop-color="#CDBCE0" stop-opacity="0"/>
</linearGradient>
<radialGradient id="paint2_radial_107_2889" cx="0" cy="0" r="1" gradientUnits="userSpaceOnUse" gradientTransform="translate(29.9529 16.4027) rotate(177.86) scale(5.59248 21.8038)">
<stop stop-color="#F2EDF5"/>
<stop offset="1" stop-color="#DED3E7" stop-opacity="0"/>
</radialGradient>
<radialGradient id="paint3_radial_107_2889" cx="0" cy="0" r="1" gradientUnits="userSpaceOnUse" gradientTransform="translate(29.5859 2.89569) rotate(138.434) scale(4.93201 5.10499)">
<stop stop-color="#F7F4F7"/>
<stop offset="1" stop-color="#E2DCE5" stop-opacity="0"/>
</radialGradient>
<linearGradient id="paint4_linear_107_2889" x1="24.3819" y1="7.04297" x2="24.3819" y2="29.198" gradientUnits="userSpaceOnUse">
<stop stop-color="#9B98B3"/>
<stop offset="1" stop-color="#9C83AE"/>
</linearGradient>
<linearGradient id="paint5_linear_107_2889" x1="15.9999" y1="4.36669" x2="15.9999" y2="29.9607" gradientUnits="userSpaceOnUse">
<stop stop-color="#C2BEC6"/>
<stop offset="1" stop-color="#BAACC6"/>
</linearGradient>
<linearGradient id="paint6_linear_107_2889" x1="21.7189" y1="30.6757" x2="21.7189" y2="27.1947" gradientUnits="userSpaceOnUse">
<stop stop-color="#9E83B7"/>
<stop offset="1" stop-color="#9E83B7" stop-opacity="0"/>
</linearGradient>
<linearGradient id="paint7_linear_107_2889" x1="1.07788" y1="17.3667" x2="6.39087" y2="17.3667" gradientUnits="userSpaceOnUse">
<stop stop-color="#96909C"/>
<stop offset="1" stop-color="#96909C" stop-opacity="0"/>
</linearGradient>
<linearGradient id="paint8_linear_107_2889" x1="30.7659" y1="18.0547" x2="26.9529" y2="18.0547" gradientUnits="userSpaceOnUse">
<stop stop-color="#D6D1DA"/>
<stop offset="1" stop-color="#D6D1DA" stop-opacity="0"/>
</linearGradient>
<linearGradient id="paint9_linear_107_2889" x1="24.1869" y1="18.3337" x2="20.1639" y2="18.3337" gradientUnits="userSpaceOnUse">
<stop offset="0.452" stop-color="#7C7695"/>
<stop offset="1" stop-color="#7C7695" stop-opacity="0"/>
</linearGradient>
<linearGradient id="paint10_linear_107_2889" x1="21.0289" y1="30.5337" x2="21.0289" y2="28.3707" gradientUnits="userSpaceOnUse">
<stop stop-color="#9070AD"/>
<stop offset="1" stop-color="#9070AD" stop-opacity="0"/>
</linearGradient>
<linearGradient id="paint11_linear_107_2889" x1="19.6449" y1="1.54869" x2="19.6449" y2="10.1577" gradientUnits="userSpaceOnUse">
<stop offset="0.668" stop-color="#C3BFC7"/>
<stop offset="1" stop-color="#C3BFC7" stop-opacity="0"/>
</linearGradient>
<linearGradient id="paint12_linear_107_2889" x1="15.3624" y1="17.0352" x2="15.3624" y2="29.6242" gradientUnits="userSpaceOnUse">
<stop stop-color="#9B98B3"/>
<stop offset="1" stop-color="#9C83AE"/>
</linearGradient>
<linearGradient id="paint13_linear_107_2889" x1="6.23345" y1="9.42773" x2="6.23345" y2="28.8027" gradientUnits="userSpaceOnUse">
<stop stop-color="#9B98B3"/>
<stop offset="1" stop-color="#9C83AE"/>
</linearGradient>
<linearGradient id="paint14_linear_107_2889" x1="25.0202" y1="5.59375" x2="25.0202" y2="29.9608" gradientUnits="userSpaceOnUse">
<stop offset="0.18" stop-color="#36A4F2"/>
<stop offset="1" stop-color="#3E79CB"/>
</linearGradient>
<linearGradient id="paint15_linear_107_2889" x1="21.7222" y1="29.4518" x2="23.5382" y2="29.3658" gradientUnits="userSpaceOnUse">
<stop offset="0.011" stop-color="#404E95"/>
<stop offset="1" stop-color="#2F66B3" stop-opacity="0"/>
</linearGradient>
<linearGradient id="paint16_linear_107_2889" x1="26.8266" y1="6.52734" x2="26.8266" y2="29.0283" gradientUnits="userSpaceOnUse">
<stop stop-color="#53BFFF"/>
<stop offset="1" stop-color="#508EDC"/>
</linearGradient>
<radialGradient id="paint17_radial_107_2889" cx="0" cy="0" r="1" gradientUnits="userSpaceOnUse" gradientTransform="translate(14.3239 20.9297) rotate(180) scale(2.46588 2.37936)">
<stop offset="0.228" stop-color="#86738A"/>
<stop offset="1" stop-color="#86738A" stop-opacity="0"/>
</radialGradient>
<linearGradient id="paint18_linear_107_2889" x1="1.51888" y1="17.4687" x2="5.97487" y2="17.4687" gradientUnits="userSpaceOnUse">
<stop stop-color="#88858D"/>
<stop offset="1" stop-color="#88858D" stop-opacity="0"/>
</linearGradient>
<linearGradient id="paint19_linear_107_2889" x1="15.9999" y1="16.6465" x2="15.9999" y2="29.9605" gradientUnits="userSpaceOnUse">
<stop offset="0.18" stop-color="#E93586"/>
<stop offset="1" stop-color="#DD385F"/>
</linearGradient>
<linearGradient id="paint20_linear_107_2889" x1="17.8059" y1="17.5547" x2="17.8059" y2="29.1977" gradientUnits="userSpaceOnUse">
<stop stop-color="#FA5598"/>
<stop offset="1" stop-color="#F34F70"/>
</linearGradient>
<linearGradient id="paint21_linear_107_2889" x1="6.9802" y1="8.66502" x2="6.9802" y2="29.961" gradientUnits="userSpaceOnUse">
<stop offset="0.18" stop-color="#ABE263"/>
<stop offset="1" stop-color="#61E19B"/>
</linearGradient>
<linearGradient id="paint22_linear_107_2889" x1="9.11086" y1="9.42773" x2="9.11086" y2="29.1977" gradientUnits="userSpaceOnUse">
<stop stop-color="#C9FE70"/>
<stop offset="1" stop-color="#6CEDA7"/>
</linearGradient>
</defs>
</svg>
