<svg width="16" height="16" viewBox="0 0 16 16" fill="none" xmlns="http://www.w3.org/2000/svg">
<path d="M16.0005 8C16.0005 8.14035 15.9789 8.27193 15.9358 8.39474C15.8933 8.51754 15.8207 8.63158 15.718 8.73684L8.93789 15.6842C8.73243 15.8947 8.48828 16 8.20543 16C7.92327 16 7.67946 15.8947 7.474 15.6842C7.26855 15.4737 7.16582 15.2281 7.16582 14.9474C7.16582 14.6667 7.26855 14.4211 7.474 14.2105L12.5077 9.05263L1.00209 9.05263C0.711029 9.05263 0.471328 8.95158 0.282992 8.74948C0.0946564 8.54807 0.000488294 8.29825 0.000488281 8C0.000488268 7.70176 0.0987656 7.45158 0.29532 7.24948C0.492559 7.04807 0.736711 6.94737 1.02778 6.94737L12.5077 6.94737L7.474 1.78947C7.26855 1.57895 7.16582 1.33333 7.16582 1.05263C7.16582 0.77193 7.26854 0.526317 7.474 0.315791C7.67946 0.105264 7.92327 1.2334e-08 8.20543 0C8.48828 -1.23633e-08 8.73243 0.105264 8.93789 0.315791L15.718 7.26316C15.8207 7.36842 15.8933 7.48246 15.9358 7.60526C15.9789 7.72807 16.0005 7.85965 16.0005 8Z" fill="url(#paint0_linear_1401_11321)"/>
<defs>
<linearGradient id="paint0_linear_1401_11321" x1="-1.26267" y1="-3.58333" x2="17.0009" y2="13.9088" gradientUnits="userSpaceOnUse">
<stop offset="0.0633718" stop-color="#3619AB"/>
<stop offset="0.517512" stop-color="#2272BB"/>
<stop offset="1" stop-color="#00814B"/>
</linearGradient>
</defs>
</svg>
