<svg width="20" height="20" viewBox="0 0 20 20" fill="none" xmlns="http://www.w3.org/2000/svg">
<path d="M2.5 17.5C1.98438 17.5 1.54313 17.3166 1.17625 16.9497C0.80875 16.5822 0.625 16.1406 0.625 15.625V4.375C0.625 3.85938 0.80875 3.41812 1.17625 3.05125C1.54313 2.68375 1.98438 2.5 2.5 2.5H17.5C18.0156 2.5 18.4572 2.68375 18.8247 3.05125C19.1916 3.41812 19.375 3.85938 19.375 4.375V15.625C19.375 16.1406 19.1916 16.5822 18.8247 16.9497C18.4572 17.3166 18.0156 17.5 17.5 17.5H2.5ZM10 10.7734C10.0781 10.7734 10.16 10.7616 10.2456 10.7378C10.3319 10.7147 10.4141 10.6797 10.4922 10.6328L17.125 6.48438C17.25 6.40625 17.3438 6.30875 17.4062 6.19188C17.4688 6.07438 17.5 5.94531 17.5 5.80469C17.5 5.49219 17.3672 5.25781 17.1016 5.10156C16.8359 4.94531 16.5625 4.95313 16.2813 5.125L10 9.0625L3.71875 5.125C3.4375 4.95313 3.16406 4.94906 2.89844 5.11281C2.63281 5.27719 2.5 5.50781 2.5 5.80469C2.5 5.96094 2.53125 6.0975 2.59375 6.21438C2.65625 6.33187 2.75 6.42188 2.875 6.48438L9.50781 10.6328C9.58594 10.6797 9.66813 10.7147 9.75437 10.7378C9.84 10.7616 9.92188 10.7734 10 10.7734Z" fill="url(#paint0_linear_147_10317)"/>
<defs>
<linearGradient id="paint0_linear_147_10317" x1="-0.855263" y1="-0.859375" x2="16.0089" y2="19.3304" gradientUnits="userSpaceOnUse">
<stop offset="0.0633718" stop-color="#3619AB"/>
<stop offset="0.517512" stop-color="#2272BB"/>
<stop offset="1" stop-color="#00814B"/>
</linearGradient>
</defs>
</svg>
