<svg width="20" height="21" viewBox="0 0 20 21" fill="none" xmlns="http://www.w3.org/2000/svg">
<path d="M4.02778 18.2734C3.60764 18.2734 3.24785 18.1237 2.9484 17.8243C2.64896 17.5248 2.49949 17.1653 2.5 16.7457V6.05122C2.5 5.63108 2.64972 5.27129 2.94917 4.97184C3.24861 4.6724 3.60815 4.52293 4.02778 4.52344H8.125V6.05122H4.02778V16.7457H14.7222V12.6484H16.25V16.7457C16.25 17.1658 16.1003 17.5256 15.8008 17.825C15.5014 18.1245 15.1419 18.2739 14.7222 18.2734H4.02778ZM7.61806 14.2248L6.54861 13.1554L13.6528 6.05122H10.9028V4.52344H16.25V9.87066H14.7222V7.12066L7.61806 14.2248Z" fill="#111A2B"/>
</svg>
