<svg width="104" height="18" viewBox="0 0 104 18" fill="none" xmlns="http://www.w3.org/2000/svg">
<path d="M31.6692 0C28.7442 0 26.2137 0.871389 24.4126 2.44161C22.61 4.01308 21.557 6.26813 21.557 9C21.557 11.7434 22.6099 13.9987 24.4128 15.5674C26.2141 17.1348 28.7446 18 31.6692 18C34.3508 18 36.9934 17.547 39.4064 16.3703L39.5428 16.3038V7.20942H31.9007V11.0733H35.1685V13.404C34.0877 13.9043 32.8928 14.1361 31.6692 14.1361C30.0211 14.1361 28.6689 13.6042 27.7283 12.7066C26.7866 11.8081 26.24 10.5265 26.24 9C26.24 7.48568 26.7864 6.20372 27.7285 5.30194C28.6696 4.40121 30.0219 3.86387 31.6692 3.86387C33.344 3.86387 34.7341 4.25041 35.8816 5.36817L36.0715 5.5531L39.2637 2.36439L39.0726 2.20525C37.0238 0.499845 34.3754 0 31.6692 0Z" fill="#242D3B"/>
<path fill-rule="evenodd" clip-rule="evenodd" d="M52.9567 0C50.0311 0 47.507 0.877595 45.7124 2.4509C43.9167 4.0253 42.8703 6.28014 42.8703 9C42.8703 11.7199 43.9167 13.9747 45.7124 15.5491C47.507 17.1224 50.0311 18 52.9567 18C55.8701 18 58.394 17.1161 60.1913 15.5403C61.9898 13.9633 63.0431 11.7087 63.0431 9C63.0431 6.29258 62.0101 4.03779 60.2207 2.46019C58.4324 0.883512 55.908 0 52.9567 0ZM47.5532 9C47.5532 7.47351 48.0999 6.19151 49.0356 5.29281C49.9703 4.39514 51.3097 3.86387 52.9309 3.86387C54.5782 3.86387 55.9305 4.40121 56.8716 5.30194C57.8137 6.20372 58.3601 7.48568 58.3601 9C58.3601 10.5143 57.8137 11.7965 56.8745 12.6983C55.9364 13.5991 54.5905 14.1361 52.9567 14.1361C51.3096 14.1361 49.964 13.5989 49.0295 12.6986C48.0937 11.7971 47.5532 10.5151 47.5532 9Z" fill="#242D3B"/>
<path fill-rule="evenodd" clip-rule="evenodd" d="M73.9795 0.424084H66.5433V17.5759H71.0719V10.9084H72.6298L75.9233 17.5759H81.3305L77.1718 10.4599C78.3046 10.2041 79.2269 9.67469 79.8808 8.91628C80.5981 8.08429 80.9782 6.99353 80.9782 5.72513C80.9782 3.62667 80.0788 2.28255 78.7257 1.47537C77.3912 0.679275 75.6471 0.424084 73.9795 0.424084ZM71.0719 7.32722V4.00524H73.542C74.4747 4.00524 75.1668 4.14516 75.6192 4.41958C76.0523 4.68229 76.2952 5.0862 76.2952 5.70157C76.2952 6.06452 76.2155 6.33469 76.0845 6.53912C75.9543 6.74238 75.7631 6.8968 75.5101 7.01389C74.9905 7.25442 74.2351 7.32722 73.3105 7.32722H71.0719Z" fill="#242D3B"/>
<path fill-rule="evenodd" clip-rule="evenodd" d="M95.5541 0.424084H91.8971L83.8011 17.5759H88.7936L90.3117 14.2775H97.0392L98.6088 17.5759H103.703L95.5541 0.424084ZM91.7741 10.6963L93.6114 6.15696L95.4702 10.6963H91.7741Z" fill="#242D3B"/>
<path d="M8.13589 0H11.8109L20 18L11.1914 18V14.2912L13.3033 14.2912L9.85866 6.01637L6.54269 14.2912H8.60568V18L0 18L8.13589 0Z" fill="url(#paint0_linear_107_4929)"/>
<defs>
<linearGradient id="paint0_linear_107_4929" x1="-4.5625" y1="2.925" x2="20.9117" y2="23.1505" gradientUnits="userSpaceOnUse">
<stop offset="0.0633718" stop-color="#9124B8"/>
<stop offset="0.474765" stop-color="#2782D3"/>
<stop offset="1" stop-color="#1BDAC3"/>
</linearGradient>
</defs>
</svg>
