<svg width="24" height="24" viewBox="0 0 24 24" fill="none" xmlns="http://www.w3.org/2000/svg">
<path d="M11.2993 9.55L8.69928 12.15C8.38261 12.4667 8.31195 12.829 8.48728 13.237C8.66261 13.645 8.97495 13.8493 9.42428 13.85H14.5743C15.0243 13.85 15.3369 13.6457 15.5123 13.237C15.6876 12.8283 15.6166 12.466 15.2993 12.15L12.6993 9.55C12.5993 9.45 12.4909 9.375 12.3743 9.325C12.2576 9.275 12.1326 9.25 11.9993 9.25C11.8659 9.25 11.7409 9.275 11.6243 9.325C11.5076 9.375 11.3993 9.45 11.2993 9.55Z" fill="url(#paint0_linear_1401_4296)"/>
<defs>
<linearGradient id="paint0_linear_1401_4296" x1="7.82416" y1="8.21979" x2="12.6735" y2="15.5019" gradientUnits="userSpaceOnUse">
<stop offset="0.0633718" stop-color="#3619AB"/>
<stop offset="0.517512" stop-color="#2272BB"/>
<stop offset="1" stop-color="#00814B"/>
</linearGradient>
</defs>
</svg>
