<svg width="20" height="20" viewBox="0 0 20 20" fill="none" xmlns="http://www.w3.org/2000/svg">
<path d="M13.3328 6.99984L5.93701 14.4165C5.77034 14.5832 5.57229 14.6665 5.34285 14.6665C5.1134 14.6665 4.91562 14.5832 4.74951 14.4165C4.58284 14.2498 4.49951 14.0518 4.49951 13.8223C4.49951 13.5929 4.58284 13.3951 4.74951 13.229L12.1662 5.83317H5.83285C5.59673 5.83317 5.39868 5.75317 5.23868 5.59317C5.07868 5.43317 4.99896 5.2354 4.99951 4.99984C4.99951 4.76373 5.07951 4.56567 5.23951 4.40567C5.39951 4.24567 5.59729 4.16595 5.83285 4.16651H14.1662C14.4023 4.16651 14.6003 4.24651 14.7603 4.40651C14.9203 4.56651 15.0001 4.76428 14.9995 4.99984V13.3332C14.9995 13.5693 14.9195 13.7673 14.7595 13.9273C14.5995 14.0873 14.4017 14.1671 14.1662 14.1665C13.9301 14.1665 13.732 14.0865 13.572 13.9265C13.412 13.7665 13.3323 13.5687 13.3328 13.3332V6.99984Z" fill="url(#paint0_linear_1581_10598)"/>
<defs>
<linearGradient id="paint0_linear_1581_10598" x1="3.67056" y1="1.81494" x2="15.6561" y2="13.2941" gradientUnits="userSpaceOnUse">
<stop offset="0.0633718" stop-color="#3619AB"/>
<stop offset="0.517512" stop-color="#2272BB"/>
<stop offset="1" stop-color="#00814B"/>
</linearGradient>
</defs>
</svg>
