<svg width="20" height="20" viewBox="0 0 20 20" fill="none" xmlns="http://www.w3.org/2000/svg">
<path d="M16.2533 16.2535H13.753V12.3377C13.753 11.404 13.7363 10.202 12.4525 10.202C11.1503 10.202 10.951 11.2194 10.951 12.2698V16.2532H8.45071V8.20093H10.851V9.30136H10.8846C11.1248 8.89063 11.4719 8.55274 11.889 8.32368C12.306 8.09462 12.7774 7.98296 13.2529 8.0006C15.7871 8.0006 16.2543 9.66754 16.2543 11.8361L16.2533 16.2535ZM5.62942 7.1003C4.82806 7.10043 4.17831 6.45087 4.17817 5.64951C4.17804 4.84814 4.82753 4.19839 5.6289 4.19826C6.43026 4.19806 7.08001 4.84762 7.08015 5.64898C7.08022 6.03381 6.92741 6.40291 6.65535 6.67508C6.38329 6.94726 6.01426 7.10021 5.62942 7.1003ZM6.87962 16.2535H4.37665V8.20093H6.87956V16.2535L6.87962 16.2535ZM17.4998 1.87617H3.12026C2.44064 1.86852 1.88331 2.41294 1.875 3.09255V17.5321C1.88304 18.212 2.44031 18.757 3.12019 18.7498H17.4998C18.1811 18.7583 18.7406 18.2133 18.75 17.5321V3.09143C18.7403 2.4105 18.1808 1.86615 17.4998 1.87505" fill="url(#paint0_linear_65_991)"/>
<defs>
<linearGradient id="paint0_linear_65_991" x1="0.542763" y1="-1.90436" x2="19.8052" y2="16.5443" gradientUnits="userSpaceOnUse">
<stop offset="0.0633718" stop-color="#3619AB"/>
<stop offset="0.517512" stop-color="#2272BB"/>
<stop offset="1" stop-color="#00814B"/>
</linearGradient>
</defs>
</svg>
