<svg width="32" height="32" viewBox="0 0 32 32" fill="none" xmlns="http://www.w3.org/2000/svg">
<path d="M3 16C3 14.3431 4.2828 13 5.84448 13H26.1555C27.7265 13 29 14.3529 29 16C29 17.6569 27.7172 19 26.1555 19H5.84448C4.2828 19 3 17.6471 3 16Z" fill="url(#paint0_linear_102_10194)"/>
<path d="M3 16C3 14.3431 4.2828 13 5.84448 13H26.1555C27.7265 13 29 14.3529 29 16C29 17.6569 27.7172 19 26.1555 19H5.84448C4.2828 19 3 17.6471 3 16Z" fill="url(#paint1_linear_102_10194)"/>
<path d="M3 16C3 14.3431 4.2828 13 5.84448 13H26.1555C27.7265 13 29 14.3529 29 16C29 17.6569 27.7172 19 26.1555 19H5.84448C4.2828 19 3 17.6471 3 16Z" fill="url(#paint2_radial_102_10194)"/>
<g filter="url(#filter0_f_102_10194)">
<path d="M6.01758 14.5146H27.7378V16.746H6.01758V14.5146Z" fill="#544C5D"/>
</g>
<defs>
<filter id="filter0_f_102_10194" x="4.51758" y="13.0146" width="24.7207" height="5.23145" filterUnits="userSpaceOnUse" color-interpolation-filters="sRGB">
<feFlood flood-opacity="0" result="BackgroundImageFix"/>
<feBlend mode="normal" in="SourceGraphic" in2="BackgroundImageFix" result="shape"/>
<feGaussianBlur stdDeviation="0.75" result="effect1_foregroundBlur_102_10194"/>
</filter>
<linearGradient id="paint0_linear_102_10194" x1="16" y1="12.999" x2="16" y2="18.999" gradientUnits="userSpaceOnUse">
<stop stop-color="#4A4253"/>
<stop offset="1" stop-color="#39204E"/>
</linearGradient>
<linearGradient id="paint1_linear_102_10194" x1="3" y1="16" x2="6.01738" y2="16" gradientUnits="userSpaceOnUse">
<stop offset="0.314" stop-color="#342D3C"/>
<stop offset="1" stop-color="#342D3C" stop-opacity="0"/>
</linearGradient>
<radialGradient id="paint2_radial_102_10194" cx="0" cy="0" r="1" gradientUnits="userSpaceOnUse" gradientTransform="translate(28.631 14.9608) rotate(180) scale(3.10283 3.61164)">
<stop stop-color="#6C6673"/>
<stop offset="1" stop-color="#6C6673" stop-opacity="0"/>
</radialGradient>
</defs>
</svg>
