<svg width="32" height="32" viewBox="0 0 32 32" fill="none" xmlns="http://www.w3.org/2000/svg">
<g filter="url(#filter0_ii_102_10183)">
<path d="M18.8491 5.84448C18.8491 4.2828 17.5756 3 16.0046 3C14.4337 3 13.1509 4.2828 13.1602 5.84448V12.463C13.1602 12.6479 13.0867 12.8252 12.956 12.956C12.8252 13.0867 12.6479 13.1602 12.463 13.1602H5.84448C4.2828 13.1602 3 14.4337 3 16.0046C3 17.5663 4.2828 18.8491 5.84448 18.8491H12.463C12.6479 18.8491 12.8252 18.9226 12.956 19.0533C13.0867 19.1841 13.1602 19.3614 13.1602 19.5463V26.1555C13.1602 27.7172 14.4337 29 16.0046 29C17.5663 29 18.8491 27.7265 18.8491 26.1555V19.5463C18.8491 19.3614 18.9226 19.1841 19.0533 19.0533C19.1841 18.9226 19.3614 18.8491 19.5463 18.8491H26.1555C27.7172 18.8491 29 17.5756 29 16.0046C29 14.443 27.7265 13.1602 26.1555 13.1602H19.5463C19.3614 13.1602 19.1841 13.0867 19.0533 12.956C18.9226 12.8252 18.8491 12.6479 18.8491 12.463V5.84448Z" fill="url(#paint0_linear_102_10183)"/>
</g>
<g filter="url(#filter1_f_102_10183)">
<path d="M16.5561 4.49707C15.8645 4.49707 15.3031 5.0576 15.3031 5.7492V13.4088C15.3031 13.6554 15.2051 13.8918 15.0308 14.0661C14.8565 14.2405 14.62 14.3384 14.3735 14.3384H6.30486C5.97278 14.3384 5.65429 14.4703 5.41947 14.7051C5.18465 14.94 5.05273 15.2584 5.05273 15.5905C5.05273 15.9226 5.18465 16.2411 5.41947 16.4759C5.65429 16.7107 5.97278 16.8427 6.30486 16.8427H14.3735C14.62 16.8427 14.8565 16.9406 15.0308 17.1149C15.2051 17.2892 15.3031 17.5257 15.3031 17.7722V26.2517C15.3031 26.5839 15.435 26.9025 15.6699 27.1375C15.9049 27.3724 16.2235 27.5043 16.5557 27.5043C16.8879 27.5043 17.2065 27.3724 17.4414 27.1375C17.6763 26.9025 17.8083 26.5839 17.8083 26.2517V17.7722C17.8083 17.5257 17.9062 17.2892 18.0805 17.1149C18.2548 16.9406 18.4913 16.8427 18.7378 16.8427H26.8065C27.1386 16.8427 27.457 16.7107 27.6919 16.4759C27.9267 16.2411 28.0586 15.9226 28.0586 15.5905C28.0586 15.2584 27.9267 14.94 27.6919 14.7051C27.457 14.4703 27.1386 14.3384 26.8065 14.3384H18.7378C18.4913 14.3384 18.2548 14.2405 18.0805 14.0661C17.9062 13.8918 17.8083 13.6554 17.8083 13.4088V5.7492C17.8083 5.0576 17.2477 4.49707 16.5561 4.49707Z" fill="url(#paint1_linear_102_10183)"/>
<path d="M16.5561 4.49707C15.8645 4.49707 15.3031 5.0576 15.3031 5.7492V13.4088C15.3031 13.6554 15.2051 13.8918 15.0308 14.0661C14.8565 14.2405 14.62 14.3384 14.3735 14.3384H6.30486C5.97278 14.3384 5.65429 14.4703 5.41947 14.7051C5.18465 14.94 5.05273 15.2584 5.05273 15.5905C5.05273 15.9226 5.18465 16.2411 5.41947 16.4759C5.65429 16.7107 5.97278 16.8427 6.30486 16.8427H14.3735C14.62 16.8427 14.8565 16.9406 15.0308 17.1149C15.2051 17.2892 15.3031 17.5257 15.3031 17.7722V26.2517C15.3031 26.5839 15.435 26.9025 15.6699 27.1375C15.9049 27.3724 16.2235 27.5043 16.5557 27.5043C16.8879 27.5043 17.2065 27.3724 17.4414 27.1375C17.6763 26.9025 17.8083 26.5839 17.8083 26.2517V17.7722C17.8083 17.5257 17.9062 17.2892 18.0805 17.1149C18.2548 16.9406 18.4913 16.8427 18.7378 16.8427H26.8065C27.1386 16.8427 27.457 16.7107 27.6919 16.4759C27.9267 16.2411 28.0586 15.9226 28.0586 15.5905C28.0586 15.2584 27.9267 14.94 27.6919 14.7051C27.457 14.4703 27.1386 14.3384 26.8065 14.3384H18.7378C18.4913 14.3384 18.2548 14.2405 18.0805 14.0661C17.9062 13.8918 17.8083 13.6554 17.8083 13.4088V5.7492C17.8083 5.0576 17.2477 4.49707 16.5561 4.49707Z" fill="url(#paint2_radial_102_10183)"/>
</g>
<defs>
<filter id="filter0_ii_102_10183" x="3" y="1.5" width="27.5" height="27.5" filterUnits="userSpaceOnUse" color-interpolation-filters="sRGB">
<feFlood flood-opacity="0" result="BackgroundImageFix"/>
<feBlend mode="normal" in="SourceGraphic" in2="BackgroundImageFix" result="shape"/>
<feColorMatrix in="SourceAlpha" type="matrix" values="0 0 0 0 0 0 0 0 0 0 0 0 0 0 0 0 0 0 127 0" result="hardAlpha"/>
<feOffset dx="2"/>
<feGaussianBlur stdDeviation="0.75"/>
<feComposite in2="hardAlpha" operator="arithmetic" k2="-1" k3="1"/>
<feColorMatrix type="matrix" values="0 0 0 0 0.168627 0 0 0 0 0.156863 0 0 0 0 0.188235 0 0 0 1 0"/>
<feBlend mode="normal" in2="shape" result="effect1_innerShadow_102_10183"/>
<feColorMatrix in="SourceAlpha" type="matrix" values="0 0 0 0 0 0 0 0 0 0 0 0 0 0 0 0 0 0 127 0" result="hardAlpha"/>
<feOffset dy="-2"/>
<feGaussianBlur stdDeviation="0.75"/>
<feComposite in2="hardAlpha" operator="arithmetic" k2="-1" k3="1"/>
<feColorMatrix type="matrix" values="0 0 0 0 0.215686 0 0 0 0 0.117647 0 0 0 0 0.294118 0 0 0 1 0"/>
<feBlend mode="normal" in2="effect1_innerShadow_102_10183" result="effect2_innerShadow_102_10183"/>
</filter>
<filter id="filter1_f_102_10183" x="3.55273" y="2.99707" width="26.0059" height="26.0073" filterUnits="userSpaceOnUse" color-interpolation-filters="sRGB">
<feFlood flood-opacity="0" result="BackgroundImageFix"/>
<feBlend mode="normal" in="SourceGraphic" in2="BackgroundImageFix" result="shape"/>
<feGaussianBlur stdDeviation="0.75" result="effect1_foregroundBlur_102_10183"/>
</filter>
<linearGradient id="paint0_linear_102_10183" x1="16" y1="3" x2="16" y2="29" gradientUnits="userSpaceOnUse">
<stop stop-color="#5D4C6E"/>
<stop offset="0.851" stop-color="#332C3C"/>
</linearGradient>
<linearGradient id="paint1_linear_102_10183" x1="19.435" y1="26.5167" x2="19.435" y2="7.75056" gradientUnits="userSpaceOnUse">
<stop stop-color="#4D4655"/>
<stop offset="1" stop-color="#4D4655" stop-opacity="0"/>
</linearGradient>
<radialGradient id="paint2_radial_102_10183" cx="0" cy="0" r="1" gradientUnits="userSpaceOnUse" gradientTransform="translate(23.6766 8.33154) rotate(126.027) scale(11.0631 12.0241)">
<stop offset="0.298" stop-color="#6D607C"/>
<stop offset="1" stop-color="#6D607C" stop-opacity="0"/>
</radialGradient>
</defs>
</svg>
