<svg width="16" height="16" viewBox="0 0 16 16" fill="none" xmlns="http://www.w3.org/2000/svg">
<path d="M2.05155 15.648C1.58223 16.1173 0.82131 16.1173 0.35199 15.648C-0.11733 15.1787 -0.11733 14.4178 0.351991 13.9485L6.30044 8L0.35199 2.05155C-0.11733 1.58223 -0.11733 0.82131 0.35199 0.35199C0.82131 -0.11733 1.58223 -0.11733 2.05155 0.35199L8 6.30044L13.9485 0.35199C14.4178 -0.11733 15.1787 -0.11733 15.648 0.35199C16.1173 0.82131 16.1173 1.58223 15.648 2.05155L9.69956 8L15.648 13.9485C16.1173 14.4178 16.1173 15.1787 15.648 15.648C15.1787 16.1173 14.4178 16.1173 13.9485 15.648L8 9.69956L2.05155 15.648Z" fill="#D5DCE2"/>
</svg>
