<svg width="11" height="11" viewBox="0 0 11 11" fill="none" xmlns="http://www.w3.org/2000/svg">
<path d="M9.33285 3.00033L1.93701 10.417C1.77034 10.5837 1.57229 10.667 1.34285 10.667C1.1134 10.667 0.915623 10.5837 0.749511 10.417C0.582845 10.2503 0.499512 10.0523 0.499512 9.82283C0.499512 9.59338 0.582845 9.39561 0.749511 9.22949L8.16618 1.83366H1.83285C1.59673 1.83366 1.39868 1.75366 1.23868 1.59366C1.07868 1.43366 0.998956 1.23588 0.999512 1.00033C0.999512 0.764217 1.07951 0.566162 1.23951 0.406162C1.39951 0.246162 1.59729 0.16644 1.83285 0.166995H10.1662C10.4023 0.166995 10.6003 0.246995 10.7603 0.406995C10.9203 0.566995 11.0001 0.764773 10.9995 1.00033V9.33366C10.9995 9.56977 10.9195 9.76783 10.7595 9.92783C10.5995 10.0878 10.4017 10.1676 10.1662 10.167C9.93007 10.167 9.73201 10.087 9.57201 9.92699C9.41201 9.76699 9.33229 9.56922 9.33285 9.33366V3.00033Z" fill="#111A2B"/>
</svg>
