<svg width="24" height="24" viewBox="0 0 24 24" fill="none" xmlns="http://www.w3.org/2000/svg">
<path d="M20 12C20 12.1404 19.9784 12.2719 19.9353 12.3947C19.8928 12.5175 19.8202 12.6316 19.7175 12.7368L12.9374 19.6842C12.7319 19.8947 12.4878 20 12.2049 20C11.9228 20 11.679 19.8947 11.4735 19.6842C11.2681 19.4737 11.1653 19.2281 11.1653 18.9474C11.1653 18.6667 11.2681 18.4211 11.4735 18.2105L16.5072 13.0526L5.00161 13.0526C4.71054 13.0526 4.47084 12.9516 4.2825 12.7495C4.09417 12.5481 4 12.2982 4 12C4 11.7018 4.09828 11.4516 4.29483 11.2495C4.49207 11.0481 4.73622 10.9474 5.02729 10.9474L16.5072 10.9474L11.4735 5.78947C11.2681 5.57895 11.1653 5.33333 11.1653 5.05263C11.1653 4.77193 11.2681 4.52632 11.4735 4.31579C11.679 4.10526 11.9228 4 12.2049 4C12.4878 4 12.7319 4.10526 12.9374 4.31579L19.7175 11.2632C19.8202 11.3684 19.8928 11.4825 19.9353 11.6053C19.9784 11.7281 20 11.8597 20 12Z" fill="url(#paint0_linear_256_18299)"/>
<defs>
<linearGradient id="paint0_linear_256_18299" x1="2.73684" y1="0.416667" x2="21.0005" y2="17.9088" gradientUnits="userSpaceOnUse">
<stop offset="0.0633718" stop-color="#3619AB"/>
<stop offset="0.517512" stop-color="#2272BB"/>
<stop offset="1" stop-color="#00814B"/>
</linearGradient>
</defs>
</svg>
