<svg width="24" height="24" viewBox="0 0 24 24" fill="none" xmlns="http://www.w3.org/2000/svg">
<path d="M4 12C4 11.8596 4.02157 11.7281 4.06472 11.6053C4.10718 11.4825 4.17978 11.3684 4.2825 11.2632L11.0626 4.31579C11.2681 4.10526 11.5122 4 11.7951 4C12.0772 4 12.321 4.10526 12.5265 4.31579C12.7319 4.52631 12.8347 4.77193 12.8347 5.05263C12.8347 5.33333 12.7319 5.57895 12.5265 5.78947L7.49278 10.9474L18.9984 10.9474C19.2895 10.9474 19.5292 11.0484 19.7175 11.2505C19.9058 11.4519 20 11.7018 20 12C20 12.2982 19.9017 12.5484 19.7052 12.7505C19.5079 12.9519 19.2638 13.0526 18.9727 13.0526L7.49278 13.0526L12.5265 18.2105C12.7319 18.4211 12.8347 18.6667 12.8347 18.9474C12.8347 19.2281 12.7319 19.4737 12.5265 19.6842C12.321 19.8947 12.0772 20 11.7951 20C11.5122 20 11.2681 19.8947 11.0626 19.6842L4.2825 12.7368C4.17978 12.6316 4.10718 12.5175 4.06472 12.3947C4.02157 12.2719 4 12.1404 4 12Z" fill="url(#paint0_linear_256_18295)"/>
<defs>
<linearGradient id="paint0_linear_256_18295" x1="21.2632" y1="23.5833" x2="2.99954" y2="6.09123" gradientUnits="userSpaceOnUse">
<stop offset="0.0633718" stop-color="#3619AB"/>
<stop offset="0.517512" stop-color="#2272BB"/>
<stop offset="1" stop-color="#00814B"/>
</linearGradient>
</defs>
</svg>
