<svg width="20" height="20" viewBox="0 0 20 20" fill="none" xmlns="http://www.w3.org/2000/svg">
<path d="M19.375 3.7987C18.6729 4.1304 17.9282 4.34813 17.1656 4.44465C17.9599 3.93695 18.5698 3.13299 18.857 2.17507C18.1019 2.65292 17.2757 2.9896 16.4143 3.17056C15.7125 2.37331 14.7128 1.87506 13.6064 1.87506C11.4819 1.87506 9.75947 3.71184 9.75947 5.97728C9.75947 6.29885 9.79353 6.6119 9.85908 6.91223C6.66206 6.74109 3.82759 5.10794 1.93025 2.62599C1.59919 3.23187 1.4095 3.93664 1.4095 4.68835C1.4095 6.11162 2.08867 7.36721 3.1208 8.1029C2.50992 8.0825 1.91249 7.90655 1.37837 7.58974C1.37815 7.60692 1.37815 7.6241 1.37815 7.64136C1.37815 9.62897 2.70413 11.287 4.46384 11.6639C3.89738 11.8282 3.3032 11.8522 2.72668 11.7342C3.21616 13.364 4.63684 14.55 6.32009 14.5832C5.00356 15.6834 3.34485 16.3393 1.54265 16.3393C1.2321 16.3393 0.925952 16.3198 0.625 16.282C2.32737 17.4459 4.34937 18.1251 6.52173 18.1251C13.5974 18.1251 17.4666 11.874 17.4666 6.45303C17.4666 6.2751 17.4629 6.09819 17.4555 5.92229C18.2086 5.3417 18.8586 4.62259 19.375 3.7987Z" fill="url(#paint0_linear_65_1167)"/>
<defs>
<linearGradient id="paint0_linear_65_1167" x1="-0.855263" y1="-1.76426" x2="17.6187" y2="18.6514" gradientUnits="userSpaceOnUse">
<stop offset="0.0633718" stop-color="#3619AB"/>
<stop offset="0.517512" stop-color="#2272BB"/>
<stop offset="1" stop-color="#00814B"/>
</linearGradient>
</defs>
</svg>
