<svg width="20" height="20" viewBox="0 0 20 20" fill="none" xmlns="http://www.w3.org/2000/svg">
<path fill-rule="evenodd" clip-rule="evenodd" d="M18.9096 3.64842C19.2201 3.981 19.4439 4.39491 19.5586 4.84891C20.2192 7.69639 20.0666 12.1937 19.5714 15.1511C19.4567 15.6051 19.2329 16.019 18.9224 16.3516C18.6118 16.6842 18.2253 16.9238 17.8013 17.0467C16.2494 17.5 10.0028 17.5 10.0028 17.5C10.0028 17.5 3.75609 17.5 2.20404 17.0467C1.78009 16.9238 1.3936 16.6842 1.08305 16.3516C0.772502 16.019 0.548725 15.6051 0.434007 15.1511C-0.230458 12.316 -0.0483452 7.81595 0.421116 4.86272C0.535823 4.4087 0.759594 3.99478 1.07015 3.66218C1.3807 3.32958 1.76719 3.0899 2.19115 2.96702C3.7432 2.51372 9.99003 2.5 9.99003 2.5C9.99003 2.5 16.2365 2.5 17.7886 2.9533C18.2125 3.07617 18.599 3.31583 18.9096 3.64842ZM13.1838 9.99994L8.00184 13.2142V6.78567L13.1838 9.99994Z" fill="url(#paint0_linear_65_1380)"/>
<defs>
<linearGradient id="paint0_linear_65_1380" x1="-1.57895" y1="-0.859375" x2="15.0593" y2="20.3878" gradientUnits="userSpaceOnUse">
<stop offset="0.0633718" stop-color="#3619AB"/>
<stop offset="0.517512" stop-color="#2272BB"/>
<stop offset="1" stop-color="#00814B"/>
</linearGradient>
</defs>
</svg>
